<?xml version="1.0" standalone="no"?>
<!DOCTYPE svg PUBLIC "-//W3C//DTD SVG 20010904//EN"
 "http://www.w3.org/TR/2001/REC-SVG-20010904/DTD/svg10.dtd">
<svg version="1.0" xmlns="http://www.w3.org/2000/svg"
 width="1264.000000pt" height="1264.000000pt" viewBox="0 0 1264.000000 1264.000000"
 preserveAspectRatio="xMidYMid meet">
<metadata>
Created by potrace 1.11, written by Peter Selinger 2001-2013
</metadata>
<g transform="translate(0.000000,1264.000000) scale(0.100000,-0.100000)"
fill="#000000" stroke="none">
<path d="M0 6320 l0 -4560 6305 0 6305 0 0 4560 0 4560 -6305 0 -6305 0 0
-4560z m7414 3635 c32 -3 66 -9 75 -14 9 -5 55 -5 111 1 76 8 114 7 195 -6 55
-9 111 -16 125 -15 14 1 52 -5 85 -13 33 -9 89 -21 125 -28 36 -6 99 -23 140
-36 41 -13 87 -24 101 -24 14 0 34 -7 45 -15 10 -8 31 -15 45 -15 15 0 38 -9
52 -20 14 -11 30 -20 36 -20 14 0 356 -170 408 -203 23 -15 49 -40 57 -56 9
-16 22 -31 30 -34 7 -3 25 -30 38 -59 14 -30 38 -69 55 -88 36 -42 103 -167
103 -193 0 -21 24 -70 55 -112 13 -16 26 -41 30 -54 4 -14 16 -38 26 -55 11
-17 19 -41 19 -54 0 -15 11 -29 35 -43 19 -12 35 -28 35 -36 0 -13 10 -14 58
-8 31 4 61 11 66 16 15 14 70 11 92 -6 34 -26 76 -18 135 26 99 75 120 79 179
41 18 -12 68 -20 170 -28 143 -12 249 -37 329 -78 42 -22 165 -66 184 -66 22
0 31 56 22 143 -7 71 -6 71 13 54 48 -44 83 -162 97 -330 6 -71 9 -78 31 -83
30 -8 54 -40 54 -74 0 -15 11 -37 25 -50 14 -13 25 -29 25 -35 0 -7 9 -20 19
-29 11 -10 25 -30 31 -46 8 -18 28 -36 56 -49 69 -33 125 -93 131 -141 3 -22
12 -45 19 -51 17 -14 18 -51 2 -67 -16 -16 7 -42 38 -42 28 0 29 -7 8 -35 -12
-16 -14 -35 -8 -91 5 -60 3 -79 -15 -119 -28 -63 -27 -81 7 -110 l27 -23 -27
-7 c-22 -6 -28 -13 -28 -34 0 -15 -16 -49 -35 -76 l-35 -49 32 -33 c28 -29 30
-36 25 -81 -7 -64 -36 -117 -92 -172 -25 -24 -45 -47 -45 -51 0 -4 20 -15 45
-26 25 -10 45 -22 45 -28 0 -5 -14 -30 -30 -54 -17 -24 -30 -53 -30 -63 0 -28
36 -76 71 -93 35 -19 37 -37 7 -57 -24 -16 -24 -23 -16 -137 3 -30 -2 -38 -32
-59 -41 -27 -48 -53 -54 -185 -2 -65 -8 -92 -21 -107 -15 -17 -16 -27 -6 -101
6 -45 11 -126 11 -179 0 -88 -2 -100 -28 -141 -38 -59 -102 -112 -154 -129
-49 -16 -132 -59 -201 -107 -46 -31 -91 -48 -147 -55 l-25 -3 3 -115 c3 -98
-1 -130 -22 -211 -14 -54 -30 -144 -35 -201 -6 -58 -15 -117 -20 -131 -12 -32
-85 -126 -112 -145 -10 -7 -21 -28 -25 -47 -8 -43 -30 -46 -39 -5 -4 17 -12
30 -18 30 -16 -1 -63 -79 -78 -130 -13 -42 -23 -50 -33 -25 -8 21 -34 19 -38
-3 -2 -12 -12 -4 -37 32 -29 41 -37 47 -60 43 -22 -4 -31 2 -61 45 -19 28 -49
69 -65 92 -17 22 -36 54 -43 70 -7 16 -22 41 -33 55 -57 74 -77 114 -68 138
15 40 11 66 -7 59 -15 -6 -16 1 -10 58 6 60 -3 92 -19 66 -13 -21 -27 -9 -22
18 7 32 -12 92 -28 92 -7 0 -17 -12 -24 -27 -12 -27 -13 -27 -27 -8 -8 10 -14
31 -14 46 0 20 -7 30 -30 39 -16 7 -36 10 -45 6 -12 -4 -15 3 -13 44 1 27 -1
52 -5 56 -4 4 -20 -5 -36 -20 l-30 -28 -3 33 c-2 25 -8 34 -20 33 -10 -1 -18
4 -18 12 0 23 -27 16 -49 -13 l-20 -28 -1 30 0 30 -23 -29 c-16 -20 -26 -25
-31 -18 -5 9 -13 9 -26 2 -28 -15 -33 -12 -26 14 10 41 -7 38 -56 -11 -44 -43
-54 -48 -96 -49 -69 -2 -130 -19 -156 -43 -12 -11 -30 -21 -39 -21 -9 0 -19
-4 -22 -10 -11 -18 -42 -11 -57 12 -14 20 -17 21 -33 8 -9 -8 -22 -26 -28 -40
l-11 -25 -4 33 c-4 35 -14 40 -34 16 -7 -8 -25 -29 -40 -46 -16 -17 -28 -37
-28 -44 0 -8 -4 -14 -10 -14 -14 0 -27 -29 -51 -116 -34 -122 -50 -194 -54
-249 -3 -27 -7 -61 -10 -74 -3 -13 1 -44 9 -70 18 -59 29 -243 15 -278 -14
-37 15 -174 49 -236 15 -26 58 -92 96 -146 l69 -99 8 -89 c4 -50 17 -143 29
-208 11 -65 20 -137 20 -160 0 -37 24 -141 73 -320 8 -27 12 -56 10 -63 -3 -7
-29 -28 -59 -48 l-53 -36 -109 21 c-185 36 -285 79 -336 145 -25 33 -26 37
-13 68 38 90 27 149 -30 173 -18 8 -36 21 -39 29 -3 8 11 51 31 96 47 105 45
116 -24 113 -51 -2 -53 -2 -46 20 3 12 10 36 14 52 5 17 16 47 25 69 19 45 20
85 4 121 -13 28 -33 33 -46 10 -5 -10 -24 -16 -53 -17 -24 -1 -47 -7 -51 -12
-4 -6 -8 -32 -8 -58 0 -78 -29 -70 -53 13 -16 54 -39 62 -57 19 -13 -31 -30
-40 -30 -15 0 8 -11 25 -25 39 -14 14 -25 36 -25 49 0 46 -62 51 -89 7 -16
-27 -20 -29 -31 -15 -7 8 -18 15 -25 15 -6 0 -17 11 -23 25 -12 27 -28 33 -34
13 -7 -19 -66 10 -86 41 -9 14 -31 40 -47 56 -17 17 -48 54 -69 83 -35 48 -72
72 -94 58 -5 -3 -16 12 -25 34 -8 22 -20 40 -25 40 -19 0 -129 -316 -157 -445
-24 -112 -15 -311 20 -434 12 -44 74 -207 129 -338 14 -34 34 -91 43 -128 l18
-66 -40 -34 c-39 -33 -43 -34 -127 -35 -185 0 -324 38 -392 109 -27 29 -29 35
-30 123 l-1 93 -39 5 c-64 8 -66 20 -22 192 48 190 60 353 31 415 -18 38 -53
83 -65 83 -4 0 -23 -24 -44 -54 -37 -54 -66 -77 -66 -53 -1 7 -12 25 -25 42
l-24 29 -10 -28 c-6 -15 -11 -35 -11 -44 -1 -29 -17 7 -25 56 -4 24 -9 41 -12
38 -3 -3 -19 2 -34 10 -23 12 -28 20 -24 39 3 14 7 36 10 49 3 16 -3 34 -19
53 -44 53 -49 71 -42 157 l6 81 -23 -28 c-25 -30 -37 -27 -37 8 0 13 -10 29
-21 37 -19 12 -22 25 -24 100 -2 47 -6 91 -9 96 -11 18 15 155 40 211 30 67
30 74 -1 69 l-24 -5 19 26 c27 38 79 90 138 139 29 24 52 47 52 52 0 5 -12 10
-26 12 l-26 3 35 45 c48 64 67 104 67 144 0 19 5 46 11 59 7 16 8 39 2 68 -7
37 -13 44 -38 50 -44 10 -127 49 -152 71 -17 16 -32 19 -87 16 l-66 -3 0 31
c0 25 -6 34 -28 43 -16 7 -33 11 -38 10 -5 -1 -40 12 -77 30 -61 30 -74 32
-122 26 -52 -6 -55 -5 -55 16 0 22 -1 22 -117 14 -123 -8 -173 -8 -295 -4 -61
3 -82 -1 -123 -21 -27 -13 -57 -25 -65 -27 -91 -17 -123 -24 -170 -42 -30 -11
-66 -20 -80 -21 -35 0 -153 -26 -176 -38 -10 -5 -33 -7 -50 -5 -39 6 -84 -21
-84 -50 0 -11 20 -42 45 -68 25 -26 45 -57 45 -69 0 -11 -16 -37 -35 -58 -19
-21 -43 -60 -55 -86 -14 -34 -25 -46 -35 -42 -11 4 -18 -7 -26 -40 -10 -38
-14 -43 -25 -32 -14 14 -48 129 -65 221 -15 82 -52 119 -190 191 -144 75 -198
112 -416 289 -317 256 -499 381 -521 355 -14 -18 -65 -181 -101 -325 -41 -163
-58 -271 -71 -453 -14 -205 -36 -377 -55 -430 -18 -50 -21 -424 -5 -548 18
-137 96 -319 241 -559 113 -189 244 -351 380 -475 84 -76 184 -213 215 -295
23 -59 7 -119 -34 -130 -15 -5 -109 -7 -209 -7 l-183 2 -62 34 c-46 26 -69 46
-88 79 -25 42 -30 45 -104 64 -105 27 -107 31 -100 169 l6 111 -91 184 c-180
361 -482 912 -602 1097 -72 110 -72 118 -25 307 23 88 38 182 45 264 13 168 8
176 -59 87 -23 -30 -99 -112 -169 -182 -145 -145 -223 -255 -312 -437 -82
-168 -141 -356 -188 -590 -49 -245 -57 -340 -41 -476 14 -128 26 -157 77 -192
24 -17 61 -61 94 -113 30 -47 69 -104 88 -127 41 -51 73 -120 65 -140 -3 -9
-27 -32 -52 -52 l-47 -37 -155 5 c-126 3 -165 8 -211 26 -87 33 -129 87 -129
165 0 30 -4 46 -12 46 -35 0 -87 23 -93 40 -3 10 1 45 9 77 23 91 28 154 17
203 -12 53 -41 80 -86 80 -50 0 -65 9 -65 39 0 28 38 106 77 159 30 41 78 198
97 322 8 52 26 125 39 161 32 82 74 327 87 507 7 95 21 179 45 275 20 75 40
172 45 215 6 42 17 107 26 143 15 64 20 71 117 170 155 158 264 330 302 474
39 150 2 324 -127 595 -122 255 -207 511 -248 740 -25 140 -24 283 4 441 15
85 100 324 135 383 10 17 22 41 26 54 11 38 -35 27 -113 -28 -155 -109 -220
-275 -229 -591 -7 -211 3 -280 58 -403 35 -80 39 -97 39 -170 -1 -102 -16
-269 -31 -349 -10 -48 -20 -70 -50 -100 -21 -22 -48 -45 -61 -51 -12 -6 -40
-38 -61 -70 -21 -32 -41 -56 -43 -53 -2 2 7 28 21 58 14 30 25 60 25 66 0 7 9
40 21 73 26 77 21 92 -19 49 -17 -18 -33 -31 -35 -29 -3 3 15 39 39 80 43 73
53 119 28 127 -7 2 -17 -11 -24 -29 -7 -18 -14 -27 -17 -20 -3 7 2 31 11 53
12 30 14 57 10 109 -4 39 -9 70 -12 70 -3 0 -11 -8 -19 -17 -13 -16 -14 -15
-8 12 4 17 9 62 11 100 5 64 4 68 -11 51 -14 -18 -15 -9 -15 108 0 123 -1 127
-20 121 -11 -3 -20 -4 -20 -1 0 3 13 45 30 93 16 47 30 90 30 95 0 21 -24 -8
-43 -51 -25 -58 -33 -40 -13 30 20 68 20 83 0 75 -15 -6 -15 -4 0 19 9 14 14
30 11 35 -3 4 6 30 20 56 14 26 25 59 25 73 0 15 4 31 10 37 5 5 21 50 35 99
67 229 214 411 427 527 247 136 276 146 660 249 20 5 83 40 140 77 230 151
358 200 593 227 167 19 468 109 552 164 25 17 70 35 101 41 32 7 91 25 132 41
41 16 106 36 145 44 54 11 76 21 95 43 63 72 176 110 421 142 52 7 112 18 134
25 22 7 58 16 80 20 21 4 52 13 68 22 35 18 183 63 207 63 9 0 25 9 35 20 10
11 34 22 54 25 20 4 52 14 71 24 19 10 57 24 85 30 27 7 70 23 95 36 87 47
323 125 375 125 13 0 63 12 111 26 256 76 312 85 609 98 22 1 48 6 58 10 11 5
40 4 71 -4 29 -7 74 -10 102 -6 52 6 256 16 336 16 25 0 49 4 53 9 3 6 18 8
33 6 15 -2 53 -7 86 -10z"/>
<path d="M6230 4279 c0 -11 5 -17 10 -14 6 3 10 13 10 21 0 8 -4 14 -10 14 -5
0 -10 -9 -10 -21z"/>
<path d="M6416 3884 c-3 -9 -3 -20 0 -25 8 -13 34 9 34 27 0 19 -26 18 -34 -2z"/>
</g>
</svg>
