<svg width="80" height="80" viewBox="0 0 80 80" fill="none" xmlns="http://www.w3.org/2000/svg">
<path d="M19.006 41.8425C18.2529 42.1258 17.7777 42.7019 17.7777 43.3334V66.6667C17.7777 67.2983 18.2529 67.8761 19.006 68.1577C19.5096 68.3464 24.375 70 40.0044 70C55.6338 70 60.4927 68.3464 60.994 68.1575C61.7471 67.8742 62.2223 67.2981 62.2223 66.6666V43.3333C62.2223 42.7017 61.7471 42.1256 60.994 41.8423C60.4904 41.6536 55.6294 40 40 40C24.3706 40 19.5096 41.6536 19.006 41.8425ZM57.7777 65.4688C55.6031 65.9083 50.3515 66.6667 40.0042 66.6667C29.6352 66.6667 24.3792 65.905 22.2221 65.4705V44.5312C24.3988 44.0917 29.6504 43.3333 39.9998 43.3333C50.3688 43.3333 55.6227 44.095 57.7775 44.5295V65.4688H57.7777Z" fill="white"/>
<path d="M35.5556 29.9998C35.5556 31.8373 37.55 33.3331 40 33.3331C42.45 33.3331 44.4444 31.8373 44.4444 29.9998C44.4444 28.1623 42.45 26.6665 40 26.6665C37.55 26.6665 35.5556 28.1623 35.5556 29.9998Z" fill="white"/>
<path d="M77.7777 0H2.22229C0.993958 0 0 0.745469 0 1.66672V8.33344C0 9.25453 0.993958 10 2.22229 10H33.3333V16.7984C19.4873 17.3731 13.9087 19.7262 9.69396 21.5055L8.89542 21.8423C6.15021 22.985 4.44437 25.2002 4.44437 27.6203V69.0461C4.44437 71.4664 6.15021 73.6816 8.89542 74.8241L9.69396 75.1609C14.5292 77.2022 21.1502 80 40 80C58.8498 80 65.4708 77.2022 70.306 75.1611L71.1046 74.8242C73.8498 73.6816 75.5556 71.4664 75.5556 69.0462V27.6205C75.5556 25.2002 73.8498 22.985 71.1046 21.8425L70.306 21.5056C66.0915 19.7264 60.5127 17.3733 46.6667 16.7986V10H77.7777C79.006 10 80 9.25453 80 8.33328V1.66672C80 0.745469 79.006 0 77.7777 0ZM68.125 24.4108L68.9475 24.7558C70.2821 25.3125 71.111 26.4094 71.111 27.6203V69.0461C71.111 70.257 70.2821 71.3541 68.9475 71.9106L68.125 72.2559C63.7196 74.118 57.6844 76.6667 40 76.6667C22.3156 76.6667 16.2804 74.1178 11.875 72.2559L11.0525 71.9109C9.71792 71.3542 8.88896 70.2573 8.88896 69.0464V27.6205C8.88896 26.4095 9.71792 25.3125 11.0525 24.7559L11.875 24.4109C16.2804 22.5489 22.3156 20 40 20C57.6844 20 63.7196 22.5489 68.125 24.4108ZM37.7777 16.6877V10H42.2221V16.6877C41.4908 16.6784 40.7712 16.6667 39.9998 16.6667C39.2283 16.6667 38.5092 16.6784 37.7777 16.6877ZM75.5556 6.66672H4.44437V3.33328H75.5554V6.66672H75.5556Z" fill="white"/>
</svg>
