<svg width="80" height="80" viewBox="0 0 80 80" fill="none" xmlns="http://www.w3.org/2000/svg">
<path d="M76.4844 14.765C74.9567 14.765 73.6542 15.7452 73.1702 17.1088H48.3594V8.35938C48.3594 6.12793 47.4902 4.02893 45.9106 2.44751C44.3311 0.869141 42.2314 0 40 0C35.3906 0 31.6406 3.75 31.6406 8.35938V19.9481C31.6406 20.5951 32.1649 21.12 32.8125 21.12C33.4601 21.12 33.9844 20.5951 33.9844 19.9481V8.35938C33.9844 5.04211 36.6827 2.34375 40 2.34375C41.6058 2.34375 43.1171 2.96936 44.2535 4.10461C45.39 5.24231 46.0156 6.75354 46.0156 8.35938V46.1981C46.0156 46.8451 46.5399 47.37 47.1875 47.37C47.8351 47.37 48.3594 46.8451 48.3594 46.1981V45.5469H67.4219V64.137C66.0577 64.6204 65.0781 65.9229 65.0781 67.4506C65.0781 69.3896 66.6553 70.9662 68.5938 70.9662C70.5322 70.9662 72.1094 69.3896 72.1094 67.4506C72.1094 65.9229 71.1298 64.6204 69.7656 64.137V44.375C69.7656 43.728 69.2413 43.2031 68.5938 43.2031H48.3594V33.4003H53.4045C53.8885 34.7638 55.191 35.744 56.7188 35.744C58.6572 35.744 60.2344 34.1669 60.2344 32.2284C60.2344 30.2893 58.6572 28.7128 56.7188 28.7128C55.191 28.7128 53.8885 29.6924 53.4045 31.0565H48.3594V19.4525H73.1702C73.6542 20.8167 74.9567 21.7963 76.4844 21.7963C78.4229 21.7963 80 20.2197 80 18.2806C80 16.3422 78.4229 14.765 76.4844 14.765V14.765ZM68.5938 68.6224C67.9474 68.6224 67.4219 68.0969 67.4219 67.4506C67.4219 66.8048 67.9474 66.2787 68.5938 66.2787C69.2401 66.2787 69.7656 66.8048 69.7656 67.4506C69.7656 68.0969 69.2401 68.6224 68.5938 68.6224ZM56.7188 31.0565C57.3651 31.0565 57.8906 31.582 57.8906 32.2284C57.8906 32.8741 57.3651 33.4003 56.7188 33.4003C56.0724 33.4003 55.5469 32.8741 55.5469 32.2284C55.5469 31.582 56.0724 31.0565 56.7188 31.0565ZM76.4844 19.4525C75.838 19.4525 75.3125 18.927 75.3125 18.2806C75.3125 17.6349 75.838 17.1088 76.4844 17.1088C77.1307 17.1088 77.6562 17.6349 77.6562 18.2806C77.6562 18.927 77.1307 19.4525 76.4844 19.4525Z" fill="white"/>
<path d="M48.3594 55.509V51.1981C48.3594 50.5505 47.8351 50.0262 47.1875 50.0262C46.5399 50.0262 46.0156 50.5505 46.0156 51.1981V56.0999C46.0156 56.4813 46.2012 56.839 46.5131 57.0581C49.5282 59.1821 51.3281 62.6471 51.3281 66.3281C51.3281 72.5745 46.2463 77.6562 40 77.6562C33.7537 77.6562 28.6719 72.5745 28.6719 66.3281C28.6719 62.6471 30.4718 59.1821 33.4869 57.0581C33.7988 56.839 33.9844 56.4813 33.9844 56.0999V24.8108C33.9844 24.1638 33.4601 23.6389 32.8125 23.6389C32.1649 23.6389 31.6406 24.1638 31.6406 24.8108V27.0599H12.5781V8.47046C13.9423 7.98645 14.9219 6.68396 14.9219 5.15625C14.9219 3.21777 13.3447 1.64062 11.4062 1.64062C9.46777 1.64062 7.89062 3.21777 7.89062 5.15625C7.89062 6.68396 8.87024 7.98645 10.2344 8.47046V28.2318C10.2344 28.8794 10.7587 29.4037 11.4062 29.4037H31.6406V39.7906H6.82983C6.34583 38.4271 5.04333 37.4469 3.51562 37.4469C1.57715 37.4469 0 39.024 0 40.9625C0 42.9016 1.57715 44.4781 3.51562 44.4781C5.04333 44.4781 6.34583 43.4985 6.82983 42.1344H31.6406V47.0044H11.4062C10.7587 47.0044 10.2344 47.5293 10.2344 48.1763V59.9158C8.87024 60.3998 7.89062 61.7023 7.89062 63.23C7.89062 65.1685 9.46777 66.7456 11.4062 66.7456C13.3447 66.7456 14.9219 65.1685 14.9219 63.23C14.9219 61.7023 13.9423 60.3998 12.5781 59.9158V49.3481H31.6406V55.509C28.3032 58.0927 26.3281 62.0923 26.3281 66.3281C26.3281 73.8666 32.4615 80 40 80C47.5385 80 53.6719 73.8666 53.6719 66.3281C53.6719 62.0923 51.6968 58.0927 48.3594 55.509ZM11.4062 3.98438C12.0526 3.98438 12.5781 4.50989 12.5781 5.15625C12.5781 5.80261 12.0526 6.32812 11.4062 6.32812C10.7599 6.32812 10.2344 5.80261 10.2344 5.15625C10.2344 4.50989 10.7599 3.98438 11.4062 3.98438ZM3.51562 42.1344C2.86926 42.1344 2.34375 41.6089 2.34375 40.9625C2.34375 40.3168 2.86926 39.7906 3.51562 39.7906C4.16199 39.7906 4.6875 40.3168 4.6875 40.9625C4.6875 41.6089 4.16199 42.1344 3.51562 42.1344ZM11.4062 64.4019C10.7599 64.4019 10.2344 63.8757 10.2344 63.23C10.2344 62.5836 10.7599 62.0581 11.4062 62.0581C12.0526 62.0581 12.5781 62.5836 12.5781 63.23C12.5781 63.8757 12.0526 64.4019 11.4062 64.4019Z" fill="white"/>
<path d="M43.6719 8.35938C43.6719 7.37854 43.291 6.45752 42.5983 5.76416C41.9031 5.06958 40.9802 4.6875 40 4.6875C37.9755 4.6875 36.3281 6.33484 36.3281 8.35938V57.9242L34.8364 58.9746C32.4438 60.6598 31.0156 63.4088 31.0156 66.3281C31.0156 67.3364 31.1823 68.327 31.5112 69.2731C31.7242 69.8846 32.3926 70.2075 33.0035 69.9951C33.6145 69.7821 33.9374 69.1144 33.725 68.5034C33.4821 67.8052 33.3594 67.074 33.3594 66.3281C33.3594 64.1699 34.4165 62.1375 36.1865 60.8905L38.175 59.4904C38.4863 59.2712 38.6719 58.9136 38.6719 58.5321V31.9293H41.3281V58.5321C41.3281 58.9136 41.5137 59.2706 41.8256 59.4904L43.8141 60.8905C45.5841 62.1375 46.6412 64.1699 46.6412 66.3281C46.6412 69.9896 43.6621 72.9688 40.0006 72.9688C38.6853 72.9688 37.4127 72.583 36.3214 71.8536C35.7837 71.4941 35.0555 71.6388 34.696 72.1771C34.3365 72.7148 34.4812 73.4424 35.0189 73.8025C36.4966 74.79 38.2196 75.3125 40 75.3125C44.9542 75.3125 48.9844 71.2823 48.9844 66.3281C48.9844 63.4088 47.5562 60.6598 45.1636 58.9746L43.6719 57.9242V8.35938ZM38.6719 29.5856V8.35938C38.6719 7.62695 39.2676 7.03125 40 7.03125C40.3552 7.03125 40.6897 7.17041 40.9412 7.42126C41.1908 7.6709 41.3281 8.00415 41.3281 8.35938V29.5856H38.6719Z" fill="white"/>
</svg>
