<svg width="80" height="80" viewBox="0 0 80 80" fill="none" xmlns="http://www.w3.org/2000/svg">
<g clip-path="url(#clip0)">
<path d="M25 63.3334H1.66666C0.746659 63.3334 -7.62939e-06 62.5867 -7.62939e-06 61.6667V18.3334C-7.62939e-06 17.81 0.243326 17.3167 0.663326 17.0034C1.08333 16.69 1.61333 16.5867 2.12333 16.73L23.3333 22.79V18.3334C23.3333 17.81 23.5767 17.3167 23.9967 17.0034C24.4133 16.6867 24.95 16.5867 25.4567 16.73L46.6667 22.79V18.3334C46.6667 17.81 46.91 17.3167 47.33 17.0034C47.75 16.69 48.28 16.5867 48.79 16.73L72.1233 23.3967C72.84 23.6034 73.3333 24.2567 73.3333 25V48.3334C73.3333 49.2534 72.5867 50 71.6667 50C70.7467 50 70 49.2534 70 48.3334V26.2567L50 20.5434V25C50 25.5234 49.7567 26.0167 49.3367 26.33C48.9167 26.6434 48.3833 26.7434 47.8767 26.6034L26.6667 20.5434V25C26.6667 25.5234 26.4233 26.0167 26.0033 26.33C25.5833 26.6434 25.0533 26.7434 24.54 26.6034L3.33333 20.5434V60H25C25.92 60 26.6667 60.7467 26.6667 61.6667C26.6667 62.5867 25.92 63.3334 25 63.3334V63.3334Z" fill="white"/>
<path d="M18.3333 24.7633C17.4133 24.7633 16.6666 24.0167 16.6666 23.0967V3.33333H9.99992V20C9.99992 20.92 9.25326 21.6667 8.33326 21.6667C7.41326 21.6667 6.66659 20.92 6.66659 20V1.66667C6.66659 0.746667 7.41326 0 8.33326 0H18.3333C19.2533 0 19.9999 0.746667 19.9999 1.66667V23.0967C19.9999 24.0167 19.2533 24.7633 18.3333 24.7633Z" fill="white"/>
<path d="M21.6667 3.33333H5.00006C4.08006 3.33333 3.3334 2.58667 3.3334 1.66667C3.3334 0.746667 4.08006 0 5.00006 0H21.6667C22.5867 0 23.3334 0.746667 23.3334 1.66667C23.3334 2.58667 22.5867 3.33333 21.6667 3.33333Z" fill="white"/>
<path d="M41.6667 24.7633C40.7467 24.7633 40 24.0167 40 23.0967V3.33333H33.3333V20C33.3333 20.92 32.5867 21.6667 31.6667 21.6667C30.7467 21.6667 30 20.92 30 20V1.66667C30 0.746667 30.7467 0 31.6667 0H41.6667C42.5867 0 43.3333 0.746667 43.3333 1.66667V23.0967C43.3333 24.0167 42.5867 24.7633 41.6667 24.7633Z" fill="white"/>
<path d="M45.0001 3.33333H28.3335C27.4135 3.33333 26.6668 2.58667 26.6668 1.66667C26.6668 0.746667 27.4135 0 28.3335 0H45.0001C45.9201 0 46.6668 0.746667 46.6668 1.66667C46.6668 2.58667 45.9201 3.33333 45.0001 3.33333Z" fill="white"/>
<path d="M64.9999 24.7633C64.0799 24.7633 63.3332 24.0167 63.3332 23.0967V3.33333H56.6665V20C56.6665 20.92 55.9199 21.6667 54.9999 21.6667C54.0799 21.6667 53.3332 20.92 53.3332 20V1.66667C53.3332 0.746667 54.0799 0 54.9999 0H64.9999C65.9199 0 66.6665 0.746667 66.6665 1.66667V23.0967C66.6665 24.0167 65.9199 24.7633 64.9999 24.7633Z" fill="white"/>
<path d="M68.3333 3.33333H51.6667C50.7467 3.33333 50 2.58667 50 1.66667C50 0.746667 50.7467 0 51.6667 0H68.3333C69.2533 0 70 0.746667 70 1.66667C70 2.58667 69.2533 3.33333 68.3333 3.33333Z" fill="white"/>
<path d="M41.6666 63.3333H18.3333C17.4133 63.3333 16.6666 62.5867 16.6666 61.6667V41.6667C16.6666 40.7467 17.4133 40 18.3333 40H54.9999C55.9199 40 56.6666 40.7467 56.6666 41.6667C56.6666 42.5867 55.9199 43.3333 54.9999 43.3333H19.9999V60H41.6666C42.5866 60 43.3333 60.7467 43.3333 61.6667C43.3333 62.5867 42.5866 63.3333 41.6666 63.3333Z" fill="white"/>
<path d="M58.3334 43.3333H15.0001C14.0801 43.3333 13.3334 42.5867 13.3334 41.6667C13.3334 40.7467 14.0801 40 15.0001 40H58.3334C59.2534 40 60.0001 40.7467 60.0001 41.6667C60.0001 42.5867 59.2534 43.3333 58.3334 43.3333Z" fill="white"/>
<path d="M41.6667 53.3333H31.6667C30.7467 53.3333 30 52.5867 30 51.6667C30 50.7467 30.7467 50 31.6667 50H41.6667C42.5867 50 43.3333 50.7467 43.3333 51.6667C43.3333 52.5867 42.5867 53.3333 41.6667 53.3333Z" fill="white"/>
<path d="M63.3332 76.6667C57.8199 76.6667 53.3332 72.18 53.3332 66.6667V61.6667C53.3332 60.7467 54.0799 60 54.9999 60H71.6665C72.5865 60 73.3332 60.7467 73.3332 61.6667V66.6667C73.3332 72.18 68.8465 76.6667 63.3332 76.6667ZM56.6665 63.3333V66.6667C56.6665 70.3433 59.6565 73.3333 63.3332 73.3333C67.0099 73.3333 69.9999 70.3433 69.9999 66.6667V63.3333H56.6665Z" fill="white"/>
<path d="M75 63.3333H51.6667C50.7467 63.3333 50 62.5867 50 61.6667C50 60.7467 50.7467 60 51.6667 60H75C75.92 60 76.6667 60.7467 76.6667 61.6667C76.6667 62.5867 75.92 63.3333 75 63.3333Z" fill="white"/>
<path d="M71.6665 63.3333H54.9999C54.0799 63.3333 53.3332 62.5867 53.3332 61.6667V58.3333C53.3332 53.74 57.0699 50 61.6665 50H64.9999C69.5965 50 73.3332 53.74 73.3332 58.3333V61.6667C73.3332 62.5867 72.5865 63.3333 71.6665 63.3333ZM56.6665 60H69.9999V58.3333C69.9999 55.5767 67.7565 53.3333 64.9999 53.3333H61.6665C58.9099 53.3333 56.6665 55.5767 56.6665 58.3333V60Z" fill="white"/>
<path d="M63.3335 56.667C62.4135 56.667 61.6668 55.9203 61.6668 55.0003V48.3337C61.6668 47.4137 62.4135 46.667 63.3335 46.667C64.2535 46.667 65.0001 47.4137 65.0001 48.3337V55.0003C65.0001 55.9203 64.2535 56.667 63.3335 56.667Z" fill="white"/>
<path d="M78.3333 80C77.7233 80 77.1367 79.6633 76.8433 79.08L75.3533 76.0967C74.5 74.3933 72.7867 73.3333 70.88 73.3333C69.96 73.3333 69.2133 72.5867 69.2133 71.6667C69.2133 70.7467 69.96 70 70.88 70C74.0567 70 76.9133 71.7633 78.3333 74.6067L79.8233 77.59C80.2333 78.4133 79.9 79.4133 79.0767 79.8267C78.8367 79.9433 78.5833 80 78.3333 80V80Z" fill="white"/>
<path d="M48.3334 80C48.0834 80 47.83 79.9433 47.5867 79.8233C46.7634 79.41 46.43 78.41 46.84 77.5867L48.33 74.6033C49.7567 71.7633 52.61 70 55.7867 70C56.7067 70 57.4534 70.7467 57.4534 71.6667C57.4534 72.5867 56.7067 73.3333 55.7867 73.3333C53.88 73.3333 52.1667 74.3933 51.3134 76.0967L49.8234 79.08C49.53 79.6633 48.9434 80 48.3334 80V80Z" fill="white"/>
<path d="M63.3332 76.6667C57.8199 76.6667 53.3332 72.18 53.3332 66.6667V61.6667C53.3332 60.7467 54.0799 60 54.9999 60H71.6665C72.5865 60 73.3332 60.7467 73.3332 61.6667V66.6667C73.3332 72.18 68.8465 76.6667 63.3332 76.6667ZM56.6665 63.3333V66.6667C56.6665 70.3433 59.6565 73.3333 63.3332 73.3333C67.0099 73.3333 69.9999 70.3433 69.9999 66.6667V63.3333H56.6665Z" fill="white"/>
<path d="M75 63.3333H51.6667C50.7467 63.3333 50 62.5867 50 61.6667C50 60.7467 50.7467 60 51.6667 60H75C75.92 60 76.6667 60.7467 76.6667 61.6667C76.6667 62.5867 75.92 63.3333 75 63.3333Z" fill="white"/>
<path d="M71.6665 63.3333H54.9999C54.0799 63.3333 53.3332 62.5867 53.3332 61.6667V58.3333C53.3332 53.74 57.0699 50 61.6665 50H64.9999C69.5965 50 73.3332 53.74 73.3332 58.3333V61.6667C73.3332 62.5867 72.5865 63.3333 71.6665 63.3333ZM56.6665 60H69.9999V58.3333C69.9999 55.5767 67.7565 53.3333 64.9999 53.3333H61.6665C58.9099 53.3333 56.6665 55.5767 56.6665 58.3333V60Z" fill="white"/>
<path d="M63.3335 56.667C62.4135 56.667 61.6668 55.9203 61.6668 55.0003V48.3337C61.6668 47.4137 62.4135 46.667 63.3335 46.667C64.2535 46.667 65.0001 47.4137 65.0001 48.3337V55.0003C65.0001 55.9203 64.2535 56.667 63.3335 56.667Z" fill="white"/>
<path d="M78.3333 80C77.7233 80 77.1367 79.6633 76.8433 79.08L75.3533 76.0967C74.5 74.3933 72.7867 73.3333 70.88 73.3333C69.96 73.3333 69.2133 72.5867 69.2133 71.6667C69.2133 70.7467 69.96 70 70.88 70C74.0567 70 76.9133 71.7633 78.3333 74.6067L79.8233 77.59C80.2333 78.4133 79.9 79.4133 79.0767 79.8267C78.8367 79.9433 78.5833 80 78.3333 80V80Z" fill="white"/>
<path d="M48.3334 80C48.0834 80 47.83 79.9433 47.5867 79.8233C46.7634 79.41 46.43 78.41 46.84 77.5867L48.33 74.6033C49.7567 71.7633 52.61 70 55.7867 70C56.7067 70 57.4534 70.7467 57.4534 71.6667C57.4534 72.5867 56.7067 73.3333 55.7867 73.3333C53.88 73.3333 52.1667 74.3933 51.3134 76.0967L49.8234 79.08C49.53 79.6633 48.9434 80 48.3334 80V80Z" fill="white"/>
<path d="M63.3332 76.6667C57.8199 76.6667 53.3332 72.18 53.3332 66.6667V61.6667C53.3332 60.7467 54.0799 60 54.9999 60H71.6665C72.5865 60 73.3332 60.7467 73.3332 61.6667V66.6667C73.3332 72.18 68.8465 76.6667 63.3332 76.6667ZM56.6665 63.3333V66.6667C56.6665 70.3433 59.6565 73.3333 63.3332 73.3333C67.0099 73.3333 69.9999 70.3433 69.9999 66.6667V63.3333H56.6665Z" fill="white"/>
<path d="M75 63.3333H51.6667C50.7467 63.3333 50 62.5867 50 61.6667C50 60.7467 50.7467 60 51.6667 60H75C75.92 60 76.6667 60.7467 76.6667 61.6667C76.6667 62.5867 75.92 63.3333 75 63.3333Z" fill="white"/>
<path d="M71.6665 63.3333H54.9999C54.0799 63.3333 53.3332 62.5867 53.3332 61.6667V58.3333C53.3332 53.74 57.0699 50 61.6665 50H64.9999C69.5965 50 73.3332 53.74 73.3332 58.3333V61.6667C73.3332 62.5867 72.5865 63.3333 71.6665 63.3333ZM56.6665 60H69.9999V58.3333C69.9999 55.5767 67.7565 53.3333 64.9999 53.3333H61.6665C58.9099 53.3333 56.6665 55.5767 56.6665 58.3333V60Z" fill="white"/>
<path d="M63.3335 56.667C62.4135 56.667 61.6668 55.9203 61.6668 55.0003V48.3337C61.6668 47.4137 62.4135 46.667 63.3335 46.667C64.2535 46.667 65.0001 47.4137 65.0001 48.3337V55.0003C65.0001 55.9203 64.2535 56.667 63.3335 56.667Z" fill="white"/>
<path d="M78.3333 80C77.7233 80 77.1367 79.6633 76.8433 79.08L75.3533 76.0967C74.5 74.3933 72.7867 73.3333 70.88 73.3333C69.96 73.3333 69.2133 72.5867 69.2133 71.6667C69.2133 70.7467 69.96 70 70.88 70C74.0567 70 76.9133 71.7633 78.3333 74.6067L79.8233 77.59C80.2333 78.4133 79.9 79.4133 79.0767 79.8267C78.8367 79.9433 78.5833 80 78.3333 80V80Z" fill="white"/>
<path d="M48.3334 80C48.0834 80 47.83 79.9433 47.5867 79.8233C46.7634 79.41 46.43 78.41 46.84 77.5867L48.33 74.6033C49.7567 71.7633 52.61 70 55.7867 70C56.7067 70 57.4534 70.7467 57.4534 71.6667C57.4534 72.5867 56.7067 73.3333 55.7867 73.3333C53.88 73.3333 52.1667 74.3933 51.3134 76.0967L49.8234 79.08C49.53 79.6633 48.9434 80 48.3334 80V80Z" fill="white"/>
</g>
<defs>
<clipPath id="clip0">
<rect width="80" height="80" fill="white"/>
</clipPath>
</defs>
</svg>
