<svg width="80" height="73" viewBox="0 0 80 73" fill="none" xmlns="http://www.w3.org/2000/svg">
<path d="M18.6667 22.9225C23.3587 22.9225 27.2427 19.7688 27.8933 15.6838H69.3333C70.0707 15.6838 70.6667 15.1445 70.6667 14.4773C70.6667 13.8102 70.0707 13.2709 69.3333 13.2709H27.8933C27.2427 9.18587 23.3587 6.03223 18.6667 6.03223C13.5213 6.03223 9.33334 9.82167 9.33334 14.4773C9.33334 19.133 13.5213 22.9225 18.6667 22.9225ZM18.6667 8.44512C22.3427 8.44512 25.3333 11.1512 25.3333 14.4773C25.3333 17.8035 22.3427 20.5096 18.6667 20.5096C14.9907 20.5096 12 17.8035 12 14.4773C12 11.1512 14.9907 8.44512 18.6667 8.44512Z" fill="white"/>
<path d="M10.6667 59.1159H52.1067C52.7573 63.2009 56.6413 66.3546 61.3333 66.3546C66.4787 66.3546 70.6667 62.5651 70.6667 57.9095C70.6667 53.2538 66.4787 49.4644 61.3333 49.4644C56.6413 49.4644 52.7573 52.618 52.1067 56.703H10.6667C9.92934 56.703 9.33334 57.2423 9.33334 57.9095C9.33334 58.5766 9.92934 59.1159 10.6667 59.1159ZM61.3333 51.8772C65.0093 51.8772 68 54.5833 68 57.9095C68 61.2356 65.0093 63.9417 61.3333 63.9417C57.6573 63.9417 54.6667 61.2356 54.6667 57.9095C54.6667 54.5833 57.6573 51.8772 61.3333 51.8772Z" fill="white"/>
<path d="M10.6667 37.3996H32.1067C32.7573 41.4846 36.6413 44.6383 41.3333 44.6383C46.0253 44.6383 49.9093 41.4846 50.56 37.3996H69.3333C70.0707 37.3996 70.6667 36.8603 70.6667 36.1932C70.6667 35.526 70.0707 34.9867 69.3333 34.9867H50.56C49.9093 30.9017 46.0253 27.748 41.3333 27.748C36.6413 27.748 32.7573 30.9017 32.1067 34.9867H10.6667C9.92934 34.9867 9.33334 35.526 9.33334 36.1932C9.33334 36.8603 9.92934 37.3996 10.6667 37.3996ZM41.3333 30.1609C45.0093 30.1609 48 32.867 48 36.1932C48 39.5193 45.0093 42.2254 41.3333 42.2254C37.6573 42.2254 34.6667 39.5193 34.6667 36.1932C34.6667 32.867 37.6573 30.1609 41.3333 30.1609Z" fill="white"/>
<path d="M78.6667 0H1.33333C0.596 0 0 0.539281 0 1.20645V71.1803C0 71.8474 0.596 72.3867 1.33333 72.3867H78.6667C79.404 72.3867 80 71.8474 80 71.1803V1.20645C80 0.539281 79.404 0 78.6667 0ZM77.3333 69.9738H2.66667V2.41289H77.3333V69.9738Z" fill="white"/>
</svg>
