<svg width="80" height="80" viewBox="0 0 80 80" fill="none" xmlns="http://www.w3.org/2000/svg">
<path d="M24 12C23.959 9.55885 22.8396 7.26103 20.9426 5.724C19.6706 4.452 18.6666 3.448 18.6666 1.33333C18.6666 0.596954 18.0697 0 17.3333 0C16.5969 0 16 0.596954 16 1.33333C16.041 3.77449 17.1603 6.07231 19.0573 7.60933C20.3293 8.88133 21.3333 9.88533 21.3333 12C21.3333 14.1147 20.3293 15.1187 19.0573 16.3907C17.1603 17.9277 16.041 20.2255 16 22.6667C16.041 25.1078 17.1603 27.4056 19.0573 28.9427C20.3293 30.2147 21.3333 31.2187 21.3333 33.3333C21.3333 35.448 20.3293 36.452 19.0573 37.724C17.1603 39.261 16.041 41.5588 16 44C16 44.7364 16.5969 45.3333 17.3333 45.3333C18.0697 45.3333 18.6666 44.7364 18.6666 44C18.6666 41.8853 19.6706 40.8813 20.9426 39.6093C22.8723 38.0986 23.9997 35.7841 23.9997 33.3333C23.9997 30.8826 22.8723 28.5681 20.9426 27.0573C19.6706 25.7853 18.6666 24.7813 18.6666 22.6667C18.6666 20.552 19.6706 19.548 20.9426 18.276C22.8396 16.739 23.959 14.4412 24 12V12Z" fill="white"/>
<path d="M64.0001 12C63.9591 9.55885 62.8397 7.26103 60.9427 5.724C59.6707 4.452 58.6667 3.448 58.6667 1.33333C58.6667 0.596954 58.0698 0 57.3334 0C56.597 0 56.0001 0.596954 56.0001 1.33333C56.0411 3.77449 57.1604 6.07231 59.0574 7.60933C60.3294 8.88133 61.3334 9.88533 61.3334 12C61.3334 14.1147 60.3294 15.1187 59.0574 16.3907C57.1604 17.9277 56.0411 20.2255 56.0001 22.6667C56.0411 25.1078 57.1604 27.4056 59.0574 28.9427C60.3294 30.2147 61.3334 31.2187 61.3334 33.3333C61.3334 35.448 60.3294 36.452 59.0574 37.724C57.1604 39.261 56.0411 41.5588 56.0001 44C56.0001 44.7364 56.597 45.3333 57.3334 45.3333C58.0698 45.3333 58.6667 44.7364 58.6667 44C58.6667 41.8853 59.6707 40.8813 60.9427 39.6093C62.8724 38.0986 63.9998 35.7841 63.9998 33.3333C63.9998 30.8826 62.8724 28.5681 60.9427 27.0573C59.6707 25.7853 58.6667 24.7813 58.6667 22.6667C58.6667 20.552 59.6707 19.548 60.9427 18.276C62.8397 16.739 63.9591 14.4412 64.0001 12Z" fill="white"/>
<path d="M73.3333 58.6667H69.3333C67.8606 58.6667 66.6667 59.8606 66.6667 61.3333V68H44V59.4667C43.9997 59.2037 44.0777 58.9465 44.224 58.728L48.6667 52.08C49.1026 51.4243 49.3346 50.6541 49.3333 49.8667V4C49.3333 1.79086 47.5425 0 45.3333 0H34.6667C32.4575 0 30.6667 1.79086 30.6667 4V45.7333C30.6658 46.0356 30.5629 46.3288 30.3747 46.5653L26.2107 51.7653C25.9692 52.0734 25.7742 52.4153 25.632 52.78C25.6227 52.8 25.6133 52.8173 25.6053 52.8373C25.428 53.2931 25.3359 53.7776 25.3333 54.2667V68H13.3333V61.3333C13.3333 59.8606 12.1394 58.6667 10.6667 58.6667H6.66667C2.9866 58.6711 0.00440816 61.6533 0 65.3333V74.6667C0 77.6122 2.38781 80 5.33333 80H74.6667C77.6122 80 80 77.6122 80 74.6667V65.3333C79.9956 61.6533 77.0134 58.6711 73.3333 58.6667V58.6667ZM33.3333 4C33.3333 3.26362 33.9303 2.66667 34.6667 2.66667H45.3333C46.0697 2.66667 46.6667 3.26362 46.6667 4V38.6667H33.3333V4ZM28 54.6667H34.6667C35.403 54.6667 36 54.0697 36 53.3333C36 52.597 35.403 52 34.6667 52H29.4413L32.456 48.2307C32.5147 48.1573 32.5573 48.076 32.6107 48H37.3333C38.0697 48 38.6667 47.403 38.6667 46.6667C38.6667 45.9303 38.0697 45.3333 37.3333 45.3333H33.3333V41.3333H46.6667V49.3333H41.3333C40.597 49.3333 40 49.9303 40 50.6667C40 51.403 40.597 52 41.3333 52H45.508L42 57.2533C41.984 57.28 41.972 57.308 41.956 57.3333H33.3333C32.597 57.3333 32 57.9303 32 58.6667C32 59.403 32.597 60 33.3333 60H41.3333V68H28V54.6667ZM77.3333 74.6667C77.3333 76.1394 76.1394 77.3333 74.6667 77.3333H5.33333C3.86057 77.3333 2.66667 76.1394 2.66667 74.6667V65.3333C2.66667 63.1242 4.45753 61.3333 6.66667 61.3333H10.6667V68C10.6667 69.4728 11.8606 70.6667 13.3333 70.6667H66.6667C68.1394 70.6667 69.3333 69.4728 69.3333 68V61.3333H73.3333C75.5425 61.3333 77.3333 63.1242 77.3333 65.3333V74.6667Z" fill="white"/>
<path d="M37.724 8.94256C38.2471 9.44786 39.0788 9.44063 39.5931 8.92632C40.1074 8.41201 40.1146 7.5804 39.6093 7.05723L38.276 5.72389C37.7528 5.2186 36.9212 5.22582 36.4069 5.74013C35.8926 6.25445 35.8853 7.08605 36.3906 7.60923L37.724 8.94256Z" fill="white"/>
<path d="M41.7239 11.0574L40.3906 12.3907C40.044 12.7255 39.905 13.2212 40.027 13.6874C40.149 14.1536 40.5131 14.5176 40.9793 14.6397C41.4454 14.7617 41.9412 14.6227 42.2759 14.2761L43.6093 12.9427C44.1146 12.4195 44.1073 11.5879 43.593 11.0736C43.0787 10.5593 42.2471 10.5521 41.7239 11.0574V11.0574Z" fill="white"/>
<path d="M37.724 19.6096C38.2471 20.1148 39.0788 20.1076 39.5931 19.5933C40.1074 19.079 40.1146 18.2474 39.6093 17.7242L38.276 16.3909C37.7528 15.8856 36.9212 15.8928 36.4069 16.4071C35.8926 16.9214 35.8853 17.753 36.3906 18.2762L37.724 19.6096Z" fill="white"/>
<path d="M41.7239 21.7239L40.3906 23.0572C40.044 23.392 39.905 23.8877 40.027 24.3539C40.149 24.8201 40.5131 25.1841 40.9793 25.3061C41.4454 25.4282 41.9412 25.2892 42.2759 24.9426L43.6093 23.6092C44.1146 23.0861 44.1073 22.2544 43.593 21.7401C43.0787 21.2258 42.2471 21.2186 41.7239 21.7239V21.7239Z" fill="white"/>
<path d="M39.6093 28.3907L38.276 27.0574C37.7528 26.5521 36.9212 26.5593 36.4069 27.0736C35.8926 27.5879 35.8853 28.4196 36.3906 28.9427L37.724 30.2761C38.2471 30.7814 39.0788 30.7741 39.5931 30.2598C40.1074 29.7455 40.1146 28.9139 39.6093 28.3907Z" fill="white"/>
<path d="M41.7239 32.3909L40.3906 33.7242C40.044 34.059 39.905 34.5547 40.027 35.0209C40.149 35.4871 40.5131 35.8511 40.9793 35.9731C41.4454 36.0952 41.9412 35.9562 42.2759 35.6095L43.6093 34.2762C44.1146 33.753 44.1073 32.9214 43.593 32.4071C43.0787 31.8928 42.2471 31.8856 41.7239 32.3909V32.3909Z" fill="white"/>
</svg>
