<svg width="50" height="50" viewBox="0 0 50 50" fill="none" xmlns="http://www.w3.org/2000/svg">
<path d="M24.9985 0C11.2147 0 0 11.2147 0 24.9996C0 38.7844 11.2138 49.9981 24.9985 49.9981C38.7842 49.9981 50 38.7842 50 24.9996C50 11.2149 38.7842 0 24.9985 0ZM24.9985 48.072C12.2754 48.072 1.92501 37.7207 1.92501 24.9985C1.92501 12.2754 12.2754 1.92411 24.9985 1.92411C37.7225 1.92411 48.0748 12.2745 48.0748 24.9985C48.0739 37.7217 37.7226 48.072 24.9985 48.072ZM41.3504 27.5427C39.7651 35.2884 32.8673 40.9116 24.9485 40.9116C17.1566 40.9116 10.4581 35.6252 8.65919 28.0528C8.47437 27.2779 8.95379 26.5001 9.7296 26.3154C10.5083 26.1239 11.2841 26.6109 11.468 27.3848C12.9581 33.6492 18.5014 38.024 24.9486 38.024C31.5017 38.024 37.2097 33.373 38.5217 26.9643C38.6824 26.1817 39.4486 25.6803 40.2264 25.8381C41.0068 25.9978 41.5102 26.761 41.3504 27.5427ZM27.9141 17.4656C27.9141 15.8687 29.2078 14.5761 30.8036 14.5761C32.3995 14.5761 33.6932 15.8687 33.6932 17.4656C33.6932 19.0605 32.3995 20.3551 30.8036 20.3551C29.2078 20.3551 27.9141 19.0607 27.9141 17.4656ZM15.8822 17.4656C15.8822 15.8687 17.1759 14.5761 18.7718 14.5761C20.3676 14.5761 21.6613 15.8687 21.6613 17.4656C21.6613 19.0605 20.3676 20.3551 18.7718 20.3551C17.1759 20.3551 15.8822 19.0607 15.8822 17.4656Z" fill="#F7654A"/>
</svg>
