<svg width="50" height="49" viewBox="0 0 50 49" fill="none" xmlns="http://www.w3.org/2000/svg">
<path d="M49.2691 5.18222C48.3395 3.07512 46.6455 1.44314 44.4971 0.596166C42.3487 -0.250808 39.9937 -0.188835 37.8866 0.740771C36.895 1.17459 36.0067 1.79432 35.2424 2.55867C34.8499 2.95117 34.8499 3.61222 35.2424 4.00472C35.6349 4.39722 36.2959 4.39722 36.6884 4.00472C37.2668 3.4263 37.9486 2.95117 38.7129 2.62064C40.3242 1.91827 42.1215 1.87696 43.7741 2.51735C45.4267 3.15775 46.7075 4.39722 47.4305 6.00854C48.8973 9.35512 47.3686 13.2595 44.0426 14.7262C43.2783 15.0567 42.4726 15.2426 41.6463 15.2839C41.0886 15.3046 40.6547 15.7797 40.6754 16.3375C40.6961 16.8953 41.1505 17.3291 41.6876 17.3291C41.7083 17.3291 41.7083 17.3291 41.729 17.3291C42.8032 17.2878 43.8567 17.0399 44.869 16.606C49.1865 14.6642 51.1903 9.54104 49.2691 5.18222Z" fill="#F7654A"/>
<path d="M29.8749 18.6604C30.7328 18.993 31.6433 19.1681 32.5362 19.1681C33.5342 19.1681 34.5322 18.958 35.4776 18.5379C37.2635 17.7502 38.6466 16.3147 39.3645 14.4941C40.0823 12.6736 40.0298 10.6779 39.2419 8.89238C38.454 7.10682 37.0184 5.72389 35.1975 5.00617C33.3766 4.28844 31.3806 4.34096 29.5948 5.1287C27.8089 5.91645 26.4258 7.3519 25.7079 9.17247C24.9901 10.993 25.0426 12.9887 25.8305 14.7742C26.6183 16.5773 28.054 17.9427 29.8749 18.6604ZM27.3187 9.80267C27.8614 8.40223 28.912 7.31689 30.2776 6.7042C30.9955 6.3891 31.7658 6.23155 32.5187 6.23155C33.2015 6.23155 33.9019 6.35409 34.5497 6.61667C35.9503 7.15934 37.0359 8.20967 37.6487 9.5751C38.2439 10.9405 38.279 12.4635 37.7362 13.8639C37.1934 15.2644 36.1429 16.3497 34.7773 16.9624C33.4116 17.5576 31.8884 17.5926 30.4877 17.0499C29.087 16.5073 28.0015 15.4569 27.3887 14.0915C26.8109 12.7086 26.7759 11.2031 27.3187 9.80267Z" fill="#F7654A"/>
<path d="M15.8446 15.346C15.9685 15.346 16.0925 15.3254 16.1958 15.2841C17.3939 14.8296 18.6334 14.4991 19.9142 14.3131C20.4719 14.2305 20.8438 13.7141 20.7612 13.1563C20.6785 12.5985 20.1621 12.2267 19.6043 12.3093C18.1996 12.5159 16.8155 12.8878 15.4727 13.3835C14.9563 13.5901 14.6877 14.1685 14.8736 14.685C15.0389 15.0775 15.4314 15.346 15.8446 15.346Z" fill="#F7654A"/>
<path d="M42.2867 25.055C41.8736 23.485 41.1712 21.9563 40.221 20.5309C39.9111 20.0558 39.2707 19.9318 38.8162 20.2417C38.3411 20.5516 38.2171 21.192 38.527 21.6464C39.3533 22.8859 39.9524 24.208 40.3242 25.5714C40.4275 25.9433 40.5102 26.3151 40.5721 26.687C41.3365 30.9425 39.9731 35.4046 37.0396 38.3587C36.6885 38.7305 36.4199 39.185 36.3166 39.6395L34.4161 46.2087H30.1606L29.6648 44.2668C29.5408 43.8124 29.1483 43.5025 28.6732 43.5025L17.7865 43.4612C17.332 43.4612 16.9188 43.7711 16.7949 44.2255L16.2784 46.2087H12.0436L10.8247 41.9118C10.5769 41.0649 9.93646 40.3005 9.15146 39.97C6.56922 38.7925 4.27619 37.4291 2.29303 35.9417C2.12777 35.8178 2.02448 35.6112 2.02448 35.3839L2.04513 27.348L3.14 27.3274C3.44987 27.3274 3.73908 27.1621 3.94566 26.9142L8.30448 21.13C8.32514 21.0887 8.36645 21.0474 8.38711 21.006C8.65567 20.5309 8.46974 20.0764 8.26317 19.6426C8.22185 19.5187 8.15988 19.3947 8.11856 19.2708L8.03593 19.0848C7.87067 18.6923 7.68474 18.2998 7.49882 17.928C7.1683 17.2256 6.79645 16.5233 6.42461 15.8416C6.38329 15.7589 6.34198 15.697 6.30066 15.6143C6.36264 15.6143 6.42461 15.6143 6.50724 15.6143C6.5279 15.6143 6.54856 15.6143 6.58987 15.6143C7.62277 15.6143 8.57303 15.7589 9.44067 16.0688C9.68856 16.1514 10.205 16.3993 10.329 16.4613C10.329 16.4613 10.3496 16.4613 10.3496 16.482C10.5355 16.5852 11.6304 17.2256 11.8783 17.4116C12.9732 18.2379 13.9028 19.3327 14.5225 20.5929C14.7704 21.0887 15.3901 21.2952 15.8859 21.0474C16.3817 20.7995 16.5883 20.1797 16.3404 19.6839C15.5761 18.1552 14.4605 16.8125 13.0971 15.7796C12.7459 15.511 11.6717 14.8913 11.3825 14.726C11.114 14.5401 10.7215 14.3542 10.1017 14.1476C9.04817 13.7758 7.91198 13.5898 6.67251 13.5898C6.42461 13.5898 6.17672 13.5898 5.97014 13.6105L5.57764 13.6312C5.51566 13.6312 5.51566 13.6312 5.45369 13.6518C5.41237 13.6518 5.37106 13.6725 5.32974 13.6725C4.79264 13.7964 4.33816 14.1683 4.11092 14.7054C3.90435 15.2425 4.13158 15.7589 4.21421 15.9862C4.27619 16.1927 4.37948 16.3787 4.52408 16.6266C4.52408 16.6472 4.5654 16.6885 4.58606 16.7092L4.64803 16.8125C4.99922 17.4735 5.3504 18.1346 5.68093 18.8163C5.84619 19.1881 6.03211 19.5393 6.17672 19.8905L6.25935 20.0971C6.30066 20.1797 6.34198 20.283 6.36264 20.3656L2.64421 25.3029L1.0329 25.3235C0.475132 25.3235 0.0413158 25.778 0.0413158 26.3358L0 35.4046C0 36.2722 0.3925 37.0779 1.07421 37.5943C3.16066 39.185 5.59829 40.6104 8.32514 41.8705C8.57303 41.9738 8.80027 42.2424 8.86225 42.5109L10.3083 47.5308C10.4322 47.9646 10.8247 48.2745 11.2792 48.2745H17.0841C17.5386 48.2745 17.9517 47.9646 18.0757 47.5101L18.5921 45.527L27.8882 45.5683L28.384 47.5101C28.5079 47.9646 28.9004 48.2745 29.3756 48.2745H35.2011C35.6556 48.2745 36.0481 47.9646 36.172 47.5308L38.2998 40.1766C38.3411 40.0526 38.4031 39.908 38.5063 39.8047C41.8942 36.4168 43.4642 31.2524 42.5966 26.3564C42.514 25.9226 42.4107 25.4888 42.2867 25.055Z" fill="#F7654A"/>
<path d="M11.7957 25.881C11.7957 26.7693 11.052 27.513 10.1637 27.513C9.27542 27.513 8.53174 26.7693 8.53174 25.881C8.53174 24.9927 9.27542 24.249 10.1637 24.249C11.052 24.249 11.7957 25.0134 11.7957 25.881Z" fill="#F7654A"/>
</svg>
