<svg width="50" height="47" viewBox="0 0 50 47" fill="none" xmlns="http://www.w3.org/2000/svg">
<path d="M50 5.9396V7.92943H42.2896V5.9396H50ZM46.7666 10.2762H42.2896V12.2661H46.7666V10.2762ZM42.2896 16.6027H50V14.6129H42.2896V16.6027ZM46.7666 18.9507H42.2896V20.9405H46.7666V18.9507ZM42.2896 25.2772H50V23.2873H42.2896V25.2772ZM43.4915 36.6149C43.4915 42.1693 38.9727 46.6882 33.4182 46.6882C27.8638 46.6882 23.3449 42.1693 23.3449 36.6149C23.3449 33.687 24.6114 30.9898 26.7394 29.1065L24.5617 25.3338L17.7408 37.1491L19.7774 44.755C19.9206 45.2853 19.6052 45.8315 19.0739 45.9738C18.9883 45.9967 18.9009 46.0077 18.8162 46.0077C18.3764 46.0077 17.9745 45.7152 17.8552 45.2705L16.3339 39.5877L13.6409 44.2517C13.4559 44.5702 13.1226 44.7491 12.7783 44.7491C12.6091 44.7491 12.438 44.7064 12.2818 44.6158C11.8054 44.3412 11.6431 43.7324 11.9178 43.2568L14.5483 38.7022L9.03657 40.1786C8.95097 40.2015 8.8635 40.2125 8.7779 40.2125C8.33919 40.2125 7.93624 39.9201 7.81782 39.4753C7.67555 38.945 7.99089 38.3988 8.52124 38.2566L15.955 36.2647L22.8406 24.3391H9.1937L3.62624 29.9045C3.43227 30.0985 3.17747 30.196 2.92282 30.196C2.66817 30.196 2.41336 30.0985 2.2194 29.9045C1.83038 29.5155 1.83038 28.8867 2.2194 28.4977L6.38001 24.3371H0.994913C0.445675 24.3371 0 23.8914 0 23.3432C0 22.794 0.445675 22.3483 0.994913 22.3483H6.25493L2.21971 18.314C1.83069 17.925 1.83069 17.2962 2.21971 16.9072C2.60873 16.5182 3.23753 16.5182 3.62655 16.9072L9.06862 22.3492H22.8378L16.0158 10.5329L8.41272 8.49538C7.88144 8.35312 7.56611 7.80791 7.7093 7.27663C7.85156 6.74628 8.39879 6.43002 8.92806 6.57321L14.6088 8.09538L11.9168 3.43336C11.6433 2.95688 11.8064 2.34897 12.282 2.07435C12.7566 1.79973 13.3655 1.96289 13.6401 2.43844L16.2716 6.99504L17.7479 1.48037C17.8902 0.950021 18.4324 0.631747 18.9667 0.776952C19.4969 0.919215 19.8123 1.46443 19.6701 1.99571L17.6781 9.43256L24.5617 21.3543L28.3193 14.8458V5.09887C28.3193 2.28736 30.6065 0 33.4182 0C36.2299 0 38.5171 2.2872 38.5171 5.09887V27.9345C41.6003 29.7423 43.4915 33.0145 43.4915 36.6149ZM26.2849 22.3482H28.3195V18.8244L26.2849 22.3482ZM28.3195 27.8628V24.338H26.284L28.3195 27.8628ZM41.5017 36.6149C41.5017 33.5606 39.8044 30.7997 37.0714 29.4119L36.5273 29.1353V5.09887C36.5273 3.38366 35.1325 1.98983 33.4182 1.98983C31.7041 1.98983 30.3092 3.38366 30.3092 5.09887V29.1353L29.765 29.4119C27.032 30.8008 25.3348 33.5616 25.3348 36.6149C25.3348 41.0719 28.9612 44.6983 33.4182 44.6983C37.8753 44.6983 41.5017 41.0719 41.5017 36.6149ZM39.8442 36.6149C39.8442 40.1577 36.9619 43.0398 33.4182 43.0398C29.8754 43.0398 26.9933 40.1575 26.9933 36.6149C26.9933 33.7108 28.9553 31.1609 31.7648 30.4138L32.1338 30.3154V24.5101H34.7037V30.3143L35.0727 30.4138C37.8824 31.1609 39.8442 33.7119 39.8442 36.6149ZM33.7357 32.332C33.5825 31.6515 32.8981 31.2038 32.2005 31.3629C29.765 31.914 28.0638 34.0441 28.0638 36.5434C28.0638 37.2506 28.6398 37.8268 29.3472 37.8268C30.0547 37.8268 30.6307 37.2508 30.6307 36.5434C30.6307 35.2729 31.5281 34.1467 32.7667 33.8671C33.4561 33.7088 33.8908 33.0204 33.7357 32.332Z" fill="#F7654A"/>
</svg>
