<svg width="280" height="100" viewBox="0 0 280 100" fill="none" xmlns="http://www.w3.org/2000/svg">
<g clip-path="url(#clip0)">
<path d="M0 100L135 100V0L0 0V100Z" fill="#FF0000"/>
<path d="M82.93 3.62001C82.67 3.84001 82.29 3.86997 82.12 3.67997C82.04 3.58997 81.86 3.62001 81.52 3.77001C81.13 3.94001 80.93 3.96995 80.46 3.85995C80.08 3.76995 79.83 3.76995 79.71 3.85995C79.59 3.94995 79.42 3.93003 79.16 3.84003C78.86 3.73003 78.75 3.73997 78.61 3.87997C78.4 4.08997 76.84 4.04997 76.64 3.82997C76.46 3.62997 75.92 3.67999 75.81 3.89999C75.72 4.06999 75.65 4.09001 75.34 3.97001C75.1 3.87001 74.91 3.86999 74.78 3.94999C74.68 4.00999 74.55 4.02003 74.51 3.99003C74.48 3.94003 74.32 3.97995 74.17 4.05995C73.97 4.17995 73.84 4.17997 73.66 4.07997C73.49 3.96997 73.24 3.97997 72.73 4.07997C72.34 4.16997 71.72 4.23999 71.35 4.24999C70.98 4.25999 70.57 4.33999 70.45 4.39999C70.33 4.46999 69.98 4.56995 69.66 4.60995C69.36 4.65995 68.67 4.85999 68.14 5.04999C67.31 5.34999 66.28 5.57995 65.64 5.60995C65.54 5.60995 65.41 5.64999 65.37 5.69999C65.32 5.75999 65.17 5.79999 65.02 5.79999C64.87 5.79999 64.67 5.84995 64.56 5.90995C64.46 5.96995 64.06 6.10997 63.69 6.22997C63.32 6.33997 62.88 6.50995 62.71 6.60995C62.55 6.70995 62.32 6.77997 62.19 6.77997C62.08 6.77997 61.83 6.89999 61.65 7.04999C61.37 7.30999 60.81 7.50997 59.75 7.72997C59.57 7.76997 59.3 7.90003 59.18 8.04003C59.04 8.18003 58.84 8.26995 58.73 8.25995C58.31 8.19995 57.75 8.41995 57.71 8.65995C57.66 8.82995 57.54 8.87997 57.15 8.87997C56.88 8.87997 56.52 8.94999 56.35 9.04999C56.18 9.14999 55.83 9.26995 55.6 9.30995C55.35 9.35995 55.1 9.44999 55.04 9.49999C54.77 9.70999 53.82 10.02 53.63 9.95995C53.52 9.91995 53.31 9.97001 53.2 10.07C52.95 10.26 51.87 10.47 50.67 10.56C50.25 10.58 49.79 10.67 49.63 10.73C49.47 10.79 49.02 10.88 48.62 10.93C48.21 10.98 47.83 11.09 47.76 11.18C47.69 11.28 47.47 11.35 47.28 11.35C47.05 11.35 46.87 11.44 46.78 11.6C46.7 11.74 46.54 11.85 46.42 11.85C46.31 11.85 46.15 11.95 46.09 12.06C45.77 12.67 45.63 12.75 44.99 12.8C44.63 12.82 44.02 12.99 43.64 13.16C43.26 13.32 42.9 13.46 42.84 13.46C42.78 13.46 42.58 13.55 42.41 13.65C42.23 13.75 41.96 13.84 41.8 13.84C41.26 13.85 40.31 14.16 40.18 14.37C39.99 14.65 39.3 14.95 37.49 15.54C35.64 16.15 34.68 16.37 32.78 16.6C29.89 16.97 28.24 17.66 25.33 19.76C24.59 20.29 24.29 20.41 23.53 20.56C23.02 20.66 22.18 20.88 21.65 21.05C21.12 21.22 20.34 21.46 19.91 21.56C19.48 21.66 18.9 21.91 18.62 22.09C18.34 22.29 17.89 22.52 17.61 22.6C17.33 22.69 16.93 22.88 16.73 23.04C16.54 23.21 16.2 23.41 16 23.48C15.67 23.6 15.18 23.92 14.01 24.77C12.42 25.92 10.71 28.79 10.35 30.93C10.3 31.16 10.2 31.42 10.11 31.51C10.02 31.58 9.95001 31.84 9.95001 32.08C9.95001 32.39 9.83001 32.7 9.53001 33.14C9.25001 33.55 9.17001 33.75 9.30001 33.68C9.50001 33.59 9.57001 33.78 9.38001 33.9C9.32001 33.94 9.21001 34.1 9.13001 34.25C9.02001 34.48 9.03001 34.51 9.18001 34.36C9.50001 34.09 9.53001 34.41 9.28001 35.2C9.14001 35.61 9.04001 36.03 9.04001 36.14C9.04001 36.47 9.25001 36.2 9.39001 35.7C9.47001 35.43 9.62001 35.12 9.74001 35.01C9.93001 34.81 9.94001 34.81 9.94001 35.07C9.94001 35.23 9.79001 35.71 9.60001 36.16C9.23001 37.05 9.14001 37.7 9.43001 37.43C9.53001 37.34 9.63001 37.29 9.66001 37.33C9.74001 37.42 9.75001 39.52 9.67001 40.22L9.60001 40.83L9.79001 40.42C9.89001 40.21 10 40.02 10.04 40.02C10.19 40.02 10.15 41.39 9.99001 41.8C9.90001 42.03 9.82001 42.33 9.82001 42.45C9.82001 42.64 9.85001 42.62 10 42.39C10.27 41.96 10.42 42.06 10.34 42.6C10.31 42.87 10.33 43.22 10.4 43.38C10.49 43.61 10.47 43.81 10.29 44.32C10.15 44.68 10.05 45.06 10.05 45.16C10.05 45.47 10.25 45.23 10.33 44.84C10.38 44.64 10.45 44.43 10.52 44.4C10.67 44.3 10.84 44.57 10.84 44.91C10.84 45.16 10.14 46.5 9.77001 46.95C9.66001 47.09 9.62001 47.2 9.69001 47.2C9.76001 47.2 9.98001 47 10.17 46.77C10.37 46.54 10.58 46.34 10.63 46.34C10.77 46.34 10.63 47.07 10.43 47.42C10.34 47.57 10.27 47.84 10.27 48.01C10.27 48.18 10.16 48.57 10.02 48.85C9.88001 49.13 9.70001 49.53 9.61001 49.74L9.46001 50.1L9.76001 49.8C9.92001 49.63 10.14 49.29 10.26 49.06C10.52 48.5 10.88 48.15 11.09 48.23C11.19 48.28 11.28 48.21 11.33 48.06C11.38 47.92 11.52 47.75 11.65 47.69C11.79 47.62 11.99 47.39 12.1 47.17C12.37 46.66 12.63 44.39 12.66 42.39L12.67 40.85L12.13 39.64C11.67 38.61 11.57 38.27 11.49 37.42C11.13 33.22 11.81 29.77 13.37 27.94C13.85 27.37 15.23 26.46 15.6 26.46C15.87 26.46 15.81 26.81 15.45 27.44C15.06 28.12 14.17 30.49 13.85 31.72C13.73 32.19 13.57 33.35 13.5 34.28C13.36 35.92 13.38 36.05 13.67 37.86C13.88 39.13 14.2 40.46 14.65 41.91C15.35 44.21 15.74 45.19 17.01 47.84C17.9 49.71 18.59 52.08 18.59 53.3C18.59 54.51 18.18 55.94 17.49 57.17C16.53 58.86 15.09 60.69 14.01 61.57C13.49 62 13.39 62.14 13.19 62.89C13.05 63.35 12.91 64.22 12.85 64.84C12.79 65.47 12.59 66.5 12.4 67.16C11.95 68.7 11.72 70 11.72 71.1C11.72 71.59 11.54 73.13 11.33 74.5C11.01 76.53 10.87 77.16 10.58 77.78C10.32 78.36 10.21 78.81 10.14 79.6C10.08 80.18 9.94001 80.96 9.82001 81.33C9.70001 81.7 9.52001 82.33 9.41001 82.71C9.32001 83.09 9.18001 83.45 9.13001 83.49C8.94001 83.61 8.16001 84.95 8.03001 85.37C7.96001 85.58 7.94001 85.88 7.97001 86.01C8.02001 86.23 8.12001 86.27 8.59001 86.27C9.27001 86.27 9.52001 86.41 9.75001 86.89C10 87.41 9.96001 88.79 9.69001 89.67C9.30001 90.92 9.39001 91.19 10.23 91.3L10.82 91.37V92C10.82 92.8 11.09 93.3 11.75 93.72C12.61 94.28 13.37 94.42 15.4 94.42C17.22 94.42 17.23 94.42 17.42 94.11C17.52 93.95 17.71 93.78 17.84 93.73C18.14 93.63 18.26 93.46 18.26 93.09C18.26 92.78 17.78 91.93 17.37 91.52C17.23 91.4 16.89 90.87 16.6 90.35C15.97 89.23 15.52 88.67 14.97 88.36C14.74 88.24 14.53 88.03 14.5 87.92C14.25 87.05 14.09 85.68 14.09 84.47C14.09 83.26 14.17 82.65 14.65 80.12C15.21 77.18 15.64 75.74 16.77 73.01C17.69 70.8 19.64 67.96 21.07 66.73C22 65.94 22.39 65.53 23.06 64.6C23.5 64.01 23.71 63.78 23.8 63.88C23.88 63.97 23.88 64.52 23.79 65.71C23.7 67.02 23.58 67.77 23.26 68.96C22.76 70.83 22.67 71.53 22.87 71.94C22.96 72.1 23.41 72.82 23.87 73.53C24.34 74.25 25.46 76.21 26.36 77.92C27.25 79.61 28.44 81.87 29.01 82.93C30.18 85.09 31.89 88.59 32.08 89.21C32.17 89.51 32.18 89.98 32.1 90.85C31.95 92.54 31.96 92.56 33.34 92.82C34.24 92.99 34.54 93.2 34.66 93.72C34.74 94.05 34.87 94.19 35.65 94.61L36.54 95.1L38.45 95.14C40.59 95.19 41.48 95.1 41.71 94.86C41.79 94.76 41.9 94.49 41.94 94.24C42.04 93.68 41.85 93.23 40.92 91.74C40.21 90.63 40.01 90.39 39.09 89.66C38.57 89.25 36.82 87.2 35.8 85.83C34.82 84.5 32.84 80.99 32.28 79.58C31.35 77.27 31.28 76.79 31.27 73.04C31.27 70.23 31.29 69.72 31.45 69.46C31.55 69.29 31.66 68.87 31.7 68.53C31.73 68.18 31.81 67.55 31.88 67.11C31.94 66.67 32.05 65.39 32.12 64.27C32.31 61.13 32.46 60.25 33.49 56.48C33.97 54.74 34.23 54.01 34.39 54.01C34.87 54.01 37.98 56.28 41.01 58.84C43.15 60.67 44.15 61.4 45.18 61.92C47.33 63.01 47.81 63.34 48.08 63.86C48.22 64.13 48.37 64.75 48.43 65.21C48.53 66.06 49.06 67.73 49.23 67.73C49.28 67.73 49.38 67.45 49.46 67.11C49.56 66.63 49.63 66.52 49.74 66.62C49.92 66.78 50.06 66.6 50.24 65.99C50.31 65.76 50.52 65.43 50.7 65.27C50.88 65.12 51.12 64.87 51.21 64.71C51.45 64.31 51.26 63.76 50.73 63.33C50.5 63.13 50.28 62.92 50.23 62.86C50.06 62.6 50.15 62.28 50.41 62.17C50.56 62.11 50.71 62 50.76 61.94C50.85 61.77 51.3 61.77 51.46 61.94C51.56 62.05 51.67 62.01 51.92 61.82C52.11 61.67 52.34 61.6 52.43 61.63C52.53 61.67 52.71 61.63 52.86 61.56C53 61.47 53.47 61.39 53.91 61.36C54.72 61.31 55.11 61.2 55.7 60.85C55.89 60.74 56.15 60.69 56.34 60.73C56.52 60.78 56.73 60.73 56.86 60.63C56.98 60.53 57.19 60.49 57.32 60.52C57.47 60.57 57.65 60.5 57.78 60.35C57.92 60.2 58.3 60.05 58.77 59.95C59.42 59.83 59.68 59.83 60.41 60C61.1 60.16 61.34 60.16 61.59 60.05C61.76 59.98 62.21 59.9 62.58 59.88C64.57 59.77 64.91 59.82 64.67 60.13C64.49 60.38 64.62 60.44 65.09 60.32C65.78 60.15 66.15 60.2 66.73 60.52C67.03 60.69 67.35 60.83 67.44 60.83C67.52 60.83 67.59 60.89 67.59 60.97C67.59 61.06 67.69 61.08 67.84 61.04C67.96 61 68.22 61.05 68.41 61.15C68.69 61.31 68.73 61.4 68.67 61.71L68.61 62.07L69.52 62.03C70.35 62.01 70.44 62.02 70.59 62.28C70.69 62.44 70.86 62.56 70.98 62.56C71.09 62.56 71.42 62.7 71.7 62.87C71.98 63.04 72.35 63.18 72.53 63.18C72.72 63.18 72.88 63.22 72.88 63.27C72.89 63.33 72.91 63.49 72.93 63.63C72.94 63.78 72.99 63.95 73.03 64.04C73.08 64.11 73.01 64.41 72.89 64.72C72.77 65.02 72.69 65.4 72.72 65.56C72.79 65.96 72.57 66.43 71.98 67.17C71.72 67.48 71.52 67.78 71.52 67.81C71.52 67.85 71.68 67.85 71.86 67.8C72.51 67.66 72.2 68.2 71.18 68.94C70.75 69.26 70.39 69.57 70.39 69.62C70.39 69.68 70.18 69.97 69.92 70.25L69.44 70.76L69.81 70.67C70.26 70.57 70.27 70.72 69.87 71.47C69.4 72.36 69.16 74.42 69.49 74.86C69.59 75 69.59 75.13 69.46 75.48C69.36 75.74 69.34 75.95 69.4 75.99C69.46 76.04 69.5 76.2 69.5 76.36C69.5 76.56 69.58 76.67 69.77 76.72C70.01 76.78 70.05 76.88 70.09 77.33L70.12 77.85L70.39 77.38C70.74 76.76 70.93 76.94 70.75 77.71C70.5 78.79 70.57 79.21 71.09 79.77C71.37 80.08 71.52 80.34 71.48 80.47C71.46 80.58 71.39 80.91 71.36 81.2C71.29 81.68 71.3 81.73 71.52 81.73C71.64 81.73 71.77 81.78 71.81 81.85C71.84 81.91 71.95 81.94 72.04 81.89C72.16 81.84 72.21 81.91 72.21 82.14C72.21 82.61 72.35 83.22 72.45 83.22C72.5 83.22 72.55 83.01 72.57 82.76C72.59 82.43 72.66 82.28 72.81 82.25C72.93 82.23 73 82.29 73 82.45C73 82.6 73.1 82.72 73.24 82.76C73.42 82.81 73.45 82.9 73.4 83.09C73.32 83.35 73.33 83.35 73.6 83.15C73.76 83.04 74.07 82.64 74.31 82.27C74.54 81.9 74.74 81.6 74.76 81.6C74.77 81.6 74.94 81.76 75.13 81.96C75.34 82.18 75.48 82.44 75.48 82.64C75.48 82.86 75.53 82.94 75.64 82.89C75.78 82.84 75.8 83.06 75.76 84.22C75.73 85.78 75.66 86.27 75.37 87.35C74.56 90.35 74.56 90.43 75.38 90.45C75.62 90.45 75.89 90.52 75.95 90.6C76.1 90.76 76.12 91.42 75.98 92.19C75.88 92.83 76.06 93.19 76.73 93.66C77.72 94.35 78.64 94.6 80.55 94.66C82.2 94.73 82.32 94.72 82.52 94.49C82.63 94.35 82.85 94.17 82.99 94.09C83.16 93.99 83.24 93.83 83.24 93.61C83.24 93.15 82.63 91.35 82.22 90.54C82.04 90.19 81.89 89.84 81.89 89.75C81.89 89.66 81.64 88.98 81.34 88.22C80.83 86.97 80.77 86.7 80.61 85.18C80.37 82.97 80.47 81.89 81.09 79.93C81.84 77.53 82.5 75.79 82.64 75.79C82.71 75.79 82.87 76.07 82.99 76.42C83.13 76.84 83.23 76.99 83.27 76.86C83.37 76.58 84.08 76.85 84.24 77.22C84.31 77.38 84.4 77.52 84.45 77.52C84.5 77.52 84.63 77.72 84.74 77.95C84.86 78.18 85.03 78.38 85.12 78.38C85.2 78.38 85.3 78.49 85.33 78.63C85.36 78.77 85.45 78.88 85.53 78.88C85.62 78.88 85.71 78.98 85.74 79.1C85.82 79.36 86.31 79.79 86.67 79.92C86.83 79.97 86.93 79.94 86.97 79.81C87.07 79.51 87.26 79.6 87.4 80C87.48 80.27 87.57 80.36 87.7 80.31C87.84 80.26 87.94 80.33 88.02 80.52C88.13 80.8 88.13 80.8 88.31 80.42C88.52 79.96 88.66 79.89 89.15 79.96C89.47 80.02 89.51 80.07 89.51 80.42C89.52 80.86 89.72 81.22 89.94 81.15C90.02 81.11 90.08 81.21 90.08 81.41C90.08 81.92 90.27 81.89 90.46 81.36C90.56 81.09 90.71 80.87 90.79 80.87C90.96 80.87 91.21 81.38 91.21 81.74C91.21 81.88 91.33 82.11 91.49 82.28C91.81 82.63 91.79 82.68 91.83 81.51C91.84 80.98 92.07 80.64 92.27 80.87C92.33 80.93 92.48 80.92 92.65 80.86C92.81 80.8 93 80.76 93.08 80.8C93.15 80.82 93.24 80.75 93.27 80.61C93.34 80.31 93.68 80.3 93.75 80.59C93.78 80.71 93.86 80.91 93.92 81.02C94.09 81.37 94.04 81.7 93.74 82.35C93.58 82.68 93.46 83.09 93.46 83.24C93.46 83.4 93.38 83.66 93.28 83.81C93.03 84.19 93.11 84.24 93.71 84.07C94.71 83.77 94.85 84.22 94.14 85.58C93.89 86.06 93.69 86.53 93.69 86.62C93.69 86.83 94.12 87.18 94.39 87.18C94.65 87.18 94.93 87.65 94.93 88.11C94.93 88.31 94.83 88.78 94.7 89.14L94.47 89.78L94.89 90.29C95.53 91.07 96.38 91.46 98.41 91.93C98.87 92.03 99.55 92.15 99.9 92.2C100.49 92.27 100.56 92.25 100.82 91.97C100.98 91.8 101.24 91.61 101.42 91.55C101.86 91.39 101.87 91.08 101.45 89.82C100.95 88.34 100.67 86.9 100.66 85.99C100.66 85.57 100.54 84.64 100.38 83.93C100.22 83.21 100.1 82.34 100.1 81.98C100.1 80.72 100.01 80.5 99.01 79.09C97.77 77.36 97.75 77.32 97.56 76.54C97.22 75.21 97.17 74.56 97.36 74.25C97.45 74.09 97.5 73.9 97.45 73.83C97.42 73.77 97.37 73.16 97.36 72.51C97.35 71.63 97.29 71.2 97.13 70.89C96.95 70.52 96.95 70.38 97.06 69.69C97.14 69.26 97.17 68.82 97.14 68.71C97.09 68.61 97.12 68.5 97.17 68.46C97.24 68.41 97.28 68.23 97.28 68.04C97.28 67.85 97.4 67.31 97.56 66.84C97.72 66.37 97.84 65.89 97.84 65.78C97.84 65.37 98.32 64.31 98.48 64.37C98.58 64.42 98.63 64.33 98.63 64.12C98.63 63.91 98.72 63.79 98.91 63.7C99.07 63.64 99.19 63.5 99.19 63.42C99.19 63.21 99.55 62.84 99.75 62.84C99.85 62.84 99.87 62.96 99.83 63.28C99.78 63.59 99.81 63.7 99.9 63.66C99.98 63.64 100.05 63.5 100.07 63.36C100.09 63.21 100.21 63 100.33 62.88C100.56 62.66 100.57 62.66 100.79 62.99C101.04 63.36 101.24 63.41 101.44 63.14C101.52 63.03 101.67 62.98 101.78 63.02C101.88 63.06 102.05 62.98 102.17 62.83C102.49 62.45 102.97 62.21 103.12 62.37C103.2 62.46 103.3 62.44 103.45 62.3C103.68 62.08 104.49 62 104.49 62.21C104.49 62.48 104.78 62.3 105.36 61.65C105.7 61.28 106.01 60.97 106.08 60.97C106.15 60.97 106.16 61.14 106.11 61.4C106.03 61.88 106.11 61.93 106.43 61.62C106.62 61.43 106.64 61.43 106.78 61.63C106.9 61.83 106.94 61.8 107.12 61.4C107.36 60.86 107.57 60.94 107.48 61.56L107.42 62.02L107.59 61.62C107.86 60.98 108.46 60.79 108.24 61.42C108.17 61.63 108.17 61.63 108.4 61.42C108.68 61.15 108.77 61.26 108.77 61.86V62.34L109.13 61.96C109.32 61.75 109.52 61.58 109.57 61.58C109.73 61.58 109.8 62 109.72 62.54C109.65 63.06 109.65 63.07 109.88 62.92C110.08 62.78 110.15 62.78 110.32 62.96C110.43 63.06 110.59 63.12 110.67 63.1C110.76 63.06 110.81 63.2 110.81 63.53C110.81 63.81 110.88 64.09 110.98 64.17C111.17 64.34 111.17 64.36 111.35 63.89C111.52 63.47 111.82 63.45 111.82 63.87C111.82 64.04 111.88 64.18 111.94 64.18C112.02 64.18 112.03 64.38 111.97 64.74C111.89 65.32 111.97 65.43 112.22 65.07C112.33 64.9 112.39 64.88 112.5 65.02C112.61 65.13 112.62 65.25 112.51 65.58C112.43 65.8 112.37 66.17 112.37 66.4C112.37 66.75 112.39 66.8 112.54 66.66C112.83 66.4 112.91 66.64 112.72 67.22C112.55 67.73 112.56 67.78 112.73 67.92C112.84 68.01 113 68.28 113.09 68.51C113.18 68.76 113.37 69.03 113.52 69.12C113.69 69.22 113.85 69.48 113.94 69.82C114.02 70.12 114.19 70.43 114.3 70.5C114.41 70.56 114.6 70.82 114.73 71.08C114.84 71.33 115.06 71.65 115.19 71.78C115.33 71.92 115.52 72.19 115.61 72.37C115.76 72.69 115.79 72.7 115.91 72.52C116.11 72.22 116.44 72.43 116.88 73.14C117.25 73.73 117.39 73.84 117.27 73.46C117.16 73.06 117.45 73 117.72 73.37L117.96 73.69L118.11 73.08C118.19 72.75 118.37 72.33 118.52 72.15C118.67 71.98 118.81 71.72 118.86 71.58C118.97 71.18 119.23 71.28 119.32 71.77C119.37 72.08 119.44 72.2 119.6 72.2C119.75 72.2 119.81 72.11 119.81 71.92C119.81 71.41 119.95 71.09 120.16 71.09C120.27 71.09 120.43 70.97 120.5 70.81C120.58 70.66 120.78 70.37 120.97 70.17C121.53 69.55 121.72 68.91 121.79 67.43C121.84 66.43 121.93 65.91 122.13 65.34C122.47 64.4 122.57 63.3 122.42 62.08C122.3 61.04 122.36 60.84 122.84 60.84C123.41 60.84 124.27 60.48 124.88 59.97C125.21 59.7 125.57 59.48 125.67 59.48C125.78 59.48 125.99 59.38 126.13 59.25C126.28 59.13 126.58 58.98 126.79 58.93C127.49 58.77 128.21 58.28 128.67 57.67C129.46 56.63 129.46 56.63 129.32 54.17C129.29 53.45 129.2 52.71 129.13 52.51C129.02 52.2 129.03 52.13 129.24 51.93C129.54 51.67 129.67 51.08 129.5 50.74C129.42 50.57 129.42 50.36 129.51 50.01C129.58 49.75 129.65 49.39 129.66 49.22C129.67 49.05 129.69 48.79 129.69 48.65C129.71 48.46 129.85 48.32 130.15 48.19C130.67 47.96 130.94 47.36 130.66 47.1C130.55 46.99 130.5 46.75 130.52 46.32C130.55 45.78 130.59 45.69 130.84 45.63C131.17 45.54 131.31 45.01 131.01 45.01C130.74 45.01 130.17 44.61 130.17 44.43C130.17 44.36 130.09 44.23 130 44.17C129.72 44.01 129.95 43.06 130.37 42.66C130.7 42.36 130.74 42.04 130.46 42.04C130.34 42.04 129.65 41.72 129.51 41.6C129.43 41.54 129.72 41.06 129.84 41.06C130 41.06 130.73 40.23 130.73 40.05C130.73 39.98 130.83 39.79 130.96 39.64C131.23 39.32 131.32 37.85 131.06 37.85C130.95 37.85 130.52 37.37 130.51 37.23C130.51 37.19 130.7 36.93 130.94 36.64C131.28 36.22 131.36 36.03 131.32 35.75C131.29 35.45 131.32 35.37 131.53 35.27C131.68 35.22 131.88 35.2 131.97 35.23C132.09 35.28 132.08 35.23 131.92 35.03C131.81 34.88 131.62 34.73 131.5 34.7C131.21 34.59 131.23 34.05 131.53 33.69C131.81 33.36 132.01 31.97 131.79 31.87C131.59 31.78 131.73 30.82 131.97 30.67C132.27 30.5 132.24 30.27 131.91 30.36C131.73 30.41 131.55 30.35 131.38 30.19C131.14 29.97 131.13 29.93 131.29 29.79C131.61 29.51 131.62 29.11 131.31 28.96C131.11 28.86 131.04 28.75 131.08 28.58C131.18 28.17 130.92 27.47 130.69 27.47C130.57 27.47 130.4 27.31 130.28 27.1C130.17 26.89 129.96 26.69 129.81 26.66C129.24 26.54 128.74 26.15 128.68 25.79C128.65 25.57 128.52 25.38 128.36 25.31C128.19 25.24 128.12 25.11 128.15 24.98C128.18 24.84 128.07 24.67 127.82 24.49C127.5 24.26 127.44 24.13 127.46 23.81C127.48 23.34 127.29 23.06 126.83 22.93L126.48 22.83L126.41 21.64C126.3 19.79 125.97 18.64 125.31 17.71C125.01 17.29 124.94 17.43 125.07 18.22C125.19 18.91 125.13 19.89 124.93 20.15C124.85 20.25 124.7 20.24 124.36 20.06C124.1 19.94 123.68 19.79 123.44 19.74C123.2 19.69 122.75 19.49 122.45 19.3C122.15 19.1 121.66 18.92 121.38 18.87C121.09 18.83 120.77 18.72 120.67 18.64C120.56 18.53 120.16 18.47 119.6 18.44C119.12 18.43 118.67 18.39 118.6 18.35C118.54 18.33 118.08 18.3 117.56 18.31C116.81 18.32 116.59 18.29 116.43 18.11C116.13 17.78 115.64 17.59 115.28 17.67C115.1 17.71 114.6 18.04 114.19 18.39C113.51 18.96 113.35 19.03 112.91 19.03C112.56 19.02 112.39 18.97 112.37 18.83C112.34 18.6 111.26 18.57 111.17 18.81C111.15 18.9 110.96 18.95 110.75 18.93C110.55 18.92 110.21 18.95 110.02 19C109.69 19.09 109.65 19.06 109.65 18.84C109.65 18.65 109.53 18.52 109.19 18.38C108.82 18.21 108.74 18.12 108.8 17.91C108.83 17.75 108.73 17.45 108.53 17.11C108.34 16.81 108.19 16.48 108.19 16.38C108.19 16.28 108.02 15.96 107.81 15.69C107.38 15.11 107.03 14.29 107.11 14.05C107.14 13.96 107.11 13.86 107.05 13.82C106.98 13.78 106.84 13.51 106.71 13.23C106.35 12.4 106.15 12.04 106.06 12.04C105.88 12.04 105.01 10.69 105.06 10.47C105.09 10.32 104.99 10.19 104.76 10.06C104.58 9.95995 104.41 9.75997 104.39 9.62997C104.37 9.48997 104.16 9.25001 103.94 9.07001C103.42 8.70001 102.35 8.07997 102.2 8.07997C102.11 8.07997 99.49 6.73003 98.83 6.34003C98.72 6.28003 98.57 6.26999 98.48 6.29999C98.39 6.33999 98.24 6.24001 98.14 6.07001C98 5.84001 97.89 5.80003 97.58 5.84003C97.3 5.88003 97.13 5.82999 96.97 5.64999C96.82 5.48999 96.56 5.39997 96.2 5.37997C95.9 5.36997 95.59 5.30995 95.52 5.25995C95.46 5.19995 95.18 5.09997 94.9 5.02997C94.62 4.95997 94.19 4.82995 93.94 4.75995C93.69 4.68995 93.34 4.60001 93.15 4.57001C92.29 4.47001 91.41 4.27003 91.18 4.14003C91.01 4.04003 90.84 4.04001 90.63 4.12001C90.44 4.19001 90.25 4.19001 90.12 4.12001C90.02 4.06001 89.77 3.99999 89.57 3.99999C89.37 3.99999 89.16 3.94999 89.1 3.89999C88.91 3.74999 86.2 3.78001 85.91 3.92001C85.7 4.04001 85.58 4.02995 85.29 3.85995C84.97 3.68995 84.19 3.58995 83.64 3.65995C83.55 3.66995 83.39 3.63999 83.3 3.59999C83.22 3.46999 83.05 3.52001 82.93 3.62001ZM69.98 75.82C69.98 75.94 69.89 76.07 69.79 76.09C69.59 76.13 69.5 75.76 69.67 75.57C69.8 75.44 69.98 75.58 69.98 75.82ZM72.38 80.97C72.33 81.33 71.95 81.44 71.95 81.09C71.95 80.82 72.04 80.69 72.25 80.69C72.35 80.69 72.4 80.79 72.38 80.97Z" fill="white"/>
<path d="M8.34001 50.72C8.16001 50.83 8.13001 50.89 8.24001 50.91C8.33001 50.91 8.51001 50.82 8.63001 50.72C8.90001 50.5 8.71001 50.49 8.34001 50.72Z" fill="white"/>
<path d="M108.05 61.75C108 61.79 107.97 61.89 107.97 61.96C107.97 62.03 108.03 62.02 108.11 61.94C108.18 61.87 108.21 61.77 108.19 61.73C108.16 61.68 108.09 61.7 108.05 61.75Z" fill="white"/>
<path d="M221.58 54C223.44 54 225.05 54.31 226.41 54.93C227.79 55.55 228.85 56.43 229.59 57.57C230.33 58.71 230.7 60.06 230.7 61.62C230.7 63.16 230.33 64.51 229.59 65.67C228.85 66.81 227.79 67.69 226.41 68.31C225.05 68.91 223.44 69.21 221.58 69.21H217.35V75H212.49V54H221.58ZM221.31 65.25C222.77 65.25 223.88 64.94 224.64 64.32C225.4 63.68 225.78 62.78 225.78 61.62C225.78 60.44 225.4 59.54 224.64 58.92C223.88 58.28 222.77 57.96 221.31 57.96H217.35V65.25H221.31ZM247.55 75L243.5 69.15H243.26H239.03V75H234.17V54H243.26C245.12 54 246.73 54.31 248.09 54.93C249.47 55.55 250.53 56.43 251.27 57.57C252.01 58.71 252.38 60.06 252.38 61.62C252.38 63.18 252 64.53 251.24 65.67C250.5 66.79 249.44 67.65 248.06 68.25L252.77 75H247.55ZM247.46 61.62C247.46 60.44 247.08 59.54 246.32 58.92C245.56 58.28 244.45 57.96 242.99 57.96H239.03V65.28H242.99C244.45 65.28 245.56 64.96 246.32 64.32C247.08 63.68 247.46 62.78 247.46 61.62ZM266.4 75.36C264.22 75.36 262.25 74.89 260.49 73.95C258.75 73.01 257.38 71.72 256.38 70.08C255.4 68.42 254.91 66.56 254.91 64.5C254.91 62.44 255.4 60.59 256.38 58.95C257.38 57.29 258.75 55.99 260.49 55.05C262.25 54.11 264.22 53.64 266.4 53.64C268.58 53.64 270.54 54.11 272.28 55.05C274.02 55.99 275.39 57.29 276.39 58.95C277.39 60.59 277.89 62.44 277.89 64.5C277.89 66.56 277.39 68.42 276.39 70.08C275.39 71.72 274.02 73.01 272.28 73.95C270.54 74.89 268.58 75.36 266.4 75.36ZM266.4 71.22C267.64 71.22 268.76 70.94 269.76 70.38C270.76 69.8 271.54 69 272.1 67.98C272.68 66.96 272.97 65.8 272.97 64.5C272.97 63.2 272.68 62.04 272.1 61.02C271.54 60 270.76 59.21 269.76 58.65C268.76 58.07 267.64 57.78 266.4 57.78C265.16 57.78 264.04 58.07 263.04 58.65C262.04 59.21 261.25 60 260.67 61.02C260.11 62.04 259.83 63.2 259.83 64.5C259.83 65.8 260.11 66.96 260.67 67.98C261.25 69 262.04 69.8 263.04 70.38C264.04 70.94 265.16 71.22 266.4 71.22Z" fill="#FF0000"/>
<path d="M144.61 22H161.56V25.87H149.44V30.19H155.26C157.8 30.19 159.73 30.72 161.05 31.78C162.39 32.84 163.06 34.37 163.06 36.37C163.06 38.47 162.32 40.1 160.84 41.26C159.36 42.42 157.27 43 154.57 43H144.61V22ZM154.3 39.4C155.54 39.4 156.49 39.16 157.15 38.68C157.81 38.18 158.14 37.46 158.14 36.52C158.14 34.68 156.86 33.76 154.3 33.76H149.44V39.4H154.3ZM184.927 22L175.987 38.62C175.127 40.22 174.087 41.43 172.867 42.25C171.667 43.07 170.357 43.48 168.937 43.48C167.837 43.48 166.697 43.24 165.517 42.76L166.687 39.07C167.527 39.33 168.227 39.46 168.787 39.46C169.387 39.46 169.927 39.32 170.407 39.04C170.887 38.74 171.327 38.28 171.727 37.66L171.907 37.42L163.627 22H168.817L174.397 33.28L180.157 22H184.927ZM187.237 22H192.067V35.68L202.087 22H206.647V43H201.847V29.35L191.827 43H187.237V22ZM196.927 20.65C193.087 20.65 191.147 19.12 191.107 16.06H194.437C194.477 17.52 195.307 18.25 196.927 18.25C197.727 18.25 198.337 18.07 198.757 17.71C199.177 17.33 199.397 16.78 199.417 16.06H202.747C202.727 17.56 202.237 18.7 201.277 19.48C200.317 20.26 198.867 20.65 196.927 20.65ZM226.426 32.05C227.706 32.43 228.686 33.05 229.366 33.91C230.046 34.77 230.386 35.83 230.386 37.09C230.386 38.95 229.676 40.4 228.256 41.44C226.856 42.48 224.846 43 222.226 43H211.876V22H221.656C224.096 22 225.996 22.47 227.356 23.41C228.716 24.35 229.396 25.69 229.396 27.43C229.396 28.47 229.136 29.39 228.616 30.19C228.096 30.97 227.366 31.59 226.426 32.05ZM216.706 30.7H221.236C222.296 30.7 223.096 30.49 223.636 30.07C224.176 29.63 224.446 28.99 224.446 28.15C224.446 27.33 224.166 26.7 223.606 26.26C223.066 25.82 222.276 25.6 221.236 25.6H216.706V30.7ZM222.046 39.4C224.326 39.4 225.466 38.5 225.466 36.7C225.466 34.96 224.326 34.09 222.046 34.09H216.706V39.4H222.046ZM244.249 43.36C242.069 43.36 240.099 42.89 238.339 41.95C236.599 41.01 235.229 39.72 234.229 38.08C233.249 36.42 232.759 34.56 232.759 32.5C232.759 30.44 233.249 28.59 234.229 26.95C235.229 25.29 236.599 23.99 238.339 23.05C240.099 22.11 242.069 21.64 244.249 21.64C246.429 21.64 248.389 22.11 250.129 23.05C251.869 23.99 253.239 25.29 254.239 26.95C255.239 28.59 255.739 30.44 255.739 32.5C255.739 34.56 255.239 36.42 254.239 38.08C253.239 39.72 251.869 41.01 250.129 41.95C248.389 42.89 246.429 43.36 244.249 43.36ZM244.249 39.22C245.489 39.22 246.609 38.94 247.609 38.38C248.609 37.8 249.389 37 249.949 35.98C250.529 34.96 250.819 33.8 250.819 32.5C250.819 31.2 250.529 30.04 249.949 29.02C249.389 28 248.609 27.21 247.609 26.65C246.609 26.07 245.489 25.78 244.249 25.78C243.009 25.78 241.889 26.07 240.889 26.65C239.889 27.21 239.099 28 238.519 29.02C237.959 30.04 237.679 31.2 237.679 32.5C237.679 33.8 237.959 34.96 238.519 35.98C239.099 37 239.889 37.8 240.889 38.38C241.889 38.94 243.009 39.22 244.249 39.22ZM277.617 22V43H272.817V25.96H265.617L265.467 30.34C265.367 33.32 265.127 35.74 264.747 37.6C264.367 39.44 263.727 40.86 262.827 41.86C261.947 42.84 260.707 43.33 259.107 43.33C258.447 43.33 257.647 43.22 256.707 43L257.007 38.89C257.267 38.97 257.557 39.01 257.877 39.01C259.037 39.01 259.847 38.33 260.307 36.97C260.767 35.59 261.057 33.44 261.177 30.52L261.477 22H277.617Z" fill="black"/>
</g>
<defs>
<clipPath id="clip0">
<rect width="280" height="100" fill="white"/>
</clipPath>
</defs>
</svg>
