<svg width="79" height="57" viewBox="0 0 79 57" fill="none" xmlns="http://www.w3.org/2000/svg">
<path d="M0 57H78.8017V0H0V57Z" fill="#F7654A"/>
<path d="M45.5926 5.74844C45.4623 5.85657 45.2717 5.87128 45.1866 5.77791C45.1463 5.73368 45.056 5.74844 44.8857 5.82217C44.69 5.90571 44.5897 5.92041 44.3543 5.86638C44.1637 5.82214 44.0383 5.82214 43.978 5.86638C43.918 5.91061 43.8326 5.9008 43.7023 5.85657C43.5517 5.80254 43.4969 5.80741 43.4266 5.87621C43.3211 5.97941 42.5391 5.95974 42.4389 5.85164C42.3486 5.75334 42.0777 5.77794 42.0226 5.88604C41.9774 5.96957 41.9423 5.97944 41.7869 5.92047C41.6666 5.87131 41.5714 5.87131 41.506 5.91061C41.456 5.9401 41.3909 5.94504 41.3709 5.9303C41.3557 5.90571 41.2754 5.92534 41.2003 5.96464C41.1 6.02361 41.0349 6.02364 40.9446 5.9745C40.8594 5.92044 40.734 5.92534 40.4783 5.9745C40.2826 6.01871 39.9717 6.05314 39.7863 6.05804C39.6009 6.06297 39.3951 6.10227 39.3351 6.13177C39.2749 6.16617 39.0994 6.21527 38.9389 6.23494C38.7886 6.2595 38.4426 6.3578 38.1769 6.45117C37.7606 6.59863 37.2443 6.71163 36.9231 6.72636C36.8731 6.72636 36.808 6.74603 36.788 6.7706C36.7629 6.80009 36.6877 6.81976 36.6123 6.81976C36.5371 6.81976 36.4369 6.8443 36.3817 6.87379C36.3317 6.90326 36.1311 6.97209 35.9454 7.03106C35.76 7.08512 35.5394 7.16865 35.454 7.21779C35.3737 7.26692 35.2586 7.30135 35.1934 7.30135C35.1383 7.30135 35.0129 7.36032 34.9226 7.43405C34.7823 7.56181 34.5014 7.66008 33.97 7.76821C33.8797 7.78787 33.7443 7.85174 33.684 7.92054C33.614 7.98934 33.5137 8.03354 33.4586 8.02864C33.248 7.99914 32.9671 8.10727 32.9471 8.22521C32.922 8.30877 32.8617 8.33336 32.6663 8.33336C32.5309 8.33336 32.3503 8.36773 32.2651 8.4169C32.18 8.46603 32.0043 8.52497 31.8891 8.54463C31.7637 8.56923 31.6383 8.61346 31.6083 8.63803C31.4729 8.7412 30.9966 8.89353 30.9014 8.86403C30.8463 8.8444 30.7409 8.86899 30.6857 8.91813C30.5603 9.01152 30.0189 9.11466 29.4171 9.15892C29.2066 9.16876 28.976 9.21296 28.8957 9.24246C28.8154 9.27195 28.5897 9.31619 28.3892 9.34075C28.1837 9.36535 27.9931 9.41938 27.958 9.46359C27.9229 9.51272 27.8126 9.54718 27.7173 9.54718C27.602 9.54718 27.5117 9.59135 27.4667 9.67001C27.4265 9.73881 27.3463 9.79291 27.2861 9.79291C27.231 9.79291 27.1507 9.84198 27.1207 9.89605C26.9602 10.1958 26.89 10.2351 26.5691 10.2597C26.3886 10.2695 26.0827 10.3531 25.8922 10.4366C25.7017 10.5153 25.5212 10.5841 25.4911 10.5841C25.461 10.5841 25.3607 10.6283 25.2755 10.6775C25.1852 10.7266 25.0498 10.7709 24.9696 10.7709C24.6988 10.7757 24.2225 10.9281 24.1573 11.0313C24.0621 11.1689 23.7161 11.3163 22.8085 11.6062C21.8809 11.906 21.3996 12.0141 20.4469 12.1271C18.9978 12.309 18.1705 12.648 16.7114 13.68C16.3403 13.9405 16.1899 13.9994 15.8089 14.0731C15.5531 14.1223 15.132 14.2304 14.8662 14.314C14.6004 14.3975 14.2093 14.5154 13.9938 14.5646C13.7781 14.6137 13.4873 14.7366 13.3469 14.8251C13.2065 14.9234 12.9809 15.0364 12.8405 15.0757C12.7001 15.1199 12.4996 15.2133 12.3993 15.292C12.304 15.3755 12.1335 15.4738 12.0332 15.5081C11.8677 15.5671 11.6221 15.7244 11.0354 16.1421C10.2382 16.7072 9.38077 18.1176 9.20026 19.1692C9.1752 19.2823 9.12506 19.4101 9.07992 19.4543C9.0348 19.4887 8.99972 19.6165 8.99972 19.7344C8.99972 19.8867 8.93954 20.0391 8.78912 20.2553C8.64872 20.4568 8.6086 20.555 8.67377 20.5206C8.77406 20.4764 8.80917 20.5698 8.71389 20.6288C8.6838 20.6484 8.62866 20.7271 8.58854 20.8008C8.5334 20.9138 8.5384 20.9286 8.6136 20.8549C8.77406 20.7222 8.78912 20.8794 8.66374 21.2676C8.59357 21.4692 8.54343 21.6755 8.54343 21.7296C8.54343 21.8918 8.64872 21.7591 8.71892 21.5134C8.75903 21.3807 8.83423 21.2283 8.8944 21.1743C8.98969 21.076 8.99469 21.076 8.99469 21.2038C8.99469 21.2824 8.91949 21.5183 8.8242 21.7394C8.63869 22.1768 8.59357 22.4962 8.73897 22.3635C8.78912 22.3193 8.83926 22.2947 8.85429 22.3144C8.8944 22.3586 8.89943 23.3906 8.85932 23.7346L8.8242 24.0344L8.91949 23.8329C8.96963 23.7297 9.02477 23.6363 9.04483 23.6363C9.12003 23.6363 9.09997 24.3096 9.01977 24.511C8.97463 24.6241 8.93452 24.7715 8.93452 24.8305C8.93452 24.9238 8.94957 24.914 9.02477 24.801C9.16017 24.5897 9.23534 24.6388 9.19526 24.9042C9.1802 25.0369 9.19026 25.2088 9.22534 25.2875C9.27046 25.4005 9.26046 25.4988 9.17017 25.7495C9.09997 25.9264 9.04983 26.1131 9.04983 26.1623C9.04983 26.3146 9.15012 26.1966 9.19026 26.005C9.21532 25.9067 9.2504 25.8035 9.28549 25.7887C9.36074 25.7396 9.44597 25.8723 9.44597 26.0394C9.44597 26.1622 9.09497 26.8207 8.90946 27.0419C8.85429 27.1107 8.83423 27.1647 8.86934 27.1647C8.90443 27.1647 9.01474 27.0664 9.11003 26.9534C9.21032 26.8404 9.3156 26.7421 9.34063 26.7421C9.41089 26.7421 9.34063 27.1008 9.24034 27.2729C9.19526 27.3466 9.16017 27.4793 9.16017 27.5628C9.16017 27.6463 9.10497 27.838 9.0348 27.9756C8.9646 28.1132 8.87434 28.3098 8.82923 28.413L8.754 28.59L8.90443 28.4424C8.98466 28.3589 9.09497 28.1918 9.15512 28.0788C9.28549 27.8036 9.46603 27.6316 9.57132 27.6709C9.62146 27.6955 9.6666 27.6611 9.69166 27.5873C9.71674 27.5186 9.78694 27.435 9.85212 27.4055C9.92232 27.3711 10.0226 27.2581 10.0777 27.15C10.2131 26.8994 10.3435 25.7838 10.3585 24.801L10.3635 24.0442L10.0928 23.4496C9.86212 22.9434 9.81197 22.7763 9.77189 22.3586C9.59134 20.2946 9.93232 18.5992 10.7145 17.6999C10.9552 17.4198 11.6471 16.9726 11.8327 16.9726C11.968 16.9726 11.9379 17.1446 11.7575 17.4542C11.5619 17.7884 11.1157 18.953 10.9552 19.5575C10.895 19.7885 10.8148 20.3585 10.7797 20.8155C10.7095 21.6215 10.7195 21.6854 10.8649 22.5748C10.9702 23.199 11.1307 23.8526 11.3563 24.5651C11.7073 25.6954 11.9029 26.177 12.5397 27.4793C12.9859 28.3982 13.3319 29.563 13.3319 30.1623C13.3319 30.7571 13.1263 31.4599 12.7803 32.0644C12.299 32.8949 11.5769 33.7941 11.0354 34.2264C10.7747 34.4379 10.7245 34.5066 10.6243 34.8754C10.5541 35.1014 10.4839 35.5289 10.4538 35.8335C10.4237 36.143 10.3234 36.6492 10.2282 36.9735C10.0025 37.7305 9.88723 38.3692 9.88723 38.9098C9.88723 39.1506 9.79694 39.9073 9.69166 40.5808C9.53123 41.5783 9.46097 41.8878 9.3156 42.1924C9.1852 42.4774 9.13006 42.6986 9.09497 43.0868C9.06489 43.3718 8.99469 43.7551 8.93452 43.9369C8.87434 44.1188 8.78409 44.4286 8.72894 44.6152C8.6838 44.8019 8.6136 44.9789 8.58854 44.9986C8.49329 45.0575 8.10217 45.7162 8.037 45.9225C8.00189 46.0257 7.99186 46.173 8.00692 46.2369C8.03197 46.3452 8.08212 46.3648 8.31777 46.3648C8.65874 46.3648 8.78409 46.4335 8.89943 46.6695C9.02477 46.9249 9.00472 47.6032 8.86934 48.0355C8.67377 48.65 8.71892 48.7825 9.14012 48.8366L9.43592 48.8708V49.1806C9.43592 49.5737 9.57132 49.8193 9.9022 50.026C10.3335 50.301 10.7145 50.3699 11.7324 50.3699C12.6449 50.3699 12.6499 50.3699 12.7452 50.2175C12.7954 50.1388 12.8907 50.0553 12.9558 50.0308C13.1062 49.9815 13.1664 49.898 13.1664 49.7162C13.1664 49.564 12.9258 49.1462 12.7202 48.9447C12.6499 48.8857 12.4795 48.6252 12.3341 48.3698C12.0182 47.8192 11.7926 47.5442 11.5168 47.3917C11.4015 47.3327 11.2962 47.2295 11.2811 47.1757C11.1557 46.7482 11.0756 46.0747 11.0756 45.4802C11.0756 44.8857 11.1157 44.5859 11.3563 43.3424C11.6371 41.8978 11.8527 41.1901 12.4193 39.8483C12.8806 38.7625 13.8584 37.3668 14.5754 36.7623C15.0417 36.3742 15.2373 36.1727 15.5732 35.7155C15.7938 35.4257 15.8991 35.3125 15.9443 35.3619C15.9843 35.406 15.9843 35.6762 15.9392 36.261C15.8941 36.9048 15.8339 37.2733 15.6735 37.8582C15.4228 38.777 15.3776 39.121 15.4779 39.3225C15.5231 39.4012 15.7487 39.7551 15.9793 40.104C16.215 40.4576 16.7766 41.4209 17.2278 42.2614C17.6741 43.0919 18.2708 44.2025 18.5565 44.7232C19.1432 45.7849 20.0007 47.5048 20.0959 47.8095C20.1411 47.9569 20.146 48.188 20.1059 48.6155C20.0307 49.446 20.0357 49.4557 20.7277 49.5836C21.1789 49.6671 21.3294 49.7703 21.3895 50.026C21.4297 50.1881 21.4949 50.2568 21.886 50.4631L22.3322 50.704L23.2899 50.7236C24.3629 50.7481 24.8092 50.704 24.9245 50.586C24.9646 50.537 25.0197 50.4041 25.0398 50.2813C25.0899 50.0063 24.9947 49.7851 24.5283 49.0527C24.1723 48.5072 24.0721 48.3895 23.6108 48.0307C23.3501 47.8292 22.4726 46.8217 21.9611 46.1485C21.4698 45.495 20.477 43.7699 20.1962 43.0771C19.7299 41.9419 19.6948 41.7059 19.6897 39.8631C19.6897 38.4823 19.6998 38.2318 19.78 38.1038C19.8302 38.0203 19.8853 37.814 19.9054 37.6467C19.9204 37.4748 19.9605 37.1653 19.9956 36.949C20.0257 36.7327 20.0809 36.1037 20.1159 35.5534C20.2112 34.0104 20.2864 33.5778 20.8029 31.7253C21.0436 30.87 21.1739 30.5114 21.2541 30.5114C21.4949 30.5114 23.0543 31.6269 24.5735 32.8849C25.6465 33.7844 26.1479 34.1429 26.6644 34.3985C27.7424 34.9341 27.9831 35.0962 28.1185 35.3519C28.1887 35.4847 28.2639 35.7893 28.2939 36.0154C28.3441 36.4329 28.61 37.2537 28.6951 37.2537C28.7203 37.2537 28.7703 37.116 28.8106 36.949C28.8606 36.713 28.8957 36.6592 28.9509 36.7082C29.0411 36.7868 29.1111 36.6985 29.2014 36.3987C29.2366 36.2855 29.342 36.1234 29.4323 36.0447C29.5226 35.9712 29.6429 35.8483 29.688 35.7697C29.8083 35.573 29.7129 35.3029 29.4471 35.0914C29.332 34.9931 29.2217 34.8899 29.1966 34.8605C29.1111 34.7326 29.1563 34.5755 29.2869 34.5214C29.362 34.492 29.4371 34.4379 29.4623 34.4082C29.5074 34.3247 29.7331 34.3247 29.8131 34.4082C29.8634 34.4624 29.9186 34.4427 30.044 34.3492C30.1391 34.2757 30.2546 34.2412 30.2997 34.256C30.3497 34.2757 30.44 34.256 30.5151 34.2216C30.5854 34.1774 30.8211 34.1381 31.0417 34.1232C31.4477 34.0987 31.6434 34.0446 31.9391 33.8727C32.0346 33.8186 32.1649 33.7941 32.26 33.8137C32.3503 33.8382 32.4557 33.8137 32.5209 33.7647C32.5811 33.7154 32.6863 33.6957 32.7514 33.7106C32.8266 33.7351 32.9169 33.7006 32.9823 33.6271C33.0523 33.5532 33.2429 33.4797 33.4786 33.4304C33.8046 33.3714 33.9349 33.3714 34.3009 33.4549C34.6469 33.5336 34.7671 33.5336 34.8926 33.4797C34.9777 33.4452 35.2034 33.4059 35.3889 33.3959C36.3869 33.3421 36.5571 33.3666 36.4369 33.5188C36.3466 33.6416 36.4117 33.6712 36.6474 33.6122C36.9934 33.5287 37.1789 33.5532 37.4697 33.7106C37.6203 33.7941 37.7806 33.8628 37.8257 33.8628C37.866 33.8628 37.9009 33.8924 37.9009 33.9317C37.9009 33.9759 37.9511 33.9856 38.0263 33.9662C38.0866 33.9465 38.2169 33.971 38.3123 34.0201C38.4526 34.0987 38.4726 34.1429 38.4426 34.2954L38.4126 34.4724L38.8686 34.4527C39.2849 34.4427 39.33 34.4476 39.4051 34.5755C39.4554 34.6539 39.5406 34.7129 39.6009 34.7129C39.656 34.7129 39.8214 34.7819 39.9617 34.8654C40.1023 34.9489 40.2877 35.0176 40.378 35.0176C40.4731 35.0176 40.5534 35.0375 40.5534 35.062C40.5586 35.0914 40.5686 35.17 40.5786 35.2387C40.5834 35.3125 40.6086 35.396 40.6286 35.4402C40.6537 35.4747 40.6186 35.6221 40.5586 35.7745C40.4983 35.9219 40.4583 36.1085 40.4731 36.1872C40.5083 36.3839 40.398 36.6147 40.1023 36.9784C39.9717 37.1308 39.8714 37.2782 39.8714 37.293C39.8714 37.3127 39.9517 37.3127 40.042 37.2882C40.368 37.2192 40.2126 37.4845 39.7011 37.8482C39.4854 38.0055 39.3049 38.158 39.3049 38.1825C39.3049 38.2118 39.1997 38.3546 39.0691 38.492L38.8286 38.7428L39.014 38.6986C39.2397 38.6493 39.2449 38.7231 39.0443 39.0916C38.8086 39.5291 38.6883 40.5414 38.8537 40.7575C38.9037 40.8264 38.9037 40.8903 38.8386 41.0621C38.7886 41.1901 38.7786 41.2933 38.8086 41.3129C38.8386 41.3374 38.8586 41.4161 38.8586 41.4948C38.8586 41.5931 38.8989 41.647 38.994 41.6715C39.1143 41.7011 39.1346 41.7501 39.1546 41.9713L39.1694 42.2269L39.3049 41.9961C39.4806 41.6911 39.5757 41.7798 39.4854 42.1582C39.36 42.6889 39.3951 42.8953 39.656 43.1706C39.7963 43.3228 39.8714 43.4504 39.8514 43.5146C39.8414 43.5684 39.8063 43.7306 39.7914 43.8731C39.7563 44.1091 39.7611 44.1336 39.8714 44.1336C39.9317 44.1336 39.9969 44.1581 40.0169 44.1926C40.032 44.2222 40.0871 44.2367 40.1323 44.2122C40.1923 44.1877 40.2174 44.2222 40.2174 44.3351C40.2174 44.5662 40.2877 44.866 40.3377 44.866C40.3629 44.866 40.388 44.7626 40.398 44.6397C40.408 44.4776 40.4431 44.404 40.5183 44.3892C40.5786 44.3792 40.6137 44.4089 40.6137 44.4875C40.6137 44.5611 40.6637 44.6201 40.734 44.6397C40.8243 44.6642 40.8391 44.7087 40.8143 44.8019C40.774 44.9299 40.7791 44.9299 40.9146 44.8315C40.9946 44.7774 41.15 44.5807 41.2706 44.3989C41.3857 44.2171 41.486 44.0697 41.496 44.0697C41.5011 44.0697 41.5863 44.1484 41.6817 44.2467C41.7869 44.3547 41.8571 44.4824 41.8571 44.5807C41.8571 44.689 41.8823 44.7284 41.9374 44.7036C42.0074 44.6791 42.0174 44.7874 41.9974 45.3574C41.9826 46.124 41.9474 46.3646 41.802 46.8955C41.3957 48.3698 41.3957 48.4091 41.8069 48.4188C41.9274 48.4188 42.0626 48.4533 42.0929 48.4927C42.168 48.5713 42.178 48.8956 42.1077 49.2738C42.0577 49.5885 42.148 49.7655 42.4837 49.9963C42.9803 50.3355 43.4414 50.4583 44.3991 50.4876C45.2266 50.5221 45.2869 50.5173 45.3871 50.4041C45.4423 50.3355 45.5526 50.2471 45.6226 50.2075C45.708 50.1585 45.748 50.0798 45.748 49.9718C45.748 49.7458 45.4423 48.8612 45.2366 48.463C45.1463 48.2912 45.0711 48.119 45.0711 48.0748C45.0711 48.0307 44.9457 47.6964 44.7954 47.323C44.5397 46.7088 44.5097 46.576 44.4294 45.829C44.3091 44.7429 44.3591 44.2122 44.67 43.2489C45.046 42.0696 45.3771 41.2146 45.4471 41.2146C45.4823 41.2146 45.5626 41.3523 45.6226 41.5241C45.6929 41.7305 45.7431 41.8043 45.7631 41.7404C45.8131 41.6028 46.1691 41.7356 46.2494 41.9174C46.2846 41.9961 46.3297 42.0648 46.3549 42.0648C46.3797 42.0648 46.4451 42.1631 46.5003 42.2759C46.5603 42.3891 46.6457 42.4874 46.6906 42.4874C46.7309 42.4874 46.7809 42.5413 46.796 42.6103C46.8111 42.6789 46.8563 42.7331 46.8963 42.7331C46.9414 42.7331 46.9866 42.7821 47.0017 42.8411C47.0417 42.9691 47.2874 43.1803 47.468 43.2441C47.548 43.2686 47.5983 43.2541 47.6183 43.1902C47.6686 43.0426 47.7637 43.0868 47.834 43.2834C47.874 43.4162 47.9191 43.4604 47.9843 43.4359C48.0546 43.4114 48.1046 43.4456 48.1449 43.5391C48.2 43.6767 48.2 43.6767 48.2903 43.4898C48.3954 43.2638 48.4657 43.2296 48.7114 43.2638C48.8717 43.2934 48.892 43.3179 48.892 43.4898C48.8969 43.7061 48.9971 43.8831 49.1074 43.8486C49.1477 43.8289 49.1777 43.8782 49.1777 43.9763C49.1777 44.2271 49.2729 44.2122 49.3683 43.9517C49.4183 43.8192 49.4937 43.7109 49.5337 43.7109C49.6189 43.7109 49.7443 43.9617 49.7443 44.1384C49.7443 44.2074 49.8046 44.3203 49.8846 44.4038C50.0451 44.5759 50.0351 44.6004 50.0551 44.0256C50.0603 43.7651 50.1754 43.5981 50.2757 43.7109C50.3057 43.7406 50.3811 43.7354 50.4663 43.7061C50.5466 43.6767 50.6417 43.6571 50.682 43.6767C50.7172 43.6864 50.762 43.6519 50.7771 43.5832C50.8123 43.4359 50.9829 43.4308 51.0177 43.5736C51.0329 43.6323 51.0732 43.7306 51.1032 43.7847C51.1883 43.9569 51.1631 44.1188 51.0129 44.4382C50.9326 44.6004 50.8726 44.8019 50.8726 44.8757C50.8726 44.9544 50.8323 45.0821 50.7823 45.1559C50.6569 45.3425 50.6969 45.3671 50.9977 45.2836C51.4991 45.1362 51.5694 45.3574 51.2134 46.0257C51.088 46.2614 50.9877 46.4925 50.9877 46.5367C50.9877 46.6399 51.2034 46.812 51.3389 46.812C51.4691 46.812 51.6094 47.0429 51.6094 47.2689C51.6094 47.3672 51.5594 47.5983 51.4943 47.775L51.3789 48.0897L51.5894 48.3402C51.9103 48.7235 52.3366 48.9153 53.3546 49.1462C53.5852 49.1952 53.926 49.2542 54.1014 49.279C54.3974 49.3132 54.4326 49.3035 54.5629 49.1658C54.6432 49.0823 54.7734 48.9888 54.8637 48.9595C55.0843 48.8808 55.0894 48.7286 54.8789 48.1093C54.628 47.382 54.4877 46.6744 54.4826 46.2272C54.4826 46.0208 54.4226 45.5637 54.3423 45.2149C54.262 44.8609 54.2017 44.4334 54.2017 44.2564C54.2017 43.6374 54.1566 43.5291 53.6554 42.8363C53.0334 41.9861 53.0234 41.9664 52.9283 41.5831C52.7577 40.9296 52.7326 40.6101 52.828 40.4576C52.8731 40.3793 52.8983 40.2858 52.8731 40.2513C52.858 40.222 52.8329 39.9221 52.828 39.6026C52.8229 39.1703 52.7929 38.9588 52.7126 38.8066C52.6223 38.6248 52.6223 38.5558 52.6774 38.217C52.7177 38.0055 52.7326 37.7895 52.7177 37.7353C52.6926 37.6863 52.7077 37.6322 52.7326 37.6125C52.7677 37.588 52.788 37.4993 52.788 37.4062C52.788 37.3127 52.848 37.0473 52.9283 36.8162C53.0086 36.5854 53.0686 36.3494 53.0686 36.2955C53.0686 36.094 53.3094 35.573 53.3894 35.6027C53.4397 35.6272 53.4649 35.5827 53.4649 35.4796C53.4649 35.3764 53.51 35.3174 53.6052 35.2732C53.6854 35.2439 53.7454 35.1749 53.7454 35.1356C53.7454 35.0324 53.926 34.8506 54.0263 34.8506C54.0766 34.8506 54.0866 34.9096 54.0666 35.0669C54.0414 35.2191 54.0563 35.2732 54.1014 35.2535C54.1417 35.2439 54.1769 35.1749 54.1869 35.1062C54.1969 35.0324 54.2569 34.9292 54.3172 34.8702C54.4326 34.7622 54.4374 34.7622 54.5477 34.9244C54.6731 35.1062 54.7734 35.1307 54.8737 34.9982C54.9137 34.944 54.9891 34.9195 55.0443 34.9392C55.0943 34.9589 55.1797 34.9195 55.2397 34.8457C55.4003 34.659 55.6406 34.541 55.716 34.6197C55.756 34.6639 55.806 34.6539 55.8814 34.5852C55.9969 34.4772 56.4029 34.4379 56.4029 34.5411C56.4029 34.6739 56.5483 34.5852 56.8394 34.2657C57.01 34.0839 57.1652 33.9317 57.2 33.9317C57.2352 33.9317 57.2403 34.0152 57.2151 34.1429C57.1754 34.3789 57.2151 34.4034 57.3757 34.2512C57.4711 34.1577 57.4809 34.1577 57.5512 34.256C57.6114 34.3544 57.6314 34.3396 57.7217 34.1429C57.8423 33.8776 57.9474 33.9169 57.902 34.2216L57.872 34.4476L57.9572 34.2512C58.0926 33.9366 58.3937 33.8434 58.2834 34.1529C58.2483 34.2561 58.2483 34.2561 58.3637 34.1529C58.504 34.0201 58.5494 34.0742 58.5494 34.3689V34.6049L58.7297 34.4182C58.8252 34.315 58.9249 34.2315 58.9503 34.2315C59.0306 34.2315 59.0657 34.4379 59.0254 34.7032C58.9906 34.9589 58.9906 34.9637 59.106 34.8899C59.2057 34.8212 59.2409 34.8212 59.3266 34.9096C59.3817 34.9589 59.4614 34.9882 59.5017 34.9785C59.5472 34.9589 59.5717 35.0275 59.5717 35.1897C59.5717 35.3274 59.6069 35.465 59.6574 35.5043C59.7526 35.5879 59.7526 35.5975 59.8429 35.3667C59.928 35.1604 60.0783 35.1504 60.0783 35.3567C60.0783 35.4402 60.1083 35.5092 60.1386 35.5092C60.1789 35.5092 60.1834 35.6075 60.1537 35.7842C60.1134 36.0692 60.1537 36.1234 60.2789 35.9464C60.334 35.8629 60.3643 35.8532 60.4194 35.9219C60.4746 35.976 60.4791 36.035 60.424 36.1972C60.3846 36.3052 60.354 36.487 60.354 36.6002C60.354 36.772 60.3643 36.7965 60.4397 36.7279C60.5849 36.6002 60.6252 36.7182 60.5297 37.0032C60.4443 37.2537 60.4494 37.2782 60.5343 37.3472C60.5894 37.3913 60.67 37.5239 60.7154 37.637C60.7603 37.7598 60.8554 37.8926 60.9309 37.9368C61.0157 37.9858 61.0963 38.1138 61.1414 38.2808C61.1817 38.4282 61.2669 38.5806 61.322 38.6148C61.3772 38.6445 61.4723 38.7722 61.5374 38.8998C61.5926 39.023 61.7029 39.18 61.7683 39.2438C61.8383 39.3128 61.9337 39.4456 61.9789 39.534C62.0537 39.6913 62.0692 39.6961 62.1289 39.6075C62.2294 39.4601 62.3949 39.5633 62.6154 39.9122C62.8009 40.2023 62.8712 40.2562 62.8112 40.0695C62.756 39.8731 62.9014 39.8435 63.0366 40.0253L63.1572 40.1826L63.2323 39.8828C63.2726 39.7206 63.3626 39.5143 63.438 39.4257C63.5132 39.3422 63.5832 39.2145 63.6086 39.1458C63.6637 38.9491 63.794 38.9982 63.8389 39.239C63.864 39.3915 63.8992 39.4505 63.9794 39.4505C64.0549 39.4505 64.0846 39.406 64.0846 39.3128C64.0846 39.0623 64.1549 38.905 64.26 38.905C64.3154 38.905 64.3954 38.846 64.4306 38.7673C64.4706 38.6935 64.5712 38.551 64.6666 38.4527C64.9469 38.148 65.0423 37.8337 65.0772 37.1063C65.1026 36.6147 65.1477 36.3593 65.2477 36.0792C65.4183 35.6172 65.4683 35.0766 65.3932 34.4772C65.3334 33.9662 65.3631 33.8679 65.604 33.8679C65.89 33.8679 66.3209 33.6909 66.6269 33.4404C66.7923 33.3076 66.9726 33.1996 67.0226 33.1996C67.0777 33.1996 67.1834 33.1502 67.2534 33.0864C67.3289 33.0274 67.4791 32.9536 67.5843 32.9291C67.9354 32.8504 68.2966 32.6099 68.5269 32.3101C68.9232 31.7988 68.9232 31.7988 68.8532 30.5901C68.8383 30.2361 68.7929 29.8725 68.7577 29.7741C68.7026 29.6219 68.7077 29.5875 68.8129 29.4891C68.9634 29.3615 69.0283 29.0716 68.9434 28.9043C68.9032 28.8208 68.9032 28.7176 68.9486 28.5455C68.9834 28.4179 69.0186 28.241 69.0237 28.1574C69.0283 28.0739 69.0386 27.9461 69.0386 27.8773C69.0486 27.7839 69.1186 27.7151 69.2692 27.6512C69.5297 27.5382 69.6654 27.2434 69.5246 27.1156C69.4694 27.0616 69.4449 26.9436 69.4546 26.7323C69.4694 26.4669 69.4897 26.4227 69.6154 26.3932C69.7809 26.349 69.8509 26.0885 69.7003 26.0885C69.5649 26.0885 69.2794 25.8919 69.2794 25.8035C69.2794 25.7691 69.2392 25.7052 69.1937 25.6758C69.0537 25.5971 69.1692 25.1303 69.3794 24.9337C69.5449 24.7862 69.5649 24.629 69.4246 24.629C69.3643 24.629 69.0186 24.4717 68.9486 24.4128C68.9083 24.3833 69.0537 24.1474 69.114 24.1474C69.1937 24.1474 69.5603 23.7395 69.5603 23.6511C69.5603 23.6167 69.6103 23.5233 69.6752 23.4496C69.8106 23.2923 69.856 22.5699 69.7257 22.5699C69.6706 22.5699 69.4546 22.334 69.45 22.2652C69.45 22.2456 69.5449 22.1178 69.6654 21.9753C69.836 21.7689 69.876 21.6755 69.856 21.538C69.8406 21.3905 69.856 21.3512 69.9612 21.3021C70.0363 21.2775 70.1369 21.2676 70.1817 21.2824C70.242 21.307 70.2369 21.2824 70.1566 21.1841C70.1014 21.1104 70.0066 21.0367 69.9463 21.0219C69.8009 20.9678 69.8106 20.7025 69.9612 20.5256C70.1014 20.3634 70.2017 19.6804 70.0914 19.6312C69.9912 19.587 70.0617 19.1152 70.1817 19.0415C70.3323 18.958 70.3172 18.8449 70.1517 18.8892C70.0617 18.9137 69.9709 18.8842 69.886 18.8056C69.7657 18.6975 69.7606 18.6778 69.8406 18.6091C70.0014 18.4714 70.0066 18.2749 69.8509 18.2011C69.7503 18.152 69.7154 18.0979 69.7354 18.0144C69.7854 17.8129 69.6552 17.4689 69.54 17.4689C69.4797 17.4689 69.3949 17.3903 69.3346 17.2871C69.2794 17.1839 69.1737 17.0856 69.0986 17.0709C68.8129 17.0119 68.562 16.8202 68.532 16.6434C68.5172 16.5352 68.4517 16.4418 68.3717 16.4074C68.2863 16.373 68.2512 16.3091 68.2663 16.2452C68.2817 16.1765 68.2266 16.093 68.1009 16.0045C67.9406 15.8915 67.9106 15.8276 67.9203 15.6703C67.9306 15.4394 67.8354 15.3018 67.6046 15.2379L67.4292 15.1887L67.3937 14.6039C67.3386 13.6948 67.1732 13.1296 66.8423 12.6726C66.6917 12.4662 66.6569 12.5351 66.7223 12.9233C66.782 13.2623 66.752 13.7439 66.6517 13.8717C66.612 13.9208 66.5366 13.9159 66.366 13.8275C66.2357 13.7685 66.0249 13.6948 65.9049 13.6702C65.7843 13.6457 65.5586 13.5474 65.4086 13.454C65.258 13.3557 65.0123 13.2673 64.8717 13.2427C64.7263 13.223 64.566 13.169 64.516 13.1297C64.4609 13.0756 64.26 13.0462 63.9794 13.0314C63.7389 13.0265 63.5132 13.0068 63.478 12.9872C63.4477 12.9773 63.2174 12.9626 62.9566 12.9675C62.5803 12.9724 62.47 12.9576 62.3897 12.8692C62.2391 12.707 61.994 12.6136 61.8132 12.653C61.7229 12.6726 61.4723 12.8348 61.2669 13.0068C60.9257 13.2869 60.8457 13.3213 60.6252 13.3213C60.4494 13.3164 60.3643 13.2918 60.354 13.223C60.3392 13.11 59.7974 13.0953 59.7526 13.2132C59.7423 13.2574 59.6469 13.282 59.542 13.2722C59.4414 13.2672 59.2714 13.282 59.176 13.3066C59.0106 13.3508 58.9906 13.3361 58.9906 13.2279C58.9906 13.1346 58.9303 13.0706 58.7594 13.0019C58.574 12.9183 58.5337 12.8741 58.5643 12.7709C58.5792 12.6922 58.5292 12.5449 58.4286 12.3778C58.3334 12.2303 58.258 12.0681 58.258 12.019C58.258 11.9699 58.1732 11.8126 58.0674 11.6799C57.852 11.3949 57.6769 10.992 57.7166 10.874C57.732 10.8298 57.7166 10.7806 57.6866 10.761C57.6514 10.7414 57.5814 10.6086 57.516 10.471C57.3357 10.0632 57.2352 9.88624 57.1903 9.88624C57.1003 9.88624 56.6637 9.22282 56.6889 9.11472C56.7037 9.04099 56.6537 8.97709 56.5383 8.9132C56.4483 8.86403 56.3626 8.76579 56.3529 8.70193C56.3431 8.63313 56.2374 8.51519 56.1272 8.42673C55.8663 8.2449 55.33 7.94021 55.2549 7.94021C55.2097 7.94021 53.896 7.27678 53.5652 7.08515C53.51 7.05565 53.4346 7.05072 53.3894 7.06546C53.3443 7.08512 53.2691 7.03599 53.2191 6.95245C53.1489 6.83942 53.0937 6.81976 52.9383 6.83942C52.798 6.85909 52.7126 6.83449 52.6326 6.74603C52.5571 6.6674 52.4269 6.62316 52.2463 6.61333C52.096 6.60843 51.9406 6.57893 51.9054 6.55437C51.8754 6.52487 51.7349 6.47573 51.5946 6.44133C51.454 6.40694 51.2386 6.34304 51.1132 6.30867C50.9877 6.27424 50.8123 6.23006 50.7171 6.2153C50.2857 6.16617 49.8446 6.0679 49.7291 6.004C49.644 5.95487 49.5589 5.95487 49.4534 5.99417C49.3583 6.02857 49.2629 6.02857 49.1977 5.99417C49.1477 5.96467 49.0223 5.93517 48.922 5.93517C48.8217 5.93517 48.7163 5.91061 48.6863 5.88604C48.5911 5.81234 47.2323 5.82707 47.0869 5.89587C46.9814 5.95487 46.9214 5.94991 46.776 5.86638C46.6154 5.78281 46.2243 5.73368 45.9486 5.76808C45.9034 5.77298 45.8231 5.75828 45.7783 5.73861C45.738 5.67474 45.6529 5.69931 45.5926 5.74844ZM39.0994 41.2294C39.0994 41.2884 39.0543 41.3523 39.004 41.362C38.9037 41.3816 38.8586 41.1998 38.944 41.1066C39.0091 41.0428 39.0994 41.1114 39.0994 41.2294ZM40.3029 43.7602C40.2777 43.9372 40.0871 43.9911 40.0871 43.8192C40.0871 43.6864 40.1323 43.6226 40.2374 43.6226C40.2877 43.6226 40.3129 43.6716 40.3029 43.7602Z" fill="#FFFEFE"/>
</svg>
