<svg width="63" height="46" viewBox="0 0 63 46" fill="none" xmlns="http://www.w3.org/2000/svg">
<path d="M37.5926 0.748443C37.4623 0.856572 37.2717 0.871278 37.1866 0.777912C37.1463 0.73368 37.056 0.748443 36.8857 0.822172C36.69 0.905706 36.5897 0.920412 36.3543 0.866376C36.1637 0.822144 36.0383 0.822144 35.978 0.866376C35.918 0.910608 35.8326 0.900803 35.7023 0.856571C35.5517 0.802535 35.4969 0.807409 35.4266 0.876208C35.3211 0.979407 34.5391 0.959741 34.4389 0.851641C34.3486 0.753345 34.0777 0.77794 34.0226 0.886041C33.9774 0.969574 33.9423 0.979435 33.7869 0.920469C33.6666 0.871306 33.5714 0.871306 33.506 0.910607C33.456 0.940105 33.3909 0.945036 33.3709 0.930301C33.3557 0.905706 33.2754 0.925342 33.2003 0.964643C33.1 1.02361 33.0349 1.02364 32.9446 0.974505C32.8594 0.92044 32.734 0.925342 32.4783 0.974505C32.2826 1.01871 31.9717 1.05314 31.7863 1.05804C31.6009 1.06297 31.3951 1.10227 31.3351 1.13177C31.2749 1.16617 31.0994 1.21527 30.9389 1.23494C30.7886 1.2595 30.4426 1.3578 30.1769 1.45117C29.7606 1.59863 29.2443 1.71163 28.9231 1.72636C28.8731 1.72636 28.808 1.74603 28.788 1.7706C28.7629 1.80009 28.6877 1.81976 28.6123 1.81976C28.5371 1.81976 28.4369 1.8443 28.3817 1.87379C28.3317 1.90326 28.1311 1.97209 27.9454 2.03106C27.76 2.08512 27.5394 2.16865 27.454 2.21779C27.3737 2.26692 27.2586 2.30135 27.1934 2.30135C27.1383 2.30135 27.0129 2.36032 26.9226 2.43405C26.7823 2.56181 26.5014 2.66008 25.97 2.76821C25.8797 2.78787 25.7443 2.85174 25.684 2.92054C25.614 2.98934 25.5137 3.03354 25.4586 3.02864C25.248 2.99914 24.9671 3.10727 24.9471 3.22521C24.922 3.30877 24.8617 3.33336 24.6663 3.33336C24.5309 3.33336 24.3503 3.36773 24.2651 3.4169C24.18 3.46603 24.0043 3.52497 23.8891 3.54463C23.7637 3.56923 23.6383 3.61346 23.6083 3.63803C23.4729 3.7412 22.9966 3.89353 22.9014 3.86403C22.8463 3.8444 22.7409 3.86899 22.6857 3.91813C22.5603 4.01152 22.0189 4.11466 21.4171 4.15892C21.2066 4.16876 20.976 4.21296 20.8957 4.24246C20.8154 4.27195 20.5897 4.31619 20.3892 4.34075C20.1837 4.36535 19.9931 4.41938 19.958 4.46359C19.9229 4.51272 19.8126 4.54718 19.7173 4.54718C19.602 4.54718 19.5117 4.59135 19.4667 4.67001C19.4265 4.73881 19.3463 4.79291 19.2861 4.79291C19.231 4.79291 19.1507 4.84198 19.1207 4.89605C18.9602 5.19581 18.89 5.23514 18.5691 5.25974C18.3886 5.26954 18.0827 5.35307 17.8922 5.43664C17.7017 5.51527 17.5212 5.58407 17.4911 5.58407C17.461 5.58407 17.3607 5.6283 17.2755 5.67746C17.1852 5.72659 17.0498 5.77085 16.9696 5.77085C16.6988 5.77573 16.2225 5.92809 16.1573 6.03126C16.0621 6.16886 15.7161 6.31629 14.8085 6.60625C13.8809 6.90601 13.3996 7.01411 12.4469 7.12714C10.9978 7.30897 10.1705 7.64804 8.7114 8.68002C8.34035 8.94051 8.18992 8.99945 7.80889 9.07315C7.55312 9.12228 7.13197 9.23041 6.8662 9.31397C6.60043 9.39751 6.20935 9.51544 5.99377 9.56457C5.77815 9.61374 5.48735 9.73663 5.34692 9.82506C5.20652 9.92336 4.98092 10.0364 4.84052 10.0757C4.70009 10.1199 4.49957 10.2133 4.39929 10.292C4.304 10.3755 4.13352 10.4738 4.03323 10.5081C3.86774 10.5671 3.62209 10.7244 3.0354 11.1421C2.23817 11.7072 1.38077 13.1176 1.20026 14.1692C1.1752 14.2823 1.12506 14.4101 1.07992 14.4543C1.0348 14.4887 0.999716 14.6165 0.999716 14.7344C0.999716 14.8867 0.939545 15.0391 0.789116 15.2553C0.648716 15.4568 0.608602 15.555 0.673773 15.5206C0.774059 15.4764 0.809173 15.5698 0.713887 15.6288C0.683802 15.6484 0.628659 15.7271 0.588545 15.8008C0.533402 15.9138 0.538402 15.9286 0.613602 15.8549C0.774059 15.7222 0.789116 15.8794 0.663745 16.2676C0.593573 16.4692 0.54343 16.6755 0.54343 16.7296C0.54343 16.8918 0.648716 16.7591 0.718916 16.5134C0.75903 16.3807 0.83423 16.2283 0.894402 16.1743C0.989687 16.076 0.994687 16.076 0.994687 16.2038C0.994687 16.2824 0.919487 16.5183 0.824202 16.7394C0.638687 17.1768 0.593573 17.4962 0.738973 17.3635C0.789116 17.3193 0.839259 17.2947 0.854287 17.3144C0.894402 17.3586 0.89943 18.3906 0.859316 18.7346L0.824202 19.0344L0.919487 18.8329C0.96963 18.7297 1.02477 18.6363 1.04483 18.6363C1.12003 18.6363 1.09997 19.3096 1.01977 19.511C0.97463 19.6241 0.934516 19.7715 0.934516 19.8305C0.934516 19.9238 0.949573 19.914 1.02477 19.801C1.16017 19.5897 1.23534 19.6388 1.19526 19.9042C1.1802 20.0369 1.19026 20.2088 1.22534 20.2875C1.27046 20.4005 1.26046 20.4988 1.17017 20.7495C1.09997 20.9264 1.04983 21.1131 1.04983 21.1623C1.04983 21.3146 1.15012 21.1966 1.19026 21.005C1.21532 20.9067 1.2504 20.8035 1.28549 20.7887C1.36074 20.7396 1.44597 20.8723 1.44597 21.0394C1.44597 21.1622 1.09497 21.8207 0.909459 22.0419C0.854287 22.1107 0.83423 22.1647 0.869345 22.1647C0.90443 22.1647 1.01474 22.0664 1.11003 21.9534C1.21032 21.8404 1.3156 21.7421 1.34063 21.7421C1.41089 21.7421 1.34063 22.1008 1.24034 22.2729C1.19526 22.3466 1.16017 22.4793 1.16017 22.5628C1.16017 22.6463 1.10497 22.838 1.0348 22.9756C0.964602 23.1132 0.874345 23.3098 0.82923 23.413L0.754002 23.59L0.90443 23.4424C0.984659 23.3589 1.09497 23.1918 1.15512 23.0788C1.28549 22.8036 1.46603 22.6316 1.57132 22.6709C1.62146 22.6955 1.6666 22.6611 1.69166 22.5873C1.71674 22.5186 1.78694 22.435 1.85212 22.4055C1.92232 22.3711 2.0226 22.2581 2.07774 22.15C2.21312 21.8994 2.34346 20.7838 2.35852 19.801L2.36354 19.0442L2.0928 18.4496C1.86212 17.9434 1.81197 17.7763 1.77189 17.3586C1.59134 15.2946 1.93232 13.5992 2.71452 12.6999C2.95523 12.4198 3.64714 11.9726 3.83266 11.9726C3.96803 11.9726 3.93794 12.1446 3.75746 12.4542C3.56189 12.7884 3.11566 13.953 2.95523 14.5575C2.89503 14.7885 2.8148 15.3585 2.77969 15.8155C2.70952 16.6215 2.71954 16.6854 2.86494 17.5748C2.97023 18.199 3.13072 18.8526 3.35632 19.5651C3.70732 20.6954 3.90286 21.177 4.53966 22.4793C4.98592 23.3982 5.33192 24.563 5.33192 25.1623C5.33192 25.7571 5.12629 26.4599 4.78035 27.0644C4.299 27.8949 3.57694 28.7941 3.0354 29.2264C2.77469 29.4379 2.72454 29.5066 2.62426 29.8754C2.55409 30.1014 2.48389 30.5289 2.4538 30.8335C2.42369 31.143 2.3234 31.6492 2.22817 31.9735C2.00252 32.7305 1.88723 33.3692 1.88723 33.9098C1.88723 34.1506 1.79694 34.9073 1.69166 35.5808C1.53123 36.5783 1.46097 36.8878 1.3156 37.1924C1.1852 37.4774 1.13006 37.6986 1.09497 38.0868C1.06489 38.3718 0.994687 38.7551 0.934516 38.9369C0.874345 39.1188 0.784087 39.4286 0.728945 39.6152C0.683802 39.8019 0.613602 39.9789 0.588545 39.9986C0.493287 40.0575 0.102173 40.7162 0.0370013 40.9225C0.00188703 41.0257 -0.00814152 41.173 0.00691562 41.2369C0.0319728 41.3452 0.0821161 41.3648 0.317773 41.3648C0.658745 41.3648 0.784087 41.4335 0.89943 41.6695C1.02477 41.9249 1.00472 42.6032 0.869345 43.0355C0.673773 43.65 0.718916 43.7825 1.14012 43.8366L1.43592 43.8708V44.1806C1.43592 44.5737 1.57132 44.8193 1.9022 45.026C2.33346 45.301 2.71452 45.3699 3.73237 45.3699C4.64494 45.3699 4.64995 45.3699 4.74523 45.2175C4.79537 45.1388 4.89066 45.0553 4.9558 45.0308C5.10623 44.9815 5.16643 44.898 5.16643 44.7162C5.16643 44.564 4.92577 44.1462 4.7202 43.9447C4.64995 43.8857 4.47946 43.6252 4.33409 43.3698C4.01817 42.8192 3.79257 42.5442 3.5168 42.3917C3.40146 42.3327 3.29617 42.2295 3.28114 42.1757C3.15574 41.7482 3.07557 41.0747 3.07557 40.4802C3.07557 39.8857 3.11566 39.5859 3.35632 38.3424C3.63714 36.8978 3.85272 36.1901 4.41932 34.8483C4.88063 33.7625 5.8584 32.3668 6.5754 31.7623C7.04169 31.3742 7.23726 31.1727 7.5732 30.7155C7.79383 30.4257 7.89912 30.3125 7.94426 30.3619C7.98435 30.406 7.98435 30.6762 7.9392 31.261C7.89412 31.9048 7.83392 32.2733 7.67349 32.8582C7.42277 33.777 7.37763 34.121 7.47792 34.3225C7.52306 34.4012 7.74869 34.7551 7.97935 35.104C8.21497 35.4576 8.7766 36.4209 9.22783 37.2614C9.67409 38.0919 10.2708 39.2025 10.5565 39.7232C11.1432 40.7849 12.0007 42.5048 12.0959 42.8095C12.1411 42.9569 12.146 43.188 12.1059 43.6155C12.0307 44.446 12.0357 44.4557 12.7277 44.5836C13.1789 44.6671 13.3294 44.7703 13.3895 45.026C13.4297 45.1881 13.4949 45.2568 13.886 45.4631L14.3322 45.704L15.2899 45.7236C16.3629 45.7481 16.8092 45.704 16.9245 45.586C16.9646 45.537 17.0197 45.4041 17.0398 45.2813C17.0899 45.0063 16.9947 44.7851 16.5283 44.0527C16.1723 43.5072 16.0721 43.3895 15.6108 43.0307C15.3501 42.8292 14.4726 41.8217 13.9611 41.1485C13.4698 40.495 12.477 38.7699 12.1962 38.0771C11.7299 36.9419 11.6948 36.7059 11.6897 34.8631C11.6897 33.4823 11.6998 33.2318 11.78 33.1038C11.8302 33.0203 11.8853 32.814 11.9054 32.6467C11.9204 32.4748 11.9605 32.1653 11.9956 31.949C12.0257 31.7327 12.0809 31.1037 12.1159 30.5534C12.2112 29.0104 12.2864 28.5778 12.8029 26.7253C13.0436 25.87 13.1739 25.5114 13.2541 25.5114C13.4949 25.5114 15.0543 26.6269 16.5735 27.8849C17.6465 28.7844 18.1479 29.1429 18.6644 29.3985C19.7424 29.9341 19.9831 30.0962 20.1185 30.3519C20.1887 30.4847 20.2639 30.7893 20.2939 31.0154C20.3441 31.4329 20.61 32.2537 20.6951 32.2537C20.7203 32.2537 20.7703 32.116 20.8106 31.949C20.8606 31.713 20.8957 31.6592 20.9509 31.7082C21.0411 31.7868 21.1111 31.6985 21.2014 31.3987C21.2366 31.2855 21.342 31.1234 21.4323 31.0447C21.5226 30.9712 21.6429 30.8483 21.688 30.7697C21.8083 30.573 21.7129 30.3029 21.4471 30.0914C21.332 29.9931 21.2217 29.8899 21.1966 29.8605C21.1111 29.7326 21.1563 29.5755 21.2869 29.5214C21.362 29.492 21.4371 29.4379 21.4623 29.4082C21.5074 29.3247 21.7331 29.3247 21.8131 29.4082C21.8634 29.4624 21.9186 29.4427 22.044 29.3492C22.1391 29.2757 22.2546 29.2412 22.2997 29.256C22.3497 29.2757 22.44 29.256 22.5151 29.2216C22.5854 29.1774 22.8211 29.1381 23.0417 29.1232C23.4477 29.0987 23.6434 29.0446 23.9391 28.8727C24.0346 28.8186 24.1649 28.7941 24.26 28.8137C24.3503 28.8382 24.4557 28.8137 24.5209 28.7647C24.5811 28.7154 24.6863 28.6957 24.7514 28.7106C24.8266 28.7351 24.9169 28.7006 24.9823 28.6271C25.0523 28.5532 25.2429 28.4797 25.4786 28.4304C25.8046 28.3714 25.9349 28.3714 26.3009 28.4549C26.6469 28.5336 26.7671 28.5336 26.8926 28.4797C26.9777 28.4452 27.2034 28.4059 27.3889 28.3959C28.3869 28.3421 28.5571 28.3666 28.4369 28.5188C28.3466 28.6416 28.4117 28.6712 28.6474 28.6122C28.9934 28.5287 29.1789 28.5532 29.4697 28.7106C29.6203 28.7941 29.7806 28.8628 29.8257 28.8628C29.866 28.8628 29.9009 28.8924 29.9009 28.9317C29.9009 28.9759 29.9511 28.9856 30.0263 28.9662C30.0866 28.9465 30.2169 28.971 30.3123 29.0201C30.4526 29.0987 30.4726 29.1429 30.4426 29.2954L30.4126 29.4724L30.8686 29.4527C31.2849 29.4427 31.33 29.4476 31.4051 29.5755C31.4554 29.6539 31.5406 29.7129 31.6009 29.7129C31.656 29.7129 31.8214 29.7819 31.9617 29.8654C32.1023 29.9489 32.2877 30.0176 32.378 30.0176C32.4731 30.0176 32.5534 30.0375 32.5534 30.062C32.5586 30.0914 32.5686 30.17 32.5786 30.2387C32.5834 30.3125 32.6086 30.396 32.6286 30.4402C32.6537 30.4747 32.6186 30.6221 32.5586 30.7745C32.4983 30.9219 32.4583 31.1085 32.4731 31.1872C32.5083 31.3839 32.398 31.6147 32.1023 31.9784C31.9717 32.1308 31.8714 32.2782 31.8714 32.293C31.8714 32.3127 31.9517 32.3127 32.042 32.2882C32.368 32.2192 32.2126 32.4845 31.7011 32.8482C31.4854 33.0055 31.3049 33.158 31.3049 33.1825C31.3049 33.2118 31.1997 33.3546 31.0691 33.492L30.8286 33.7428L31.014 33.6986C31.2397 33.6493 31.2449 33.7231 31.0443 34.0916C30.8086 34.5291 30.6883 35.5414 30.8537 35.7575C30.9037 35.8264 30.9037 35.8903 30.8386 36.0621C30.7886 36.1901 30.7786 36.2933 30.8086 36.3129C30.8386 36.3374 30.8586 36.4161 30.8586 36.4948C30.8586 36.5931 30.8989 36.647 30.994 36.6715C31.1143 36.7011 31.1346 36.7501 31.1546 36.9713L31.1694 37.2269L31.3049 36.9961C31.4806 36.6911 31.5757 36.7798 31.4854 37.1582C31.36 37.6889 31.3951 37.8953 31.656 38.1706C31.7963 38.3228 31.8714 38.4504 31.8514 38.5146C31.8414 38.5684 31.8063 38.7306 31.7914 38.8731C31.7563 39.1091 31.7611 39.1336 31.8714 39.1336C31.9317 39.1336 31.9969 39.1581 32.0169 39.1926C32.032 39.2222 32.0871 39.2367 32.1323 39.2122C32.1923 39.1877 32.2174 39.2222 32.2174 39.3351C32.2174 39.5662 32.2877 39.866 32.3377 39.866C32.3629 39.866 32.388 39.7626 32.398 39.6397C32.408 39.4776 32.4431 39.404 32.5183 39.3892C32.5786 39.3792 32.6137 39.4089 32.6137 39.4875C32.6137 39.5611 32.6637 39.6201 32.734 39.6397C32.8243 39.6642 32.8391 39.7087 32.8143 39.8019C32.774 39.9299 32.7791 39.9299 32.9146 39.8315C32.9946 39.7774 33.15 39.5807 33.2706 39.3989C33.3857 39.2171 33.486 39.0697 33.496 39.0697C33.5011 39.0697 33.5863 39.1484 33.6817 39.2467C33.7869 39.3547 33.8571 39.4824 33.8571 39.5807C33.8571 39.689 33.8823 39.7284 33.9374 39.7036C34.0074 39.6791 34.0174 39.7874 33.9974 40.3574C33.9826 41.124 33.9474 41.3646 33.802 41.8955C33.3957 43.3698 33.3957 43.4091 33.8069 43.4188C33.9274 43.4188 34.0626 43.4533 34.0929 43.4927C34.168 43.5713 34.178 43.8956 34.1077 44.2738C34.0577 44.5885 34.148 44.7655 34.4837 44.9963C34.9803 45.3355 35.4414 45.4583 36.3991 45.4876C37.2266 45.5221 37.2869 45.5173 37.3871 45.4041C37.4423 45.3355 37.5526 45.2471 37.6226 45.2075C37.708 45.1585 37.748 45.0798 37.748 44.9718C37.748 44.7458 37.4423 43.8612 37.2366 43.463C37.1463 43.2912 37.0711 43.119 37.0711 43.0748C37.0711 43.0307 36.9457 42.6964 36.7954 42.323C36.5397 41.7088 36.5097 41.576 36.4294 40.829C36.3091 39.7429 36.3591 39.2122 36.67 38.2489C37.046 37.0696 37.3771 36.2146 37.4471 36.2146C37.4823 36.2146 37.5626 36.3523 37.6226 36.5241C37.6929 36.7305 37.7431 36.8043 37.7631 36.7404C37.8131 36.6028 38.1691 36.7356 38.2494 36.9174C38.2846 36.9961 38.3297 37.0648 38.3549 37.0648C38.3797 37.0648 38.4451 37.1631 38.5003 37.2759C38.5603 37.3891 38.6457 37.4874 38.6906 37.4874C38.7309 37.4874 38.7809 37.5413 38.796 37.6103C38.8111 37.6789 38.8563 37.7331 38.8963 37.7331C38.9414 37.7331 38.9866 37.7821 39.0017 37.8411C39.0417 37.9691 39.2874 38.1803 39.468 38.2441C39.548 38.2686 39.5983 38.2541 39.6183 38.1902C39.6686 38.0426 39.7637 38.0868 39.834 38.2834C39.874 38.4162 39.9191 38.4604 39.9843 38.4359C40.0546 38.4114 40.1046 38.4456 40.1449 38.5391C40.2 38.6767 40.2 38.6767 40.2903 38.4898C40.3954 38.2638 40.4657 38.2296 40.7114 38.2638C40.8717 38.2934 40.892 38.3179 40.892 38.4898C40.8969 38.7061 40.9971 38.8831 41.1074 38.8486C41.1477 38.8289 41.1777 38.8782 41.1777 38.9763C41.1777 39.2271 41.2729 39.2122 41.3683 38.9517C41.4183 38.8192 41.4937 38.7109 41.5337 38.7109C41.6189 38.7109 41.7443 38.9617 41.7443 39.1384C41.7443 39.2074 41.8046 39.3203 41.8846 39.4038C42.0451 39.5759 42.0351 39.6004 42.0551 39.0256C42.0603 38.7651 42.1754 38.5981 42.2757 38.7109C42.3057 38.7406 42.3811 38.7354 42.4663 38.7061C42.5466 38.6767 42.6417 38.6571 42.682 38.6767C42.7172 38.6864 42.762 38.6519 42.7771 38.5832C42.8123 38.4359 42.9829 38.4308 43.0177 38.5736C43.0329 38.6323 43.0732 38.7306 43.1032 38.7847C43.1883 38.9569 43.1631 39.1188 43.0129 39.4382C42.9326 39.6004 42.8726 39.8019 42.8726 39.8757C42.8726 39.9544 42.8323 40.0821 42.7823 40.1559C42.6569 40.3425 42.6969 40.3671 42.9977 40.2836C43.4991 40.1362 43.5694 40.3574 43.2134 41.0257C43.088 41.2614 42.9877 41.4925 42.9877 41.5367C42.9877 41.6399 43.2034 41.812 43.3389 41.812C43.4691 41.812 43.6094 42.0429 43.6094 42.2689C43.6094 42.3672 43.5594 42.5983 43.4943 42.775L43.3789 43.0897L43.5894 43.3402C43.9103 43.7235 44.3366 43.9153 45.3546 44.1462C45.5852 44.1952 45.926 44.2542 46.1014 44.279C46.3974 44.3132 46.4326 44.3035 46.5629 44.1658C46.6432 44.0823 46.7734 43.9888 46.8637 43.9595C47.0843 43.8808 47.0894 43.7286 46.8789 43.1093C46.628 42.382 46.4877 41.6744 46.4826 41.2272C46.4826 41.0208 46.4226 40.5637 46.3423 40.2149C46.262 39.8609 46.2017 39.4334 46.2017 39.2564C46.2017 38.6374 46.1566 38.5291 45.6554 37.8363C45.0334 36.9861 45.0234 36.9664 44.9283 36.5831C44.7577 35.9296 44.7326 35.6101 44.828 35.4576C44.8731 35.3793 44.8983 35.2858 44.8731 35.2513C44.858 35.222 44.8329 34.9221 44.828 34.6026C44.8229 34.1703 44.7929 33.9588 44.7126 33.8066C44.6223 33.6248 44.6223 33.5558 44.6774 33.217C44.7177 33.0055 44.7326 32.7895 44.7177 32.7353C44.6926 32.6863 44.7077 32.6322 44.7326 32.6125C44.7677 32.588 44.788 32.4993 44.788 32.4062C44.788 32.3127 44.848 32.0473 44.9283 31.8162C45.0086 31.5854 45.0686 31.3494 45.0686 31.2955C45.0686 31.094 45.3094 30.573 45.3894 30.6027C45.4397 30.6272 45.4649 30.5827 45.4649 30.4796C45.4649 30.3764 45.51 30.3174 45.6052 30.2732C45.6854 30.2439 45.7454 30.1749 45.7454 30.1356C45.7454 30.0324 45.926 29.8506 46.0263 29.8506C46.0766 29.8506 46.0866 29.9096 46.0666 30.0669C46.0414 30.2191 46.0563 30.2732 46.1014 30.2535C46.1417 30.2439 46.1769 30.1749 46.1869 30.1062C46.1969 30.0324 46.2569 29.9292 46.3172 29.8702C46.4326 29.7622 46.4374 29.7622 46.5477 29.9244C46.6731 30.1062 46.7734 30.1307 46.8737 29.9982C46.9137 29.944 46.9891 29.9195 47.0443 29.9392C47.0943 29.9589 47.1797 29.9195 47.2397 29.8457C47.4003 29.659 47.6406 29.541 47.716 29.6197C47.756 29.6639 47.806 29.6539 47.8814 29.5852C47.9969 29.4772 48.4029 29.4379 48.4029 29.5411C48.4029 29.6739 48.5483 29.5852 48.8394 29.2657C49.01 29.0839 49.1652 28.9317 49.2 28.9317C49.2352 28.9317 49.2403 29.0152 49.2151 29.1429C49.1754 29.3789 49.2151 29.4034 49.3757 29.2512C49.4711 29.1577 49.4809 29.1577 49.5512 29.256C49.6114 29.3544 49.6314 29.3396 49.7217 29.1429C49.8423 28.8776 49.9474 28.9169 49.902 29.2216L49.872 29.4476L49.9572 29.2512C50.0926 28.9366 50.3937 28.8434 50.2834 29.1529C50.2483 29.2561 50.2483 29.2561 50.3637 29.1529C50.504 29.0201 50.5494 29.0742 50.5494 29.3689V29.6049L50.7297 29.4182C50.8252 29.315 50.9249 29.2315 50.9503 29.2315C51.0306 29.2315 51.0657 29.4379 51.0254 29.7032C50.9906 29.9589 50.9906 29.9637 51.106 29.8899C51.2057 29.8212 51.2409 29.8212 51.3266 29.9096C51.3817 29.9589 51.4614 29.9882 51.5017 29.9785C51.5472 29.9589 51.5717 30.0275 51.5717 30.1897C51.5717 30.3274 51.6069 30.465 51.6574 30.5043C51.7526 30.5879 51.7526 30.5975 51.8429 30.3667C51.928 30.1604 52.0783 30.1504 52.0783 30.3567C52.0783 30.4402 52.1083 30.5092 52.1386 30.5092C52.1789 30.5092 52.1834 30.6075 52.1537 30.7842C52.1134 31.0692 52.1537 31.1234 52.2789 30.9464C52.334 30.8629 52.3643 30.8532 52.4194 30.9219C52.4746 30.976 52.4791 31.035 52.424 31.1972C52.3846 31.3052 52.354 31.487 52.354 31.6002C52.354 31.772 52.3643 31.7965 52.4397 31.7279C52.5849 31.6002 52.6252 31.7182 52.5297 32.0032C52.4443 32.2537 52.4494 32.2782 52.5343 32.3472C52.5894 32.3913 52.67 32.5239 52.7154 32.637C52.7603 32.7598 52.8554 32.8926 52.9309 32.9368C53.0157 32.9858 53.0963 33.1138 53.1414 33.2808C53.1817 33.4282 53.2669 33.5806 53.322 33.6148C53.3772 33.6445 53.4723 33.7722 53.5374 33.8998C53.5926 34.023 53.7029 34.18 53.7683 34.2438C53.8383 34.3128 53.9337 34.4456 53.9789 34.534C54.0537 34.6913 54.0692 34.6961 54.1289 34.6075C54.2294 34.4601 54.3949 34.5633 54.6154 34.9122C54.8009 35.2023 54.8712 35.2562 54.8112 35.0695C54.756 34.8731 54.9014 34.8435 55.0366 35.0253L55.1572 35.1826L55.2323 34.8828C55.2726 34.7206 55.3626 34.5143 55.438 34.4257C55.5132 34.3422 55.5832 34.2145 55.6086 34.1458C55.6637 33.9491 55.794 33.9982 55.8389 34.239C55.864 34.3915 55.8992 34.4505 55.9794 34.4505C56.0549 34.4505 56.0846 34.406 56.0846 34.3128C56.0846 34.0623 56.1549 33.905 56.26 33.905C56.3154 33.905 56.3954 33.846 56.4306 33.7673C56.4706 33.6935 56.5712 33.551 56.6666 33.4527C56.9469 33.148 57.0423 32.8337 57.0772 32.1063C57.1026 31.6147 57.1477 31.3593 57.2477 31.0792C57.4183 30.6172 57.4683 30.0766 57.3932 29.4772C57.3334 28.9662 57.3631 28.8679 57.604 28.8679C57.89 28.8679 58.3209 28.6909 58.6269 28.4404C58.7923 28.3076 58.9726 28.1996 59.0226 28.1996C59.0777 28.1996 59.1834 28.1502 59.2534 28.0864C59.3289 28.0274 59.4791 27.9536 59.5843 27.9291C59.9354 27.8504 60.2966 27.6099 60.5269 27.3101C60.9232 26.7988 60.9232 26.7988 60.8532 25.5901C60.8383 25.2361 60.7929 24.8725 60.7577 24.7741C60.7026 24.6219 60.7077 24.5875 60.8129 24.4891C60.9634 24.3615 61.0283 24.0716 60.9434 23.9043C60.9032 23.8208 60.9032 23.7176 60.9486 23.5455C60.9834 23.4179 61.0186 23.241 61.0237 23.1574C61.0283 23.0739 61.0386 22.9461 61.0386 22.8773C61.0486 22.7839 61.1186 22.7151 61.2692 22.6512C61.5297 22.5382 61.6654 22.2434 61.5246 22.1156C61.4694 22.0616 61.4449 21.9436 61.4546 21.7323C61.4694 21.4669 61.4897 21.4227 61.6154 21.3932C61.7809 21.349 61.8509 21.0885 61.7003 21.0885C61.5649 21.0885 61.2794 20.8919 61.2794 20.8035C61.2794 20.7691 61.2392 20.7052 61.1937 20.6758C61.0537 20.5971 61.1692 20.1303 61.3794 19.9337C61.5449 19.7862 61.5649 19.629 61.4246 19.629C61.3643 19.629 61.0186 19.4717 60.9486 19.4128C60.9083 19.3833 61.0537 19.1474 61.114 19.1474C61.1937 19.1474 61.5603 18.7395 61.5603 18.6511C61.5603 18.6167 61.6103 18.5233 61.6752 18.4496C61.8106 18.2923 61.856 17.5699 61.7257 17.5699C61.6706 17.5699 61.4546 17.334 61.45 17.2652C61.45 17.2456 61.5449 17.1178 61.6654 16.9753C61.836 16.7689 61.876 16.6755 61.856 16.538C61.8406 16.3905 61.856 16.3512 61.9612 16.3021C62.0363 16.2775 62.1369 16.2676 62.1817 16.2824C62.242 16.307 62.2369 16.2824 62.1566 16.1841C62.1014 16.1104 62.0066 16.0367 61.9463 16.0219C61.8009 15.9678 61.8106 15.7025 61.9612 15.5256C62.1014 15.3634 62.2017 14.6804 62.0914 14.6312C61.9912 14.587 62.0617 14.1152 62.1817 14.0415C62.3323 13.958 62.3172 13.8449 62.1517 13.8892C62.0617 13.9137 61.9709 13.8842 61.886 13.8056C61.7657 13.6975 61.7606 13.6778 61.8406 13.6091C62.0014 13.4714 62.0066 13.2749 61.8509 13.2011C61.7503 13.152 61.7154 13.0979 61.7354 13.0144C61.7854 12.8129 61.6552 12.4689 61.54 12.4689C61.4797 12.4689 61.3949 12.3903 61.3346 12.2871C61.2794 12.1839 61.1737 12.0856 61.0986 12.0709C60.8129 12.0119 60.562 11.8202 60.532 11.6434C60.5172 11.5352 60.4517 11.4418 60.3717 11.4074C60.2863 11.373 60.2512 11.3091 60.2663 11.2452C60.2817 11.1765 60.2266 11.093 60.1009 11.0045C59.9406 10.8915 59.9106 10.8276 59.9203 10.6703C59.9306 10.4394 59.8354 10.3018 59.6046 10.2379L59.4292 10.1887L59.3937 9.60393C59.3386 8.69478 59.1732 8.12963 58.8423 7.67257C58.6917 7.46621 58.6569 7.53506 58.7223 7.92326C58.782 8.26232 58.752 8.74392 58.6517 8.87171C58.612 8.92084 58.5366 8.91591 58.366 8.82748C58.2357 8.76848 58.0249 8.69478 57.9049 8.67025C57.7843 8.64568 57.5586 8.54735 57.4086 8.45402C57.258 8.35572 57.0123 8.26728 56.8717 8.24269C56.7263 8.22302 56.566 8.16899 56.516 8.12969C56.4609 8.07559 56.26 8.04615 55.9794 8.03139C55.7389 8.02646 55.5132 8.00679 55.478 7.98716C55.4477 7.9773 55.2174 7.96256 54.9566 7.96746C54.5803 7.97237 54.47 7.9576 54.3897 7.86917C54.2391 7.70697 53.994 7.61364 53.8132 7.65299C53.7229 7.67263 53.4723 7.83482 53.2669 8.00679C52.9257 8.28692 52.8457 8.32126 52.6252 8.32126C52.4494 8.31636 52.3643 8.29182 52.354 8.22302C52.3392 8.10999 51.7974 8.09526 51.7526 8.21319C51.7423 8.25736 51.6469 8.28196 51.542 8.27218C51.4414 8.26723 51.2714 8.28196 51.176 8.30658C51.0106 8.35076 50.9906 8.33608 50.9906 8.22793C50.9906 8.13459 50.9303 8.07063 50.7594 8.00186C50.574 7.9183 50.5337 7.87407 50.5643 7.77087C50.5792 7.69224 50.5292 7.54486 50.4286 7.37777C50.3334 7.23034 50.258 7.06815 50.258 7.01901C50.258 6.96988 50.1732 6.81264 50.0674 6.67995C49.852 6.39492 49.6769 5.99196 49.7166 5.87402C49.732 5.82979 49.7166 5.78063 49.6866 5.76099C49.6514 5.74136 49.5814 5.6086 49.516 5.47103C49.3357 5.06317 49.2352 4.88624 49.1903 4.88624C49.1003 4.88624 48.6637 4.22282 48.6889 4.11472C48.7037 4.04099 48.6537 3.97709 48.5383 3.9132C48.4483 3.86403 48.3626 3.76579 48.3529 3.70193C48.3431 3.63313 48.2374 3.51519 48.1272 3.42673C47.8663 3.2449 47.33 2.94021 47.2549 2.94021C47.2097 2.94021 45.896 2.27678 45.5652 2.08515C45.51 2.05565 45.4346 2.05072 45.3894 2.06546C45.3443 2.08512 45.2691 2.03599 45.2191 1.95245C45.1489 1.83942 45.0937 1.81976 44.9383 1.83942C44.798 1.85909 44.7126 1.83449 44.6326 1.74603C44.5571 1.6674 44.4269 1.62316 44.2463 1.61333C44.096 1.60843 43.9406 1.57893 43.9054 1.55437C43.8754 1.52487 43.7349 1.47573 43.5946 1.44133C43.454 1.40694 43.2386 1.34304 43.1132 1.30867C42.9877 1.27424 42.8123 1.23006 42.7171 1.2153C42.2857 1.16617 41.8446 1.0679 41.7291 1.004C41.644 0.954868 41.5589 0.954868 41.4534 0.994169C41.3583 1.02857 41.2629 1.02857 41.1977 0.994169C41.1477 0.964672 41.0223 0.935174 40.922 0.935174C40.8217 0.935174 40.7163 0.910608 40.6863 0.886041C40.5911 0.81234 39.2323 0.827074 39.0869 0.895873C38.9814 0.954868 38.9214 0.949909 38.776 0.866376C38.6154 0.782814 38.2243 0.733679 37.9486 0.768079C37.9034 0.772981 37.8231 0.758275 37.7783 0.73861C37.738 0.674742 37.6529 0.699309 37.5926 0.748443ZM31.0994 36.2294C31.0994 36.2884 31.0543 36.3523 31.004 36.362C30.9037 36.3816 30.8586 36.1998 30.944 36.1066C31.0091 36.0428 31.0994 36.1114 31.0994 36.2294ZM32.3029 38.7602C32.2777 38.9372 32.0871 38.9911 32.0871 38.8192C32.0871 38.6864 32.1323 38.6226 32.2374 38.6226C32.2877 38.6226 32.3129 38.6716 32.3029 38.7602Z" fill="#FFFEFE"/>
</svg>
