<svg width="280" height="100" viewBox="0 0 280 100" fill="none" xmlns="http://www.w3.org/2000/svg">
<g clip-path="url(#clip0)">
<path d="M0 100L135 100V0L0 0V100Z" fill="#F7654A"/>
<path d="M80.9023 6.09555C80.6494 6.3096 80.2796 6.33875 80.1142 6.15389C80.0364 6.06633 79.8613 6.09555 79.5305 6.2415C79.151 6.4069 78.9564 6.43603 78.4991 6.329C78.1294 6.24144 77.8862 6.24144 77.7694 6.329C77.6527 6.41657 77.4873 6.39719 77.2343 6.30962C76.9424 6.2026 76.8354 6.21227 76.6992 6.34848C76.4948 6.5528 74.977 6.51388 74.7825 6.29983C74.6073 6.10524 74.0819 6.15391 73.9749 6.36796C73.8873 6.53336 73.8192 6.55284 73.5176 6.43609C73.2841 6.33879 73.0992 6.33877 72.9728 6.41661C72.8755 6.47499 72.749 6.48475 72.7101 6.45556C72.6809 6.40692 72.5252 6.44576 72.3793 6.52359C72.1847 6.64035 72.0582 6.64037 71.883 6.54307C71.7176 6.43605 71.4744 6.44578 70.9782 6.54307C70.5987 6.63064 69.9955 6.69876 69.6355 6.70849C69.2755 6.71822 68.8766 6.79606 68.7599 6.85444C68.6431 6.92254 68.3026 7.0198 67.9912 7.05872C67.6993 7.10737 67.028 7.302 66.5123 7.48686C65.7048 7.77874 64.7026 8.00249 64.08 8.03167C63.9827 8.03167 63.8562 8.07063 63.8173 8.11928C63.7686 8.17766 63.6227 8.21657 63.4767 8.21657C63.3308 8.21657 63.1362 8.26518 63.0292 8.32356C62.9319 8.38194 62.5427 8.51817 62.1827 8.63493C61.8227 8.74195 61.3946 8.90733 61.2292 9.00463C61.0735 9.10193 60.8497 9.17005 60.7233 9.17005C60.6162 9.17005 60.373 9.28682 60.1979 9.43277C59.9254 9.68574 59.3806 9.88031 58.3492 10.0944C58.1741 10.1333 57.9114 10.2598 57.7947 10.396C57.6584 10.5322 57.4639 10.6197 57.3568 10.61C56.9482 10.5516 56.4033 10.7657 56.3644 10.9992C56.3158 11.1646 56.199 11.2133 55.8196 11.2133C55.5569 11.2133 55.2066 11.2814 55.0412 11.3787C54.8758 11.476 54.5353 11.5927 54.3115 11.6316C54.0682 11.6803 53.825 11.7679 53.7666 11.8165C53.5039 12.0208 52.5796 12.3224 52.3948 12.264C52.2877 12.2251 52.0834 12.2738 51.9764 12.3711C51.7332 12.556 50.6824 12.7602 49.5148 12.8478C49.1062 12.8673 48.6586 12.9548 48.5029 13.0132C48.3473 13.0716 47.9094 13.1592 47.5203 13.2078C47.1213 13.2565 46.7516 13.3635 46.6835 13.4511C46.6154 13.5483 46.4014 13.6165 46.2165 13.6165C45.9927 13.6165 45.8176 13.704 45.73 13.8597C45.6522 13.9959 45.4965 14.103 45.3798 14.103C45.2727 14.103 45.1171 14.2002 45.0587 14.3072C44.7473 14.9007 44.6111 14.9786 43.9884 15.0273C43.6382 15.0467 43.0447 15.2121 42.6749 15.3775C42.3052 15.5332 41.955 15.6694 41.8966 15.6694C41.8382 15.6694 41.6436 15.757 41.4782 15.8543C41.3031 15.9516 41.0404 16.0392 40.8847 16.0392C40.3593 16.0489 39.435 16.3505 39.3085 16.5548C39.1237 16.8272 38.4523 17.1191 36.6913 17.6932C34.8913 18.2867 33.9573 18.5007 32.1087 18.7245C29.2968 19.0845 27.6914 19.7558 24.8601 21.799C24.1402 22.3147 23.8483 22.4314 23.1088 22.5773C22.6126 22.6746 21.7953 22.8887 21.2797 23.0541C20.764 23.2195 20.0051 23.453 19.5867 23.5503C19.1684 23.6476 18.604 23.8909 18.3316 24.066C18.0592 24.2606 17.6214 24.4844 17.3489 24.5622C17.0765 24.6498 16.6873 24.8347 16.4927 24.9904C16.3079 25.1558 15.9771 25.3503 15.7825 25.4184C15.4614 25.5352 14.9847 25.8465 13.8463 26.6735C12.2993 27.7924 10.6355 30.5848 10.2853 32.6669C10.2366 32.8907 10.1393 33.1437 10.0518 33.2313C9.9642 33.2994 9.8961 33.5523 9.8961 33.7858C9.8961 34.0874 9.77934 34.389 9.48746 34.8171C9.21503 35.2161 9.13719 35.4106 9.26368 35.3425C9.45827 35.255 9.52638 35.4398 9.34151 35.5566C9.28314 35.5955 9.17611 35.7512 9.09828 35.8971C8.99125 36.1209 9.00098 36.1501 9.14692 36.0042C9.45827 35.7415 9.48746 36.0528 9.24422 36.8214C9.108 37.2204 9.01071 37.629 9.01071 37.736C9.01071 38.0571 9.21503 37.7944 9.35124 37.3079C9.42908 37.0452 9.57502 36.7436 9.69178 36.6366C9.87664 36.442 9.88637 36.442 9.88637 36.695C9.88637 36.8507 9.74043 37.3177 9.55556 37.7555C9.19557 38.6214 9.108 39.2538 9.39016 38.9911C9.48746 38.9035 9.58475 38.8549 9.61394 38.8938C9.69178 38.9814 9.70151 41.0246 9.62367 41.7057L9.55556 42.2992L9.74043 41.9003C9.83772 41.696 9.94475 41.5111 9.98366 41.5111C10.1296 41.5111 10.0907 42.844 9.93502 43.2429C9.84745 43.4667 9.76961 43.7586 9.76961 43.8754C9.76961 44.0602 9.7988 44.0408 9.94475 43.817C10.2074 43.3986 10.3534 43.4959 10.2756 44.0213C10.2464 44.284 10.2658 44.6245 10.3339 44.7802C10.4215 45.004 10.402 45.1986 10.2269 45.6948C10.0907 46.0451 9.99339 46.4148 9.99339 46.5121C9.99339 46.8137 10.188 46.5802 10.2658 46.2007C10.3145 46.0061 10.3826 45.8018 10.4507 45.7726C10.5966 45.6753 10.762 45.938 10.762 46.2688C10.762 46.5121 10.081 47.8158 9.72097 48.2537C9.61394 48.3899 9.57502 48.4969 9.64313 48.4969C9.71124 48.4969 9.92529 48.3023 10.1101 48.0785C10.3047 47.8548 10.5091 47.6601 10.5577 47.6601C10.6939 47.6601 10.5577 48.3704 10.3631 48.711C10.2756 48.8569 10.2074 49.1196 10.2074 49.285C10.2074 49.4504 10.1004 49.8298 9.9642 50.1023C9.82799 50.3747 9.65286 50.7639 9.56529 50.9682L9.41935 51.3185L9.71124 51.0266C9.86691 50.8612 10.081 50.5304 10.1977 50.3066C10.4507 49.7617 10.8009 49.4212 11.0053 49.499C11.1026 49.5477 11.1901 49.4796 11.2388 49.3336C11.2874 49.1974 11.4236 49.032 11.5501 48.9736C11.6863 48.9055 11.8809 48.6818 11.988 48.4677C12.2506 47.9715 12.5036 45.7629 12.5328 43.817L12.5425 42.3186L12.0171 41.1414C11.5696 40.1392 11.4723 39.8084 11.3944 38.9814C11.0442 34.895 11.7058 31.5383 13.2236 29.7578C13.6906 29.2032 15.0333 28.3178 15.3933 28.3178C15.656 28.3178 15.5976 28.6584 15.2473 29.2714C14.8679 29.933 14.002 32.2388 13.6906 33.4356C13.5739 33.8929 13.4182 35.0215 13.3501 35.9263C13.2139 37.522 13.2333 37.6485 13.5155 39.4095C13.7198 40.6452 14.0312 41.9392 14.469 43.35C15.1501 45.5878 15.5295 46.5413 16.7652 49.1196C17.6311 50.939 18.3024 53.2449 18.3024 54.4319C18.3024 55.6092 17.9035 57.0005 17.2322 58.1973C16.2981 59.8416 14.8971 61.6221 13.8463 62.4783C13.3404 62.8966 13.2431 63.0328 13.0485 63.7626C12.9123 64.2101 12.776 65.0566 12.7177 65.6598C12.6593 66.2728 12.4647 67.2749 12.2798 67.9171C11.842 69.4154 11.6182 70.6803 11.6182 71.7505C11.6182 72.2273 11.4431 73.7256 11.2388 75.0586C10.9274 77.0337 10.7912 77.6466 10.5091 78.2498C10.2561 78.8142 10.1491 79.252 10.081 80.0206C10.0226 80.5849 9.88637 81.3438 9.76961 81.7038C9.65286 82.0638 9.47773 82.6768 9.3707 83.0465C9.28314 83.4163 9.14692 83.7665 9.09828 83.8054C8.91341 83.9222 8.15451 85.226 8.02803 85.6346C7.95992 85.8389 7.94046 86.1308 7.96965 86.2573C8.01829 86.4713 8.11559 86.5103 8.57288 86.5103C9.23449 86.5103 9.47773 86.6464 9.70151 87.1135C9.94475 87.6194 9.90583 88.9621 9.64313 89.8183C9.26368 91.0345 9.35124 91.2972 10.1685 91.4042L10.7426 91.4723V92.0853C10.7426 92.8636 11.0053 93.3501 11.6474 93.7588C12.4842 94.3036 13.2236 94.4398 15.1987 94.4398C16.9695 94.4398 16.9792 94.4398 17.1641 94.1382C17.2614 93.9825 17.4462 93.8171 17.5727 93.7685C17.8646 93.6712 17.9814 93.5058 17.9814 93.1458C17.9814 92.8442 17.5143 92.0172 17.1154 91.6183C16.9792 91.5015 16.6484 90.9858 16.3662 90.4799C15.7533 89.3902 15.3155 88.8453 14.7803 88.5437C14.5566 88.427 14.3522 88.2227 14.323 88.1156C14.0798 87.2692 13.9241 85.9362 13.9241 84.7589C13.9241 83.5817 14.002 82.9882 14.469 80.5266C15.0138 77.6661 15.4322 76.265 16.5316 73.6089C17.4268 71.4586 19.324 68.6954 20.7154 67.4987C21.6202 66.7301 21.9997 66.3312 22.6515 65.4263C23.0796 64.8523 23.284 64.6285 23.3715 64.7258C23.4494 64.8133 23.4494 65.3485 23.3618 66.5063C23.2742 67.7809 23.1575 68.5106 22.8461 69.6684C22.3596 71.4878 22.2721 72.1689 22.4667 72.5678C22.5542 72.7235 22.9921 73.424 23.4396 74.1148C23.8969 74.8153 24.9866 76.7223 25.8623 78.3861C26.7282 80.0304 27.886 82.2292 28.4406 83.2606C29.579 85.3621 31.2427 88.7675 31.4276 89.3707C31.5152 89.6626 31.5249 90.1199 31.447 90.9664C31.3011 92.6107 31.3108 92.6301 32.6535 92.8831C33.5292 93.0485 33.8211 93.2528 33.9378 93.7588C34.0156 94.0799 34.1421 94.2161 34.901 94.6247L35.767 95.1014L37.6253 95.1403C39.7074 95.189 40.5734 95.1014 40.7971 94.8679C40.875 94.7706 40.982 94.5079 41.0209 94.2647C41.1182 93.7198 40.9334 93.282 40.0285 91.8323C39.3377 90.7523 39.1431 90.5188 38.248 89.8086C37.7421 89.4097 36.0394 87.4151 35.047 86.0821C34.0935 84.7881 32.167 81.373 31.6222 80.0012C30.7173 77.7536 30.6492 77.2866 30.6395 73.638C30.6395 70.904 30.659 70.4079 30.8146 70.1549C30.9119 69.9895 31.0189 69.5808 31.0579 69.25C31.0871 68.9095 31.1649 68.2965 31.233 67.8684C31.2914 67.4403 31.3984 66.195 31.4665 65.1053C31.6514 62.0502 31.7973 61.1939 32.7995 57.5259C33.2665 55.833 33.5194 55.1227 33.6751 55.1227C34.1421 55.1227 37.168 57.3313 40.1161 59.8221C42.1982 61.6026 43.1711 62.3129 44.1733 62.8188C46.2651 63.8793 46.7322 64.2004 46.9949 64.7063C47.1311 64.969 47.277 65.5723 47.3354 66.0198C47.4327 66.8468 47.9484 68.4716 48.1138 68.4716C48.1624 68.4716 48.2597 68.1992 48.3375 67.8684C48.4348 67.4014 48.5029 67.2944 48.61 67.3917C48.7851 67.5474 48.9213 67.3722 49.0964 66.7787C49.1646 66.5549 49.3689 66.2339 49.544 66.0782C49.7191 65.9323 49.9526 65.689 50.0402 65.5333C50.2737 65.1442 50.0889 64.609 49.5732 64.1906C49.3494 63.996 49.1354 63.7918 49.0867 63.7334C48.9213 63.4804 49.0089 63.1691 49.2618 63.0621C49.4078 63.0037 49.5537 62.8966 49.6024 62.8382C49.6899 62.6728 50.1278 62.6728 50.2834 62.8382C50.3807 62.9453 50.4878 62.9064 50.731 62.7215C50.9159 62.5756 51.1396 62.5074 51.2272 62.5366C51.3245 62.5755 51.4996 62.5366 51.6456 62.4685C51.7818 62.381 52.2391 62.3031 52.6672 62.2739C53.4553 62.2253 53.8347 62.1183 54.4088 61.7777C54.5936 61.6707 54.8466 61.622 55.0315 61.661C55.2066 61.7096 55.4109 61.661 55.5374 61.5637C55.6542 61.4664 55.8585 61.4275 55.985 61.4567C56.1309 61.5053 56.306 61.4372 56.4325 61.2913C56.5687 61.1453 56.9385 60.9994 57.3958 60.9021C58.0282 60.7853 58.2811 60.7853 58.9914 60.9507C59.6627 61.1064 59.8962 61.1064 60.1395 60.9994C60.3049 60.9313 60.7427 60.8534 61.1027 60.8339C63.0389 60.7269 63.3697 60.7756 63.1362 61.0772C62.9611 61.3204 63.0875 61.3788 63.5448 61.2621C64.2162 61.0967 64.5762 61.1453 65.1405 61.4567C65.4324 61.6221 65.7437 61.7583 65.8313 61.7583C65.9091 61.7583 65.9772 61.8167 65.9772 61.8945C65.9772 61.9821 66.0745 62.0015 66.2205 61.9626C66.3372 61.9237 66.5902 61.9723 66.775 62.0696C67.0475 62.2253 67.0864 62.3129 67.028 62.6145L66.9696 62.9648L67.855 62.9258C68.6626 62.9063 68.7501 62.9161 68.8961 63.169C68.9934 63.3247 69.1588 63.4415 69.2755 63.4415C69.3826 63.4415 69.7036 63.5777 69.9761 63.7431C70.2485 63.9085 70.6085 64.0447 70.7836 64.0447C70.9685 64.0447 71.1241 64.0837 71.1241 64.1323C71.1339 64.1907 71.1533 64.3463 71.1728 64.4825C71.1825 64.6285 71.2312 64.7939 71.2701 64.8814C71.3187 64.9496 71.2506 65.2415 71.1339 65.5431C71.0171 65.835 70.9393 66.2047 70.9685 66.3604C71.0366 66.7495 70.8225 67.2068 70.2485 67.9268C69.9955 68.2284 69.8009 68.5203 69.8009 68.5495C69.8009 68.5884 69.9566 68.5884 70.1317 68.5398C70.7641 68.4036 70.4625 68.9289 69.4701 69.6489C69.0517 69.9603 68.7015 70.2619 68.7015 70.3106C68.7015 70.3689 68.4972 70.6511 68.2442 70.9235L67.7772 71.4197L68.1372 71.3322C68.575 71.2349 68.5847 71.3808 68.1955 72.1105C67.7383 72.9765 67.5048 74.9807 67.8258 75.4088C67.9231 75.5451 67.9231 75.6715 67.7966 76.012C67.6993 76.265 67.6799 76.4693 67.7383 76.5083C67.7966 76.5569 67.8356 76.7126 67.8356 76.8683C67.8356 77.0629 67.9134 77.1699 68.0983 77.2185C68.3318 77.2769 68.3707 77.3742 68.4096 77.812L68.4388 78.318L68.7015 77.8607C69.042 77.2574 69.2269 77.4326 69.0517 78.1818C68.8085 79.2326 68.8766 79.6412 69.3826 80.1861C69.655 80.4877 69.8009 80.7406 69.762 80.8671C69.7425 80.9742 69.6744 81.2952 69.6452 81.5774C69.5771 82.0444 69.5869 82.093 69.8009 82.093C69.9177 82.093 70.0442 82.1417 70.0831 82.2098C70.1123 82.2682 70.2193 82.2973 70.3069 82.2487C70.4236 82.2 70.4723 82.2682 70.4723 82.4919C70.4723 82.9492 70.6085 83.5428 70.7058 83.5428C70.7544 83.5428 70.8031 83.3384 70.8225 83.0952C70.842 82.7741 70.9101 82.6282 71.056 82.599C71.1728 82.5795 71.2409 82.6379 71.2409 82.7936C71.2409 82.9395 71.3382 83.0563 71.4744 83.0952C71.6495 83.1438 71.6787 83.2314 71.6301 83.4162C71.5522 83.6692 71.562 83.6692 71.8247 83.4746C71.9803 83.3676 72.282 82.9784 72.5155 82.6184C72.7392 82.2585 72.9338 81.9665 72.9533 81.9665C72.963 81.9665 73.1284 82.1222 73.3133 82.3168C73.5176 82.5309 73.6538 82.7838 73.6538 82.9784C73.6538 83.1925 73.7025 83.2703 73.8095 83.2216C73.9457 83.173 73.9652 83.3871 73.9262 84.5157C73.8971 86.0335 73.829 86.5102 73.5468 87.561C72.7587 90.4799 72.7587 90.5577 73.5565 90.5772C73.79 90.5772 74.0527 90.6453 74.1111 90.7231C74.2571 90.8788 74.2765 91.521 74.1403 92.2701C74.043 92.8928 74.2181 93.2431 74.87 93.7004C75.8332 94.3717 76.7284 94.615 78.5867 94.6733C80.1921 94.7415 80.3088 94.7317 80.5034 94.5079C80.6105 94.3717 80.8245 94.1966 80.9607 94.1187C81.1261 94.0214 81.204 93.8658 81.204 93.6517C81.204 93.2042 80.6105 91.4528 80.2115 90.6648C80.0364 90.3242 79.8905 89.9837 79.8905 89.8961C79.8905 89.8086 79.6472 89.147 79.3553 88.4075C78.8591 87.1913 78.8008 86.9286 78.6451 85.4497C78.4116 83.2995 78.5089 82.2487 79.1121 80.3417C79.8418 78.0066 80.484 76.3137 80.6202 76.3137C80.6883 76.3137 80.844 76.5861 80.9607 76.9267C81.0969 77.3353 81.1942 77.4812 81.2331 77.3547C81.3304 77.0823 82.0212 77.345 82.1769 77.705C82.245 77.8607 82.3326 77.9969 82.3812 77.9969C82.4299 77.9969 82.5564 78.1915 82.6634 78.4153C82.7801 78.639 82.9455 78.8336 83.0331 78.8336C83.1109 78.8336 83.2082 78.9406 83.2374 79.0769C83.2666 79.2131 83.3542 79.3201 83.432 79.3201C83.5196 79.3201 83.6072 79.4174 83.6363 79.5342C83.7142 79.7871 84.1909 80.2055 84.5412 80.332C84.6969 80.3806 84.7942 80.3514 84.8331 80.225C84.9304 79.9331 85.1152 80.0206 85.2514 80.4098C85.3293 80.6725 85.4168 80.7601 85.5433 80.7114C85.6795 80.6628 85.7768 80.7309 85.8547 80.9158C85.9617 81.1882 85.9617 81.1882 86.1368 80.8185C86.3412 80.3709 86.4774 80.3028 86.9541 80.3709C87.2655 80.4293 87.3044 80.4779 87.3044 80.8185C87.3141 81.2466 87.5087 81.5968 87.7228 81.5287C87.8006 81.4898 87.859 81.5871 87.859 81.7817C87.859 82.2779 88.0438 82.2487 88.2287 81.733C88.326 81.4703 88.4719 81.2563 88.5498 81.2563C88.7152 81.2563 88.9584 81.7525 88.9584 82.1027C88.9584 82.239 89.0752 82.4627 89.2308 82.6281C89.5422 82.9687 89.5227 83.0173 89.5616 81.879C89.5714 81.3633 89.7951 81.0325 89.9897 81.2563C90.0481 81.3147 90.1941 81.3049 90.3595 81.2466C90.5151 81.1882 90.7 81.1493 90.7778 81.1882C90.8459 81.2076 90.9335 81.1395 90.9627 81.0033C91.0308 80.7114 91.3616 80.7017 91.4297 80.9839C91.4589 81.1006 91.5367 81.2952 91.5951 81.4023C91.7605 81.7428 91.7119 82.0638 91.42 82.6963C91.2643 83.0173 91.1475 83.4162 91.1475 83.5622C91.1475 83.7179 91.0697 83.9708 90.9724 84.1168C90.7292 84.4865 90.807 84.5352 91.3908 84.3698C92.3637 84.0779 92.5 84.5157 91.8092 85.8389C91.5659 86.3059 91.3713 86.7632 91.3713 86.8508C91.3713 87.0551 91.7897 87.3956 92.0524 87.3956C92.3054 87.3956 92.5778 87.8529 92.5778 88.3005C92.5778 88.4951 92.4805 88.9524 92.354 89.3026L92.1302 89.9253L92.5389 90.4215C93.1616 91.1804 93.9886 91.5599 95.9637 92.0171C96.4112 92.1144 97.0728 92.2312 97.4134 92.2799C97.9874 92.348 98.0555 92.3285 98.3085 92.0561C98.4642 91.8907 98.7171 91.7058 98.8923 91.6474C99.3204 91.4918 99.3301 91.1902 98.9215 89.9643C98.435 88.5243 98.1626 87.1232 98.1528 86.2378C98.1528 85.8292 98.0361 84.9243 97.8804 84.2335C97.7247 83.533 97.608 82.6865 97.608 82.3362C97.608 81.1103 97.5204 80.8963 96.5474 79.5244C95.341 77.8412 95.3215 77.8023 95.1367 77.0434C94.8059 75.7494 94.7572 75.1169 94.9421 74.8153C95.0296 74.6597 95.0783 74.4748 95.0296 74.4067C95.0005 74.3483 94.9518 73.7548 94.9421 73.1224C94.9323 72.2662 94.874 71.8478 94.7183 71.5462C94.5432 71.1862 94.5432 71.05 94.6502 70.3786C94.728 69.9603 94.7572 69.5322 94.728 69.4252C94.6794 69.3279 94.7086 69.2208 94.7572 69.1819C94.8253 69.1333 94.8642 68.9581 94.8642 68.7733C94.8642 68.5884 94.981 68.063 95.1367 67.6057C95.2923 67.1484 95.4091 66.6814 95.4091 66.5744C95.4091 66.1755 95.8761 65.1442 96.0318 65.2026C96.1291 65.2512 96.1777 65.1636 96.1777 64.9593C96.1777 64.755 96.2653 64.6382 96.4502 64.5507C96.6058 64.4923 96.7226 64.3561 96.7226 64.2782C96.7226 64.0739 97.0728 63.7139 97.2674 63.7139C97.3647 63.7139 97.3842 63.8306 97.3453 64.142C97.2966 64.4436 97.3258 64.5507 97.4134 64.5117C97.4912 64.4923 97.5593 64.3561 97.5788 64.2199C97.5982 64.0739 97.715 63.8696 97.8317 63.7528C98.0555 63.5388 98.0653 63.5388 98.2793 63.8598C98.5226 64.2198 98.7171 64.2685 98.9117 64.0058C98.9896 63.8988 99.1355 63.8501 99.2425 63.8891C99.3398 63.928 99.5052 63.8501 99.622 63.7042C99.9333 63.3344 100.4 63.101 100.546 63.2566C100.624 63.3442 100.721 63.3247 100.867 63.1885C101.091 62.9745 101.879 62.8966 101.879 63.101C101.879 63.3637 102.161 63.1885 102.726 62.5561C103.057 62.1961 103.358 61.8945 103.426 61.8945C103.494 61.8945 103.504 62.0599 103.455 62.3129C103.378 62.7799 103.455 62.8285 103.767 62.5269C103.952 62.3421 103.971 62.342 104.107 62.5366C104.224 62.7312 104.263 62.702 104.438 62.3129C104.672 61.7875 104.876 61.8653 104.788 62.4685L104.73 62.9161L104.895 62.5269C105.158 61.9042 105.742 61.7194 105.528 62.3323C105.46 62.5367 105.46 62.5367 105.683 62.3323C105.956 62.0696 106.043 62.1767 106.043 62.7604V63.2274L106.394 62.8577C106.579 62.6534 106.773 62.488 106.822 62.488C106.978 62.488 107.046 62.8966 106.968 63.422C106.9 63.928 106.9 63.9377 107.123 63.7918C107.318 63.6556 107.386 63.6555 107.552 63.8307C107.659 63.928 107.814 63.9863 107.892 63.9669C107.98 63.928 108.028 64.0642 108.028 64.3852C108.028 64.6577 108.096 64.9301 108.194 65.008C108.379 65.1734 108.379 65.1928 108.554 64.7355C108.719 64.3269 109.011 64.3074 109.011 64.7161C109.011 64.8815 109.069 65.0177 109.128 65.0177C109.206 65.0177 109.215 65.2123 109.157 65.5625C109.079 66.1268 109.157 66.2339 109.4 65.8836C109.507 65.7182 109.566 65.6988 109.673 65.835C109.78 65.942 109.789 66.0587 109.682 66.3798C109.605 66.5938 109.546 66.9539 109.546 67.1776C109.546 67.5182 109.566 67.5668 109.712 67.4306C109.994 67.1776 110.072 67.4112 109.887 67.9755C109.721 68.4717 109.731 68.5203 109.896 68.6565C110.003 68.7441 110.159 69.0068 110.247 69.2306C110.334 69.4738 110.519 69.7365 110.665 69.8241C110.83 69.9214 110.986 70.1744 111.074 70.5052C111.152 70.797 111.317 71.0986 111.424 71.1667C111.531 71.2251 111.716 71.4781 111.842 71.731C111.949 71.9743 112.163 72.2856 112.29 72.4121C112.426 72.5483 112.611 72.8111 112.699 72.9862C112.844 73.2975 112.874 73.3073 112.99 73.1321C113.185 72.8402 113.506 73.0445 113.934 73.7353C114.294 74.3094 114.43 74.4164 114.314 74.0467C114.207 73.6575 114.489 73.5992 114.751 73.9591L114.985 74.2705L115.131 73.677C115.209 73.3559 115.384 72.9473 115.53 72.7721C115.676 72.6067 115.812 72.3537 115.861 72.2175C115.968 71.8283 116.221 71.9257 116.308 72.4024C116.357 72.704 116.425 72.8208 116.581 72.8208C116.727 72.8208 116.785 72.7332 116.785 72.5484C116.785 72.0522 116.921 71.7408 117.125 71.7408C117.232 71.7408 117.388 71.624 117.456 71.4684C117.534 71.3224 117.729 71.0403 117.914 70.8457C118.458 70.2425 118.643 69.6197 118.711 68.1798C118.76 67.2068 118.848 66.7009 119.042 66.1463C119.373 65.2317 119.47 64.1615 119.324 62.9744C119.208 61.9626 119.266 61.768 119.733 61.768C120.288 61.768 121.124 61.4178 121.718 60.9216C122.039 60.6589 122.389 60.4448 122.486 60.4448C122.593 60.4448 122.798 60.3475 122.934 60.221C123.08 60.1042 123.372 59.9583 123.576 59.9096C124.257 59.754 124.958 59.2773 125.405 58.6838C126.174 57.6719 126.174 57.6719 126.038 55.2784C126.009 54.5779 125.921 53.8579 125.853 53.6633C125.746 53.3617 125.756 53.2935 125.96 53.099C126.252 52.846 126.378 52.272 126.213 51.9411C126.135 51.7757 126.135 51.5714 126.223 51.2309C126.291 50.9779 126.359 50.6277 126.369 50.4623C126.378 50.2969 126.398 50.0439 126.398 49.9077C126.417 49.7228 126.553 49.5866 126.845 49.4601C127.351 49.2363 127.614 48.6526 127.341 48.3996C127.234 48.2926 127.186 48.0591 127.205 47.6407C127.234 47.1153 127.273 47.0277 127.517 46.9693C127.838 46.8818 127.974 46.3661 127.682 46.3661C127.419 46.3661 126.865 45.9769 126.865 45.8018C126.865 45.7337 126.787 45.6072 126.699 45.5489C126.427 45.3932 126.651 44.4689 127.059 44.0797C127.38 43.7878 127.419 43.4764 127.147 43.4764C127.03 43.4764 126.359 43.1651 126.223 43.0484C126.145 42.99 126.427 42.523 126.544 42.523C126.699 42.523 127.41 41.7154 127.41 41.5403C127.41 41.4722 127.507 41.2873 127.633 41.1414C127.896 40.83 127.984 39.3998 127.731 39.3998C127.624 39.3998 127.205 38.9327 127.196 38.7965C127.196 38.7576 127.38 38.5046 127.614 38.2225C127.945 37.8138 128.023 37.629 127.984 37.3566C127.954 37.0647 127.984 36.9869 128.188 36.8896C128.334 36.8409 128.528 36.8214 128.616 36.8506C128.733 36.8993 128.723 36.8506 128.567 36.656C128.46 36.5101 128.276 36.3642 128.159 36.335C127.877 36.2279 127.896 35.7025 128.188 35.3523C128.46 35.0312 128.655 33.6788 128.441 33.5815C128.246 33.494 128.383 32.5599 128.616 32.414C128.908 32.2486 128.879 32.0248 128.558 32.1124C128.383 32.161 128.207 32.1026 128.042 31.9469C127.808 31.7329 127.799 31.694 127.954 31.5577C128.266 31.2853 128.276 30.8962 127.974 30.7502C127.779 30.6529 127.711 30.5459 127.75 30.3805C127.847 29.9816 127.594 29.3005 127.371 29.3005C127.254 29.3005 127.089 29.1448 126.972 28.9405C126.865 28.7362 126.66 28.5416 126.514 28.5124C125.96 28.3956 125.473 28.0162 125.415 27.666C125.386 27.4519 125.259 27.267 125.104 27.1989C124.938 27.1308 124.87 27.0043 124.899 26.8778C124.929 26.7416 124.822 26.5763 124.578 26.4011C124.267 26.1774 124.209 26.0508 124.228 25.7395C124.247 25.2822 124.063 25.0098 123.615 24.8833L123.275 24.786L123.206 23.6282C123.099 21.8282 122.778 20.7093 122.136 19.8044C121.844 19.3958 121.776 19.5321 121.903 20.3007C122.019 20.972 121.961 21.9255 121.766 22.1785C121.689 22.2758 121.543 22.266 121.212 22.0909C120.959 21.9741 120.55 21.8282 120.317 21.7796C120.083 21.731 119.645 21.5363 119.354 21.3515C119.062 21.1569 118.585 20.9818 118.312 20.9331C118.03 20.8942 117.719 20.7872 117.622 20.7094C117.515 20.6023 117.125 20.5439 116.581 20.5148C116.114 20.505 115.676 20.4661 115.608 20.4272C115.549 20.4077 115.102 20.3785 114.596 20.3882C113.866 20.3979 113.652 20.3687 113.496 20.1936C113.204 19.8725 112.728 19.6877 112.377 19.7656C112.202 19.8045 111.716 20.1256 111.317 20.4661C110.655 21.0207 110.5 21.0887 110.072 21.0887C109.731 21.079 109.566 21.0304 109.546 20.8942C109.517 20.6704 108.466 20.6412 108.379 20.8747C108.359 20.9622 108.174 21.0109 107.97 20.9915C107.775 20.9817 107.445 21.0109 107.26 21.0596C106.939 21.1471 106.9 21.118 106.9 20.9039C106.9 20.7191 106.783 20.5925 106.452 20.4563C106.092 20.2909 106.014 20.2033 106.073 19.999C106.102 19.8433 106.005 19.5515 105.81 19.2207C105.625 18.9288 105.479 18.6077 105.479 18.5104C105.479 18.4131 105.314 18.1018 105.109 17.8391C104.691 17.2748 104.351 16.477 104.428 16.2435C104.458 16.1559 104.428 16.0586 104.37 16.0197C104.302 15.9808 104.166 15.718 104.039 15.4456C103.689 14.6381 103.494 14.2879 103.407 14.2879C103.232 14.2879 102.385 12.9743 102.434 12.7603C102.463 12.6143 102.366 12.4878 102.142 12.3613C101.967 12.264 101.801 12.0695 101.782 11.943C101.762 11.8068 101.558 11.5733 101.344 11.3982C100.838 11.0382 99.7971 10.4349 99.6512 10.4349C99.5636 10.4349 97.0145 9.12146 96.3723 8.74201C96.2653 8.68363 96.1193 8.67386 96.0318 8.70305C95.9442 8.74197 95.7983 8.64469 95.701 8.47929C95.5648 8.25551 95.4577 8.21661 95.1561 8.25553C94.8837 8.29445 94.7183 8.24576 94.5626 8.07063C94.4167 7.91496 94.1637 7.82737 93.8134 7.80791C93.5216 7.79818 93.2199 7.73979 93.1518 7.69114C93.0935 7.63276 92.821 7.53549 92.5486 7.46738C92.2762 7.39927 91.8578 7.27277 91.6146 7.20466C91.3713 7.13656 91.0308 7.04905 90.8459 7.01986C90.0092 6.92256 89.153 6.72799 88.9292 6.60151C88.7638 6.50421 88.5984 6.50419 88.3941 6.58203C88.2092 6.65014 88.0244 6.65014 87.8979 6.58203C87.8006 6.52365 87.5573 6.46526 87.3628 6.46526C87.1682 6.46526 86.9638 6.41661 86.9055 6.36796C86.7206 6.22202 84.0839 6.25122 83.8017 6.38744C83.5974 6.50419 83.4807 6.49441 83.1985 6.329C82.8872 6.1636 82.1283 6.06631 81.5931 6.13441C81.5056 6.14414 81.3499 6.11499 81.2623 6.07607C81.1845 5.94959 81.0191 5.99826 80.9023 6.09555ZM68.3026 76.3429C68.3026 76.4596 68.215 76.5861 68.1177 76.6056C67.9231 76.6445 67.8356 76.2845 68.001 76.0996C68.1274 75.9732 68.3026 76.1094 68.3026 76.3429ZM70.6377 81.3536C70.589 81.7039 70.2193 81.8109 70.2193 81.4703C70.2193 81.2076 70.3069 81.0811 70.5112 81.0811C70.6085 81.0811 70.6571 81.1785 70.6377 81.3536Z" fill="#FFFEFE"/>
<path d="M8.32989 51.9215C8.15449 52.0287 8.12526 52.0871 8.23245 52.1066C8.32014 52.1066 8.49554 52.0189 8.61247 51.9215C8.87556 51.7071 8.69042 51.6974 8.32989 51.9215Z" fill="#FFFEFE"/>
<path d="M105.343 62.653C105.294 62.692 105.265 62.7895 105.265 62.8577C105.265 62.9259 105.324 62.9161 105.402 62.8382C105.47 62.77 105.499 62.6725 105.479 62.6335C105.45 62.5848 105.382 62.6043 105.343 62.653Z" fill="#FFFEFE"/>
<path d="M221.58 54C223.44 54 225.05 54.31 226.41 54.93C227.79 55.55 228.85 56.43 229.59 57.57C230.33 58.71 230.7 60.06 230.7 61.62C230.7 63.16 230.33 64.51 229.59 65.67C228.85 66.81 227.79 67.69 226.41 68.31C225.05 68.91 223.44 69.21 221.58 69.21H217.35V75H212.49V54H221.58ZM221.31 65.25C222.77 65.25 223.88 64.94 224.64 64.32C225.4 63.68 225.78 62.78 225.78 61.62C225.78 60.44 225.4 59.54 224.64 58.92C223.88 58.28 222.77 57.96 221.31 57.96H217.35V65.25H221.31ZM247.55 75L243.5 69.15H243.26H239.03V75H234.17V54H243.26C245.12 54 246.73 54.31 248.09 54.93C249.47 55.55 250.53 56.43 251.27 57.57C252.01 58.71 252.38 60.06 252.38 61.62C252.38 63.18 252 64.53 251.24 65.67C250.5 66.79 249.44 67.65 248.06 68.25L252.77 75H247.55ZM247.46 61.62C247.46 60.44 247.08 59.54 246.32 58.92C245.56 58.28 244.45 57.96 242.99 57.96H239.03V65.28H242.99C244.45 65.28 245.56 64.96 246.32 64.32C247.08 63.68 247.46 62.78 247.46 61.62ZM266.4 75.36C264.22 75.36 262.25 74.89 260.49 73.95C258.75 73.01 257.38 71.72 256.38 70.08C255.4 68.42 254.91 66.56 254.91 64.5C254.91 62.44 255.4 60.59 256.38 58.95C257.38 57.29 258.75 55.99 260.49 55.05C262.25 54.11 264.22 53.64 266.4 53.64C268.58 53.64 270.54 54.11 272.28 55.05C274.02 55.99 275.39 57.29 276.39 58.95C277.39 60.59 277.89 62.44 277.89 64.5C277.89 66.56 277.39 68.42 276.39 70.08C275.39 71.72 274.02 73.01 272.28 73.95C270.54 74.89 268.58 75.36 266.4 75.36ZM266.4 71.22C267.64 71.22 268.76 70.94 269.76 70.38C270.76 69.8 271.54 69 272.1 67.98C272.68 66.96 272.97 65.8 272.97 64.5C272.97 63.2 272.68 62.04 272.1 61.02C271.54 60 270.76 59.21 269.76 58.65C268.76 58.07 267.64 57.78 266.4 57.78C265.16 57.78 264.04 58.07 263.04 58.65C262.04 59.21 261.25 60 260.67 61.02C260.11 62.04 259.83 63.2 259.83 64.5C259.83 65.8 260.11 66.96 260.67 67.98C261.25 69 262.04 69.8 263.04 70.38C264.04 70.94 265.16 71.22 266.4 71.22Z" fill="#F7654A"/>
<path d="M144.61 22H161.56V25.87H149.44V30.19H155.26C157.8 30.19 159.73 30.72 161.05 31.78C162.39 32.84 163.06 34.37 163.06 36.37C163.06 38.47 162.32 40.1 160.84 41.26C159.36 42.42 157.27 43 154.57 43H144.61V22ZM154.3 39.4C155.54 39.4 156.49 39.16 157.15 38.68C157.81 38.18 158.14 37.46 158.14 36.52C158.14 34.68 156.86 33.76 154.3 33.76H149.44V39.4H154.3ZM184.927 22L175.987 38.62C175.127 40.22 174.087 41.43 172.867 42.25C171.667 43.07 170.357 43.48 168.937 43.48C167.837 43.48 166.697 43.24 165.517 42.76L166.687 39.07C167.527 39.33 168.227 39.46 168.787 39.46C169.387 39.46 169.927 39.32 170.407 39.04C170.887 38.74 171.327 38.28 171.727 37.66L171.907 37.42L163.627 22H168.817L174.397 33.28L180.157 22H184.927ZM187.237 22H192.067V35.68L202.087 22H206.647V43H201.847V29.35L191.827 43H187.237V22ZM196.927 20.65C193.087 20.65 191.147 19.12 191.107 16.06H194.437C194.477 17.52 195.307 18.25 196.927 18.25C197.727 18.25 198.337 18.07 198.757 17.71C199.177 17.33 199.397 16.78 199.417 16.06H202.747C202.727 17.56 202.237 18.7 201.277 19.48C200.317 20.26 198.867 20.65 196.927 20.65ZM226.426 32.05C227.706 32.43 228.686 33.05 229.366 33.91C230.046 34.77 230.386 35.83 230.386 37.09C230.386 38.95 229.676 40.4 228.256 41.44C226.856 42.48 224.846 43 222.226 43H211.876V22H221.656C224.096 22 225.996 22.47 227.356 23.41C228.716 24.35 229.396 25.69 229.396 27.43C229.396 28.47 229.136 29.39 228.616 30.19C228.096 30.97 227.366 31.59 226.426 32.05ZM216.706 30.7H221.236C222.296 30.7 223.096 30.49 223.636 30.07C224.176 29.63 224.446 28.99 224.446 28.15C224.446 27.33 224.166 26.7 223.606 26.26C223.066 25.82 222.276 25.6 221.236 25.6H216.706V30.7ZM222.046 39.4C224.326 39.4 225.466 38.5 225.466 36.7C225.466 34.96 224.326 34.09 222.046 34.09H216.706V39.4H222.046ZM244.249 43.36C242.069 43.36 240.099 42.89 238.339 41.95C236.599 41.01 235.229 39.72 234.229 38.08C233.249 36.42 232.759 34.56 232.759 32.5C232.759 30.44 233.249 28.59 234.229 26.95C235.229 25.29 236.599 23.99 238.339 23.05C240.099 22.11 242.069 21.64 244.249 21.64C246.429 21.64 248.389 22.11 250.129 23.05C251.869 23.99 253.239 25.29 254.239 26.95C255.239 28.59 255.739 30.44 255.739 32.5C255.739 34.56 255.239 36.42 254.239 38.08C253.239 39.72 251.869 41.01 250.129 41.95C248.389 42.89 246.429 43.36 244.249 43.36ZM244.249 39.22C245.489 39.22 246.609 38.94 247.609 38.38C248.609 37.8 249.389 37 249.949 35.98C250.529 34.96 250.819 33.8 250.819 32.5C250.819 31.2 250.529 30.04 249.949 29.02C249.389 28 248.609 27.21 247.609 26.65C246.609 26.07 245.489 25.78 244.249 25.78C243.009 25.78 241.889 26.07 240.889 26.65C239.889 27.21 239.099 28 238.519 29.02C237.959 30.04 237.679 31.2 237.679 32.5C237.679 33.8 237.959 34.96 238.519 35.98C239.099 37 239.889 37.8 240.889 38.38C241.889 38.94 243.009 39.22 244.249 39.22ZM277.617 22V43H272.817V25.96H265.617L265.467 30.34C265.367 33.32 265.127 35.74 264.747 37.6C264.367 39.44 263.727 40.86 262.827 41.86C261.947 42.84 260.707 43.33 259.107 43.33C258.447 43.33 257.647 43.22 256.707 43L257.007 38.89C257.267 38.97 257.557 39.01 257.877 39.01C259.037 39.01 259.847 38.33 260.307 36.97C260.767 35.59 261.057 33.44 261.177 30.52L261.477 22H277.617Z" fill="#FFFCFC"/>
</g>
<defs>
<clipPath id="clip0">
<rect width="280" height="100" fill="white"/>
</clipPath>
</defs>
</svg>
