<svg width="279" height="100" viewBox="0 0 279 100" fill="none" xmlns="http://www.w3.org/2000/svg">
<path d="M0 100L135 100V0L0 0V100Z" fill="#F7654A"/>
<path d="M80.9024 6.09555C80.6494 6.3096 80.2797 6.33875 80.1143 6.15389C80.0364 6.06632 79.8613 6.09555 79.5305 6.24149C79.151 6.4069 78.9565 6.43603 78.4992 6.329C78.1294 6.24144 77.8862 6.24144 77.7695 6.329C77.6527 6.41657 77.4873 6.39719 77.2343 6.30962C76.9424 6.2026 76.8354 6.21227 76.6992 6.34848C76.4949 6.5528 74.9771 6.51389 74.7825 6.29984C74.6074 6.10524 74.082 6.15391 73.9749 6.36796C73.8874 6.53336 73.8193 6.55284 73.5176 6.43609C73.2841 6.33879 73.0993 6.33877 72.9728 6.41661C72.8755 6.47498 72.749 6.48476 72.7101 6.45557C72.6809 6.40691 72.5252 6.44576 72.3793 6.5236C72.1847 6.64035 72.0582 6.64037 71.8831 6.54308C71.7177 6.43605 71.4744 6.44578 70.9782 6.54308C70.5988 6.63064 69.9955 6.69877 69.6356 6.7085C69.2756 6.71822 68.8766 6.79606 68.7599 6.85444C68.6431 6.92255 68.3026 7.0198 67.9913 7.05872C67.6994 7.10737 67.028 7.30199 66.5124 7.48685C65.7048 7.77875 64.7027 8.00249 64.08 8.03168C63.9827 8.03168 63.8562 8.07063 63.8173 8.11928C63.7686 8.17766 63.6227 8.21658 63.4767 8.21658C63.3308 8.21658 63.1362 8.26518 63.0292 8.32356C62.9319 8.38194 62.5427 8.51817 62.1827 8.63493C61.8227 8.74195 61.3946 8.90733 61.2292 9.00463C61.0735 9.10193 60.8498 9.17005 60.7233 9.17005C60.6163 9.17005 60.373 9.28683 60.1979 9.43277C59.9255 9.68574 59.3806 9.88031 58.3493 10.0944C58.1741 10.1333 57.9114 10.2598 57.7947 10.396C57.6585 10.5322 57.4639 10.6197 57.3569 10.61C56.9482 10.5516 56.4034 10.7657 56.3644 10.9992C56.3158 11.1646 56.199 11.2133 55.8196 11.2133C55.5569 11.2133 55.2066 11.2814 55.0412 11.3787C54.8758 11.476 54.5353 11.5927 54.3115 11.6316C54.0683 11.6803 53.825 11.7679 53.7667 11.8165C53.504 12.0208 52.5797 12.3224 52.3948 12.264C52.2878 12.2251 52.0834 12.2738 51.9764 12.3711C51.7332 12.556 50.6824 12.7602 49.5148 12.8478C49.1062 12.8673 48.6586 12.9548 48.503 13.0132C48.3473 13.0716 47.9095 13.1592 47.5203 13.2078C47.1214 13.2565 46.7517 13.3635 46.6835 13.451C46.6154 13.5483 46.4014 13.6165 46.2165 13.6165C45.9927 13.6165 45.8176 13.704 45.7301 13.8597C45.6522 13.9959 45.4965 14.103 45.3798 14.103C45.2728 14.103 45.1171 14.2002 45.0587 14.3072C44.7474 14.9007 44.6112 14.9786 43.9885 15.0273C43.6382 15.0467 43.0447 15.2121 42.675 15.3775C42.3053 15.5332 41.955 15.6694 41.8966 15.6694C41.8382 15.6694 41.6436 15.757 41.4782 15.8543C41.3031 15.9516 41.0404 16.0392 40.8847 16.0392C40.3593 16.0489 39.435 16.3505 39.3085 16.5548C39.1237 16.8272 38.4524 17.1191 36.6913 17.6932C34.8913 18.2867 33.9573 18.5007 32.1087 18.7245C29.2968 19.0845 27.6915 19.7558 24.8602 21.799C24.1402 22.3147 23.8483 22.4314 23.1089 22.5773C22.6126 22.6746 21.7954 22.8887 21.2797 23.0541C20.764 23.2195 20.0051 23.453 19.5868 23.5503C19.1684 23.6476 18.6041 23.8909 18.3316 24.066C18.0592 24.2606 17.6214 24.4844 17.349 24.5622C17.0765 24.6498 16.6874 24.8347 16.4928 24.9904C16.3079 25.1558 15.9771 25.3503 15.7825 25.4184C15.4614 25.5351 14.9847 25.8465 13.8463 26.6735C12.2993 27.7924 10.6356 30.5848 10.2853 32.6669C10.2367 32.8907 10.1394 33.1437 10.0518 33.2313C9.96424 33.2994 9.89613 33.5523 9.89613 33.7858C9.89613 34.0874 9.77937 34.389 9.48749 34.8172C9.21506 35.2161 9.13722 35.4106 9.26371 35.3425C9.4583 35.255 9.52641 35.4398 9.34154 35.5566C9.28317 35.5955 9.17614 35.7512 9.09831 35.8971C8.99128 36.1209 9.00101 36.1501 9.14695 36.0042C9.4583 35.7415 9.48749 36.0528 9.24425 36.8214C9.10804 37.2204 9.01074 37.629 9.01074 37.736C9.01074 38.0571 9.21506 37.7944 9.35127 37.3079C9.42911 37.0452 9.57505 36.7436 9.69181 36.6366C9.87667 36.442 9.8864 36.442 9.8864 36.695C9.8864 36.8507 9.74046 37.3177 9.55559 37.7555C9.1956 38.6214 9.10804 39.2538 9.39019 38.9911C9.48749 38.9035 9.58478 38.8549 9.61397 38.8938C9.69181 38.9814 9.70154 41.0246 9.6237 41.7057L9.55559 42.2992L9.74046 41.9003C9.83775 41.696 9.94478 41.5111 9.98369 41.5111C10.1296 41.5111 10.0907 42.844 9.93505 43.2429C9.84748 43.4667 9.76964 43.7586 9.76964 43.8754C9.76964 44.0602 9.79883 44.0408 9.94478 43.817C10.2075 43.3986 10.3534 43.4959 10.2756 44.0213C10.2464 44.284 10.2659 44.6245 10.334 44.7802C10.4215 45.004 10.4021 45.1986 10.2269 45.6948C10.0907 46.0451 9.99342 46.4148 9.99342 46.5121C9.99342 46.8137 10.188 46.5802 10.2659 46.2007C10.3145 46.0061 10.3826 45.8018 10.4507 45.7726C10.5967 45.6753 10.7621 45.938 10.7621 46.2688C10.7621 46.5121 10.081 47.8158 9.721 48.2537C9.61397 48.3899 9.57505 48.4969 9.64316 48.4969C9.71127 48.4969 9.92532 48.3023 10.1102 48.0785C10.3048 47.8548 10.5091 47.6601 10.5577 47.6601C10.694 47.6601 10.5577 48.3704 10.3631 48.711C10.2756 48.8569 10.2075 49.1196 10.2075 49.285C10.2075 49.4504 10.1004 49.8298 9.96424 50.1023C9.82802 50.3747 9.65289 50.7639 9.56532 50.9682L9.41938 51.3185L9.71127 51.0266C9.86694 50.8612 10.081 50.5304 10.1977 50.3066C10.4507 49.7617 10.801 49.4212 11.0053 49.499C11.1026 49.5477 11.1902 49.4796 11.2388 49.3336C11.2875 49.1974 11.4237 49.032 11.5502 48.9736C11.6864 48.9055 11.881 48.6818 11.988 48.4677C12.2507 47.9715 12.5036 45.7629 12.5328 43.817L12.5426 42.3186L12.0172 41.1414C11.5696 40.1392 11.4723 39.8084 11.3945 38.9814C11.0442 34.895 11.7058 31.5383 13.2236 29.7578C13.6907 29.2032 15.0333 28.3178 15.3933 28.3178C15.656 28.3178 15.5976 28.6584 15.2474 29.2714C14.8679 29.933 14.002 32.2388 13.6907 33.4356C13.5739 33.8929 13.4182 35.0215 13.3501 35.9263C13.2139 37.522 13.2334 37.6485 13.5155 39.4095C13.7198 40.6452 14.0312 41.9392 14.469 43.35C15.1501 45.5878 15.5295 46.5413 16.7652 49.1196C17.6311 50.939 18.3025 53.2449 18.3025 54.4319C18.3025 55.6092 17.9035 57.0005 17.2322 58.1973C16.2982 59.8416 14.8971 61.6221 13.8463 62.4783C13.3404 62.8966 13.2431 63.0328 13.0485 63.7626C12.9123 64.2101 12.7761 65.0566 12.7177 65.6598C12.6593 66.2728 12.4647 67.2749 12.2799 67.9171C11.842 69.4154 11.6183 70.6803 11.6183 71.7505C11.6183 72.2273 11.4431 73.7256 11.2388 75.0586C10.9275 77.0337 10.7912 77.6466 10.5091 78.2498C10.2561 78.8142 10.1491 79.252 10.081 80.0206C10.0226 80.5849 9.8864 81.3438 9.76964 81.7038C9.65289 82.0638 9.47776 82.6768 9.37073 83.0465C9.28317 83.4163 9.14695 83.7665 9.09831 83.8054C8.91344 83.9222 8.15454 85.226 8.02806 85.6346C7.95995 85.8389 7.94049 86.1308 7.96968 86.2573C8.01833 86.4713 8.11562 86.5103 8.57291 86.5103C9.23452 86.5103 9.47776 86.6464 9.70154 87.1135C9.94478 87.6194 9.90586 88.9621 9.64316 89.8183C9.26371 91.0345 9.35127 91.2972 10.1686 91.4042L10.7426 91.4723V92.0853C10.7426 92.8636 11.0053 93.3501 11.6474 93.7588C12.4842 94.3036 13.2236 94.4398 15.1987 94.4398C16.9695 94.4398 16.9792 94.4398 17.1641 94.1382C17.2614 93.9825 17.4463 93.8171 17.5727 93.7685C17.8646 93.6712 17.9814 93.5058 17.9814 93.1458C17.9814 92.8442 17.5144 92.0172 17.1155 91.6183C16.9792 91.5015 16.6484 90.9858 16.3663 90.4799C15.7533 89.3902 15.3155 88.8453 14.7804 88.5437C14.5566 88.427 14.3523 88.2227 14.3231 88.1156C14.0798 87.2692 13.9242 85.9362 13.9242 84.7589C13.9242 83.5817 14.002 82.9882 14.469 80.5266C15.0139 77.6661 15.4322 76.265 16.5317 73.6089C17.4268 71.4586 19.3241 68.6954 20.7154 67.4987C21.6202 66.7301 21.9997 66.3312 22.6516 65.4263C23.0797 64.8523 23.284 64.6285 23.3716 64.7258C23.4494 64.8133 23.4494 65.3485 23.3618 66.5063C23.2743 67.7809 23.1575 68.5106 22.8462 69.6684C22.3597 71.4878 22.2721 72.1689 22.4667 72.5678C22.5543 72.7235 22.9921 73.424 23.4397 74.1148C23.8969 74.8153 24.9867 76.7223 25.8623 78.3861C26.7282 80.0304 27.8861 82.2292 28.4406 83.2606C29.579 85.3621 31.2428 88.7675 31.4276 89.3707C31.5152 89.6626 31.5249 90.1199 31.4471 90.9664C31.3011 92.6107 31.3109 92.6301 32.6535 92.8831C33.5292 93.0485 33.8211 93.2528 33.9378 93.7588C34.0157 94.0799 34.1422 94.2161 34.9011 94.6247L35.767 95.1014L37.6253 95.1403C39.7075 95.189 40.5734 95.1014 40.7972 94.8679C40.875 94.7706 40.982 94.5079 41.021 94.2647C41.1182 93.7198 40.9334 93.282 40.0285 91.8323C39.3377 90.7523 39.1431 90.5188 38.248 89.8086C37.7421 89.4097 36.0394 87.4151 35.047 86.0821C34.0935 84.7881 32.1671 81.373 31.6222 80.0012C30.7174 77.7536 30.6493 77.2866 30.6395 73.638C30.6395 70.904 30.659 70.4079 30.8147 70.1549C30.912 69.9895 31.019 69.5808 31.0579 69.25C31.0871 68.9095 31.1649 68.2965 31.233 67.8684C31.2914 67.4403 31.3984 66.195 31.4665 65.1053C31.6514 62.0502 31.7973 61.1939 32.7995 57.5259C33.2665 55.833 33.5195 55.1227 33.6751 55.1227C34.1422 55.1227 37.1681 57.3313 40.1161 59.8221C42.1982 61.6026 43.1712 62.3129 44.1733 62.8188C46.2652 63.8793 46.7322 64.2004 46.9949 64.7063C47.1311 64.969 47.2771 65.5723 47.3354 66.0198C47.4327 66.8468 47.9484 68.4716 48.1138 68.4716C48.1624 68.4716 48.2597 68.1992 48.3376 67.8684C48.4349 67.4014 48.503 67.2944 48.61 67.3917C48.7851 67.5474 48.9213 67.3722 49.0965 66.7787C49.1646 66.5549 49.3689 66.2339 49.544 66.0782C49.7192 65.9323 49.9527 65.689 50.0402 65.5333C50.2738 65.1442 50.0889 64.609 49.5732 64.1906C49.3494 63.996 49.1354 63.7918 49.0867 63.7334C48.9213 63.4804 49.0089 63.1691 49.2619 63.062C49.4078 63.0037 49.5538 62.8966 49.6024 62.8382C49.69 62.6728 50.1278 62.6728 50.2835 62.8382C50.3808 62.9453 50.4878 62.9064 50.731 62.7215C50.9159 62.5756 51.1397 62.5074 51.2272 62.5366C51.3245 62.5755 51.4997 62.5366 51.6456 62.4685C51.7818 62.381 52.2391 62.3031 52.6672 62.2739C53.4553 62.2253 53.8348 62.1183 54.4088 61.7777C54.5937 61.6707 54.8466 61.622 55.0315 61.661C55.2066 61.7096 55.4109 61.661 55.5374 61.5637C55.6542 61.4664 55.8585 61.4275 55.985 61.4567C56.1309 61.5053 56.3061 61.4372 56.4326 61.2913C56.5688 61.1453 56.9385 60.9994 57.3958 60.9021C58.0282 60.7853 58.2812 60.7853 58.9914 60.9507C59.6628 61.1064 59.8963 61.1064 60.1395 60.9994C60.3049 60.9313 60.7427 60.8534 61.1027 60.8339C63.0389 60.7269 63.3697 60.7756 63.1362 61.0772C62.9611 61.3204 63.0876 61.3788 63.5449 61.2621C64.2162 61.0967 64.5762 61.1453 65.1405 61.4567C65.4324 61.6221 65.7437 61.7583 65.8313 61.7583C65.9091 61.7583 65.9772 61.8167 65.9772 61.8945C65.9772 61.9821 66.0745 62.0015 66.2205 61.9626C66.3372 61.9237 66.5902 61.9723 66.7751 62.0696C67.0475 62.2253 67.0864 62.3129 67.028 62.6145L66.9697 62.9648L67.855 62.9258C68.6626 62.9063 68.7502 62.9161 68.8961 63.169C68.9934 63.3247 69.1588 63.4415 69.2756 63.4415C69.3826 63.4415 69.7037 63.5777 69.9761 63.7431C70.2485 63.9085 70.6085 64.0447 70.7836 64.0447C70.9685 64.0447 71.1242 64.0837 71.1242 64.1323C71.1339 64.1907 71.1534 64.3463 71.1728 64.4825C71.1825 64.6285 71.2312 64.7939 71.2701 64.8814C71.3188 64.9496 71.2507 65.2415 71.1339 65.5431C71.0172 65.835 70.9393 66.2047 70.9685 66.3604C71.0366 66.7495 70.8226 67.2068 70.2485 67.9268C69.9955 68.2284 69.801 68.5203 69.801 68.5495C69.801 68.5884 69.9566 68.5884 70.1318 68.5398C70.7642 68.4036 70.4626 68.9289 69.4701 69.6489C69.0518 69.9603 68.7015 70.2619 68.7015 70.3106C68.7015 70.3689 68.4972 70.6511 68.2442 70.9235L67.7772 71.4197L68.1372 71.3322C68.575 71.2349 68.5848 71.3808 68.1956 72.1105C67.7383 72.9765 67.5048 74.9807 67.8259 75.4088C67.9232 75.5451 67.9231 75.6715 67.7967 76.012C67.6994 76.265 67.6799 76.4693 67.7383 76.5083C67.7967 76.5569 67.8356 76.7126 67.8356 76.8683C67.8356 77.0629 67.9134 77.1699 68.0983 77.2185C68.3318 77.2769 68.3707 77.3742 68.4096 77.812L68.4388 78.318L68.7015 77.8607C69.0421 77.2574 69.2269 77.4326 69.0518 78.1818C68.8085 79.2326 68.8766 79.6412 69.3826 80.1861C69.655 80.4877 69.801 80.7406 69.762 80.8671C69.7426 80.9742 69.6745 81.2952 69.6453 81.5774C69.5772 82.0444 69.5869 82.093 69.801 82.093C69.9177 82.093 70.0442 82.1417 70.0831 82.2098C70.1123 82.2682 70.2193 82.2973 70.3069 82.2487C70.4236 82.2 70.4723 82.2682 70.4723 82.4919C70.4723 82.9492 70.6085 83.5428 70.7058 83.5428C70.7544 83.5428 70.8031 83.3384 70.8226 83.0952C70.842 82.7741 70.9101 82.6282 71.0561 82.599C71.1728 82.5795 71.2409 82.6379 71.2409 82.7936C71.2409 82.9395 71.3382 83.0563 71.4744 83.0952C71.6496 83.1438 71.6788 83.2314 71.6301 83.4162C71.5523 83.6692 71.562 83.6692 71.8247 83.4746C71.9804 83.3676 72.282 82.9784 72.5155 82.6184C72.7393 82.2585 72.9339 81.9665 72.9533 81.9665C72.9631 81.9665 73.1285 82.1222 73.3133 82.3168C73.5176 82.5309 73.6539 82.7838 73.6539 82.9784C73.6539 83.1925 73.7025 83.2703 73.8095 83.2216C73.9457 83.173 73.9652 83.3871 73.9263 84.5157C73.8971 86.0335 73.829 86.5102 73.5468 87.561C72.7587 90.4799 72.7587 90.5577 73.5566 90.5772C73.7901 90.5772 74.0528 90.6453 74.1111 90.7231C74.2571 90.8788 74.2765 91.521 74.1403 92.2701C74.043 92.8928 74.2182 93.2431 74.87 93.7004C75.8333 94.3717 76.7284 94.615 78.5867 94.6733C80.1921 94.7415 80.3089 94.7317 80.5035 94.5079C80.6105 94.3717 80.8245 94.1966 80.9607 94.1187C81.1262 94.0214 81.204 93.8658 81.204 93.6517C81.204 93.2042 80.6105 91.4528 80.2116 90.6648C80.0364 90.3242 79.8905 89.9837 79.8905 89.8961C79.8905 89.8086 79.6473 89.147 79.3554 88.4075C78.8592 87.1913 78.8008 86.9286 78.6451 85.4497C78.4116 83.2995 78.5089 82.2487 79.1121 80.3417C79.8419 78.0066 80.484 76.3137 80.6202 76.3137C80.6883 76.3137 80.844 76.5861 80.9607 76.9267C81.097 77.3353 81.1943 77.4812 81.2332 77.3547C81.3305 77.0823 82.0213 77.345 82.1769 77.705C82.245 77.8607 82.3326 77.9969 82.3813 77.9969C82.4299 77.9969 82.5564 78.1915 82.6634 78.4153C82.7802 78.639 82.9456 78.8336 83.0331 78.8336C83.111 78.8336 83.2083 78.9406 83.2375 79.0769C83.2666 79.2131 83.3542 79.3201 83.4321 79.3201C83.5196 79.3201 83.6072 79.4174 83.6364 79.5342C83.7142 79.7871 84.191 80.2055 84.5412 80.332C84.6969 80.3806 84.7942 80.3514 84.8331 80.225C84.9304 79.9331 85.1153 80.0206 85.2515 80.4098C85.3293 80.6725 85.4169 80.7601 85.5434 80.7114C85.6796 80.6628 85.7769 80.7309 85.8547 80.9158C85.9617 81.1882 85.9617 81.1882 86.1369 80.8185C86.3412 80.3709 86.4774 80.3028 86.9541 80.3709C87.2655 80.4293 87.3044 80.4779 87.3044 80.8185C87.3141 81.2466 87.5087 81.5968 87.7228 81.5287C87.8006 81.4898 87.859 81.5871 87.859 81.7817C87.859 82.2779 88.0439 82.2487 88.2287 81.733C88.326 81.4703 88.472 81.2563 88.5498 81.2563C88.7152 81.2563 88.9584 81.7525 88.9584 82.1027C88.9584 82.239 89.0752 82.4627 89.2309 82.6281C89.5422 82.9687 89.5227 83.0173 89.5617 81.879C89.5714 81.3633 89.7952 81.0325 89.9898 81.2563C90.0481 81.3147 90.1941 81.3049 90.3595 81.2466C90.5152 81.1882 90.7 81.1493 90.7779 81.1882C90.846 81.2076 90.9335 81.1395 90.9627 81.0033C91.0308 80.7114 91.3616 80.7017 91.4297 80.9839C91.4589 81.1006 91.5368 81.2952 91.5951 81.4023C91.7605 81.7428 91.7119 82.0638 91.42 82.6963C91.2643 83.0173 91.1476 83.4162 91.1476 83.5622C91.1476 83.7179 91.0697 83.9708 90.9725 84.1168C90.7292 84.4865 90.807 84.5352 91.3908 84.3698C92.3638 84.0779 92.5 84.5157 91.8092 85.8389C91.566 86.3059 91.3714 86.7632 91.3714 86.8508C91.3714 87.0551 91.7897 87.3956 92.0524 87.3956C92.3054 87.3956 92.5778 87.8529 92.5778 88.3005C92.5778 88.4951 92.4805 88.9524 92.354 89.3026L92.1303 89.9253L92.5389 90.4215C93.1616 91.1804 93.9886 91.5599 95.9637 92.0171C96.4113 92.1144 97.0729 92.2312 97.4134 92.2799C97.9875 92.348 98.0556 92.3285 98.3085 92.0561C98.4642 91.8907 98.7172 91.7058 98.8923 91.6474C99.3204 91.4918 99.3301 91.1902 98.9215 89.9643C98.435 88.5243 98.1626 87.1232 98.1529 86.2378C98.1529 85.8292 98.0361 84.9243 97.8804 84.2335C97.7248 83.533 97.608 82.6865 97.608 82.3362C97.608 81.1103 97.5204 80.8963 96.5475 79.5244C95.341 77.8412 95.3216 77.8023 95.1367 77.0434C94.8059 75.7494 94.7572 75.1169 94.9421 74.8153C95.0297 74.6597 95.0783 74.4748 95.0297 74.4067C95.0005 74.3483 94.9518 73.7548 94.9421 73.1224C94.9324 72.2662 94.874 71.8478 94.7183 71.5462C94.5432 71.1862 94.5432 71.05 94.6502 70.3786C94.7281 69.9603 94.7572 69.5322 94.7281 69.4252C94.6794 69.3279 94.7086 69.2208 94.7572 69.1819C94.8254 69.1333 94.8643 68.9581 94.8643 68.7733C94.8643 68.5884 94.981 68.063 95.1367 67.6057C95.2924 67.1484 95.4091 66.6814 95.4091 66.5744C95.4091 66.1755 95.8761 65.1442 96.0318 65.2026C96.1291 65.2512 96.1778 65.1636 96.1778 64.9593C96.1778 64.755 96.2653 64.6382 96.4502 64.5507C96.6059 64.4923 96.7226 64.3561 96.7226 64.2782C96.7226 64.0739 97.0729 63.7139 97.2675 63.7139C97.3648 63.7139 97.3842 63.8306 97.3453 64.142C97.2967 64.4436 97.3258 64.5507 97.4134 64.5117C97.4912 64.4923 97.5594 64.3561 97.5788 64.2199C97.5983 64.0739 97.715 63.8696 97.8318 63.7528C98.0556 63.5388 98.0653 63.5388 98.2793 63.8598C98.5226 64.2198 98.7172 64.2685 98.9118 64.0058C98.9896 63.8988 99.1355 63.8501 99.2426 63.8891C99.3399 63.928 99.5053 63.8501 99.622 63.7042C99.9334 63.3344 100.4 63.101 100.546 63.2566C100.624 63.3442 100.721 63.3247 100.867 63.1885C101.091 62.9745 101.879 62.8966 101.879 63.101C101.879 63.3637 102.161 63.1885 102.726 62.5561C103.057 62.1961 103.358 61.8945 103.426 61.8945C103.494 61.8945 103.504 62.0599 103.455 62.3129C103.378 62.7799 103.455 62.8285 103.767 62.5269C103.952 62.3421 103.971 62.342 104.107 62.5366C104.224 62.7312 104.263 62.702 104.438 62.3129C104.672 61.7875 104.876 61.8653 104.788 62.4685L104.73 62.9161L104.895 62.5269C105.158 61.9042 105.742 61.7194 105.528 62.3323C105.46 62.5367 105.46 62.5367 105.684 62.3323C105.956 62.0696 106.044 62.1767 106.044 62.7604V63.2274L106.394 62.8577C106.579 62.6534 106.773 62.488 106.822 62.488C106.978 62.488 107.046 62.8966 106.968 63.422C106.9 63.928 106.9 63.9377 107.124 63.7918C107.318 63.6556 107.386 63.6555 107.552 63.8307C107.659 63.928 107.814 63.9863 107.892 63.9669C107.98 63.928 108.028 64.0642 108.028 64.3852C108.028 64.6577 108.096 64.9301 108.194 65.008C108.379 65.1734 108.379 65.1928 108.554 64.7355C108.719 64.3269 109.011 64.3074 109.011 64.7161C109.011 64.8815 109.069 65.0177 109.128 65.0177C109.206 65.0177 109.215 65.2123 109.157 65.5625C109.079 66.1268 109.157 66.2339 109.4 65.8836C109.507 65.7182 109.566 65.6988 109.673 65.835C109.78 65.942 109.789 66.0587 109.682 66.3798C109.605 66.5938 109.546 66.9539 109.546 67.1776C109.546 67.5182 109.566 67.5668 109.712 67.4306C109.994 67.1776 110.072 67.4112 109.887 67.9755C109.721 68.4717 109.731 68.5203 109.896 68.6565C110.003 68.7441 110.159 69.0068 110.247 69.2306C110.334 69.4738 110.519 69.7365 110.665 69.8241C110.83 69.9214 110.986 70.1744 111.074 70.5052C111.152 70.797 111.317 71.0986 111.424 71.1667C111.531 71.2251 111.716 71.4781 111.842 71.731C111.949 71.9743 112.163 72.2856 112.29 72.4121C112.426 72.5483 112.611 72.8111 112.699 72.9862C112.844 73.2975 112.874 73.3073 112.99 73.1321C113.185 72.8402 113.506 73.0445 113.934 73.7353C114.294 74.3094 114.43 74.4164 114.314 74.0467C114.207 73.6575 114.489 73.5992 114.751 73.9591L114.985 74.2705L115.131 73.677C115.209 73.3559 115.384 72.9473 115.53 72.7721C115.676 72.6067 115.812 72.3537 115.861 72.2175C115.968 71.8283 116.221 71.9257 116.308 72.4024C116.357 72.704 116.425 72.8208 116.581 72.8208C116.727 72.8208 116.785 72.7332 116.785 72.5484C116.785 72.0522 116.921 71.7408 117.125 71.7408C117.233 71.7408 117.388 71.624 117.456 71.4684C117.534 71.3224 117.729 71.0403 117.914 70.8457C118.458 70.2425 118.643 69.6197 118.711 68.1798C118.76 67.2068 118.848 66.7009 119.042 66.1463C119.373 65.2317 119.47 64.1615 119.324 62.9744C119.208 61.9626 119.266 61.768 119.733 61.768C120.288 61.768 121.124 61.4178 121.718 60.9216C122.039 60.6589 122.389 60.4448 122.486 60.4448C122.593 60.4448 122.798 60.3475 122.934 60.221C123.08 60.1042 123.372 59.9583 123.576 59.9096C124.257 59.754 124.958 59.2773 125.405 58.6838C126.174 57.6719 126.174 57.6719 126.038 55.2784C126.009 54.5779 125.921 53.8579 125.853 53.6633C125.746 53.3617 125.756 53.2935 125.96 53.099C126.252 52.846 126.378 52.272 126.213 51.9412C126.135 51.7757 126.135 51.5714 126.223 51.2309C126.291 50.9779 126.359 50.6277 126.369 50.4623C126.378 50.2969 126.398 50.0439 126.398 49.9077C126.417 49.7228 126.553 49.5866 126.845 49.4601C127.351 49.2363 127.614 48.6526 127.341 48.3996C127.234 48.2926 127.186 48.0591 127.205 47.6407C127.234 47.1153 127.273 47.0277 127.517 46.9693C127.838 46.8818 127.974 46.3661 127.682 46.3661C127.419 46.3661 126.865 45.9769 126.865 45.8018C126.865 45.7337 126.787 45.6072 126.699 45.5489C126.427 45.3932 126.651 44.4689 127.059 44.0797C127.38 43.7878 127.419 43.4764 127.147 43.4764C127.03 43.4764 126.359 43.1651 126.223 43.0484C126.145 42.99 126.427 42.523 126.544 42.523C126.699 42.523 127.41 41.7154 127.41 41.5403C127.41 41.4722 127.507 41.2873 127.633 41.1414C127.896 40.83 127.984 39.3998 127.731 39.3998C127.624 39.3998 127.205 38.9327 127.196 38.7965C127.196 38.7576 127.38 38.5046 127.614 38.2225C127.945 37.8139 128.023 37.629 127.984 37.3566C127.954 37.0647 127.984 36.9869 128.188 36.8896C128.334 36.8409 128.529 36.8214 128.616 36.8506C128.733 36.8993 128.723 36.8506 128.567 36.656C128.46 36.5101 128.276 36.3642 128.159 36.335C127.877 36.2279 127.896 35.7025 128.188 35.3523C128.46 35.0312 128.655 33.6788 128.441 33.5815C128.246 33.494 128.383 32.5599 128.616 32.414C128.908 32.2486 128.879 32.0248 128.558 32.1124C128.383 32.161 128.207 32.1026 128.042 31.9469C127.809 31.7329 127.799 31.694 127.954 31.5578C128.266 31.2853 128.276 30.8962 127.974 30.7502C127.779 30.6529 127.711 30.5459 127.75 30.3805C127.847 29.9816 127.594 29.3005 127.371 29.3005C127.254 29.3005 127.089 29.1448 126.972 28.9405C126.865 28.7362 126.66 28.5416 126.514 28.5124C125.96 28.3956 125.473 28.0162 125.415 27.666C125.386 27.4519 125.259 27.267 125.104 27.1989C124.938 27.1308 124.87 27.0043 124.899 26.8778C124.929 26.7416 124.822 26.5763 124.578 26.4011C124.267 26.1774 124.209 26.0508 124.228 25.7394C124.248 25.2822 124.063 25.0098 123.615 24.8833L123.275 24.786L123.206 23.6282C123.099 21.8282 122.778 20.7093 122.136 19.8044C121.844 19.3958 121.776 19.5321 121.903 20.3007C122.019 20.972 121.961 21.9255 121.766 22.1785C121.689 22.2758 121.543 22.266 121.212 22.0909C120.959 21.9741 120.55 21.8282 120.317 21.7796C120.083 21.731 119.645 21.5363 119.354 21.3515C119.062 21.1569 118.585 20.9818 118.312 20.9331C118.03 20.8942 117.719 20.7872 117.622 20.7094C117.515 20.6023 117.125 20.544 116.581 20.5148C116.114 20.505 115.676 20.4661 115.608 20.4272C115.549 20.4077 115.102 20.3785 114.596 20.3882C113.866 20.3979 113.652 20.3687 113.496 20.1936C113.204 19.8725 112.728 19.6877 112.377 19.7656C112.202 19.8045 111.716 20.1256 111.317 20.4661C110.655 21.0207 110.5 21.0887 110.072 21.0887C109.731 21.079 109.566 21.0304 109.546 20.8942C109.517 20.6704 108.466 20.6412 108.379 20.8747C108.359 20.9622 108.174 21.0109 107.97 20.9915C107.775 20.9817 107.445 21.0109 107.26 21.0596C106.939 21.1471 106.9 21.118 106.9 20.9039C106.9 20.7191 106.783 20.5925 106.452 20.4563C106.092 20.2909 106.014 20.2033 106.073 19.999C106.102 19.8433 106.005 19.5515 105.81 19.2207C105.625 18.9288 105.479 18.6077 105.479 18.5104C105.479 18.4131 105.314 18.1018 105.109 17.8391C104.691 17.2748 104.351 16.477 104.428 16.2435C104.458 16.1559 104.428 16.0586 104.37 16.0197C104.302 15.9808 104.166 15.718 104.039 15.4456C103.689 14.6381 103.494 14.2878 103.407 14.2878C103.232 14.2878 102.385 12.9743 102.434 12.7603C102.463 12.6143 102.366 12.4878 102.142 12.3613C101.967 12.264 101.801 12.0695 101.782 11.943C101.763 11.8068 101.558 11.5733 101.344 11.3982C100.838 11.0382 99.7971 10.4349 99.6512 10.4349C99.5636 10.4349 97.0145 9.12146 96.3723 8.742C96.2653 8.68363 96.1194 8.67387 96.0318 8.70305C95.9442 8.74197 95.7983 8.64469 95.701 8.47929C95.5648 8.25551 95.4578 8.21661 95.1562 8.25553C94.8837 8.29445 94.7183 8.24577 94.5627 8.07063C94.4167 7.91496 94.1637 7.82737 93.8135 7.80791C93.5216 7.79819 93.22 7.73979 93.1519 7.69114C93.0935 7.63277 92.8211 7.53548 92.5486 7.46738C92.2762 7.39928 91.8578 7.27277 91.6146 7.20467C91.3714 7.13656 91.0308 7.04905 90.846 7.01986C90.0092 6.92256 89.153 6.72799 88.9292 6.60151C88.7638 6.50421 88.5984 6.5042 88.3941 6.58203C88.2093 6.65014 88.0244 6.65014 87.8979 6.58203C87.8006 6.52365 87.5574 6.46526 87.3628 6.46526C87.1682 6.46526 86.9639 6.41661 86.9055 6.36796C86.7206 6.22202 84.0839 6.25123 83.8018 6.38744C83.5975 6.5042 83.4807 6.49441 83.1985 6.329C82.8872 6.1636 82.1283 6.06631 81.5932 6.13441C81.5056 6.14414 81.3499 6.11499 81.2624 6.07607C81.1845 5.94959 81.0191 5.99825 80.9024 6.09555ZM68.3026 76.3429C68.3026 76.4596 68.215 76.5861 68.1177 76.6056C67.9232 76.6445 67.8356 76.2845 68.001 76.0996C68.1275 75.9732 68.3026 76.1094 68.3026 76.3429ZM70.6377 81.3536C70.589 81.7039 70.2193 81.8109 70.2193 81.4703C70.2193 81.2076 70.3069 81.0811 70.5112 81.0811C70.6085 81.0811 70.6572 81.1785 70.6377 81.3536Z" fill="#FFFEFE"/>
<path d="M8.32995 51.9215C8.15455 52.0287 8.12532 52.0871 8.23251 52.1066C8.3202 52.1066 8.4956 52.0189 8.61253 51.9215C8.87562 51.7071 8.69048 51.6974 8.32995 51.9215Z" fill="#FFFEFE"/>
<path d="M105.343 62.653C105.294 62.692 105.265 62.7895 105.265 62.8577C105.265 62.9259 105.324 62.9161 105.402 62.8382C105.47 62.77 105.499 62.6725 105.48 62.6335C105.45 62.5848 105.382 62.6043 105.343 62.653Z" fill="#FFFEFE"/>
<path d="M239.72 26C240.96 26 242.033 26.2067 242.94 26.62C243.86 27.0333 244.567 27.62 245.06 28.38C245.553 29.14 245.8 30.04 245.8 31.08C245.8 32.1067 245.553 33.0067 245.06 33.78C244.567 34.54 243.86 35.1267 242.94 35.54C242.033 35.94 240.96 36.14 239.72 36.14H236.9V40H233.66V26H239.72ZM239.54 33.5C240.513 33.5 241.253 33.2933 241.76 32.88C242.267 32.4533 242.52 31.8533 242.52 31.08C242.52 30.2933 242.267 29.6933 241.76 29.28C241.253 28.8533 240.513 28.64 239.54 28.64H236.9V33.5H239.54ZM257.033 40L254.333 36.1H254.173H251.353V40H248.113V26H254.173C255.413 26 256.486 26.2067 257.393 26.62C258.313 27.0333 259.02 27.62 259.513 28.38C260.006 29.14 260.253 30.04 260.253 31.08C260.253 32.12 260 33.02 259.493 33.78C259 34.5267 258.293 35.1 257.373 35.5L260.513 40H257.033ZM256.973 31.08C256.973 30.2933 256.72 29.6933 256.213 29.28C255.706 28.8533 254.966 28.64 253.993 28.64H251.353V33.52H253.993C254.966 33.52 255.706 33.3067 256.213 32.88C256.72 32.4533 256.973 31.8533 256.973 31.08ZM269.6 40.24C268.147 40.24 266.833 39.9267 265.66 39.3C264.5 38.6733 263.587 37.8133 262.92 36.72C262.267 35.6133 261.94 34.3733 261.94 33C261.94 31.6267 262.267 30.3933 262.92 29.3C263.587 28.1933 264.5 27.3267 265.66 26.7C266.833 26.0733 268.147 25.76 269.6 25.76C271.053 25.76 272.36 26.0733 273.52 26.7C274.68 27.3267 275.593 28.1933 276.26 29.3C276.927 30.3933 277.26 31.6267 277.26 33C277.26 34.3733 276.927 35.6133 276.26 36.72C275.593 37.8133 274.68 38.6733 273.52 39.3C272.36 39.9267 271.053 40.24 269.6 40.24ZM269.6 37.48C270.427 37.48 271.173 37.2933 271.84 36.92C272.507 36.5333 273.027 36 273.4 35.32C273.787 34.64 273.98 33.8667 273.98 33C273.98 32.1333 273.787 31.36 273.4 30.68C273.027 30 272.507 29.4733 271.84 29.1C271.173 28.7133 270.427 28.52 269.6 28.52C268.773 28.52 268.027 28.7133 267.36 29.1C266.693 29.4733 266.167 30 265.78 30.68C265.407 31.36 265.22 32.1333 265.22 33C265.22 33.8667 265.407 34.64 265.78 35.32C266.167 36 266.693 36.5333 267.36 36.92C268.027 37.2933 268.773 37.48 269.6 37.48Z" fill="#F7654A"/>
<path d="M142.61 48H159.56V51.87H147.44V56.19H153.26C155.8 56.19 157.73 56.72 159.05 57.78C160.39 58.84 161.06 60.37 161.06 62.37C161.06 64.47 160.32 66.1 158.84 67.26C157.36 68.42 155.27 69 152.57 69H142.61V48ZM152.3 65.4C153.54 65.4 154.49 65.16 155.15 64.68C155.81 64.18 156.14 63.46 156.14 62.52C156.14 60.68 154.86 59.76 152.3 59.76H147.44V65.4H152.3ZM182.927 48L173.987 64.62C173.127 66.22 172.087 67.43 170.867 68.25C169.667 69.07 168.357 69.48 166.937 69.48C165.837 69.48 164.697 69.24 163.517 68.76L164.687 65.07C165.527 65.33 166.227 65.46 166.787 65.46C167.387 65.46 167.927 65.32 168.407 65.04C168.887 64.74 169.327 64.28 169.727 63.66L169.907 63.42L161.627 48H166.817L172.397 59.28L178.157 48H182.927ZM185.237 48H190.067V61.68L200.087 48H204.647V69H199.847V55.35L189.827 69H185.237V48ZM194.927 46.65C191.087 46.65 189.147 45.12 189.107 42.06H192.437C192.477 43.52 193.307 44.25 194.927 44.25C195.727 44.25 196.337 44.07 196.757 43.71C197.177 43.33 197.397 42.78 197.417 42.06H200.747C200.727 43.56 200.237 44.7 199.277 45.48C198.317 46.26 196.867 46.65 194.927 46.65ZM224.426 58.05C225.706 58.43 226.686 59.05 227.366 59.91C228.046 60.77 228.386 61.83 228.386 63.09C228.386 64.95 227.676 66.4 226.256 67.44C224.856 68.48 222.846 69 220.226 69H209.876V48H219.656C222.096 48 223.996 48.47 225.356 49.41C226.716 50.35 227.396 51.69 227.396 53.43C227.396 54.47 227.136 55.39 226.616 56.19C226.096 56.97 225.366 57.59 224.426 58.05ZM214.706 56.7H219.236C220.296 56.7 221.096 56.49 221.636 56.07C222.176 55.63 222.446 54.99 222.446 54.15C222.446 53.33 222.166 52.7 221.606 52.26C221.066 51.82 220.276 51.6 219.236 51.6H214.706V56.7ZM220.046 65.4C222.326 65.4 223.466 64.5 223.466 62.7C223.466 60.96 222.326 60.09 220.046 60.09H214.706V65.4H220.046ZM242.249 69.36C240.069 69.36 238.099 68.89 236.339 67.95C234.599 67.01 233.229 65.72 232.229 64.08C231.249 62.42 230.759 60.56 230.759 58.5C230.759 56.44 231.249 54.59 232.229 52.95C233.229 51.29 234.599 49.99 236.339 49.05C238.099 48.11 240.069 47.64 242.249 47.64C244.429 47.64 246.389 48.11 248.129 49.05C249.869 49.99 251.239 51.29 252.239 52.95C253.239 54.59 253.739 56.44 253.739 58.5C253.739 60.56 253.239 62.42 252.239 64.08C251.239 65.72 249.869 67.01 248.129 67.95C246.389 68.89 244.429 69.36 242.249 69.36ZM242.249 65.22C243.489 65.22 244.609 64.94 245.609 64.38C246.609 63.8 247.389 63 247.949 61.98C248.529 60.96 248.819 59.8 248.819 58.5C248.819 57.2 248.529 56.04 247.949 55.02C247.389 54 246.609 53.21 245.609 52.65C244.609 52.07 243.489 51.78 242.249 51.78C241.009 51.78 239.889 52.07 238.889 52.65C237.889 53.21 237.099 54 236.519 55.02C235.959 56.04 235.679 57.2 235.679 58.5C235.679 59.8 235.959 60.96 236.519 61.98C237.099 63 237.889 63.8 238.889 64.38C239.889 64.94 241.009 65.22 242.249 65.22ZM275.617 48V69H270.817V51.96H263.617L263.467 56.34C263.367 59.32 263.127 61.74 262.747 63.6C262.367 65.44 261.727 66.86 260.827 67.86C259.947 68.84 258.707 69.33 257.107 69.33C256.447 69.33 255.647 69.22 254.707 69L255.007 64.89C255.267 64.97 255.557 65.01 255.877 65.01C257.037 65.01 257.847 64.33 258.307 62.97C258.767 61.59 259.057 59.44 259.177 56.52L259.477 48H275.617Z" fill="#FFFCFC"/>
</svg>
