<svg width="168" height="60" viewBox="0 0 168 60" fill="none" xmlns="http://www.w3.org/2000/svg">
<path d="M0 60H81V0H0V60Z" fill="#F7654A"/>
<path d="M47.7261 5.19702C47.5843 5.31844 47.3772 5.33498 47.2845 5.23012C47.2409 5.18044 47.1428 5.19702 46.9575 5.27981C46.7448 5.37363 46.6359 5.39016 46.3797 5.32944C46.1725 5.27978 46.0362 5.27978 45.9708 5.32944C45.9054 5.37912 45.8127 5.36812 45.671 5.31845C45.5074 5.25775 45.4475 5.26323 45.3712 5.34049C45.2567 5.45639 44.4064 5.43432 44.2973 5.3129C44.1992 5.20252 43.9049 5.23013 43.8449 5.35154C43.7958 5.44537 43.7577 5.45642 43.5887 5.39019C43.4578 5.335 43.3543 5.33499 43.2834 5.37914C43.2289 5.41225 43.158 5.4178 43.1362 5.40124C43.1199 5.37364 43.0326 5.39568 42.9509 5.43983C42.8419 5.50606 42.771 5.50607 42.6729 5.45088C42.5802 5.39017 42.4439 5.39569 42.1659 5.45088C41.9534 5.50055 41.6153 5.53919 41.4137 5.54471C41.212 5.55023 40.9885 5.59438 40.9231 5.6275C40.8577 5.66613 40.6669 5.7213 40.4925 5.74337C40.3289 5.77097 39.9528 5.88136 39.6639 5.98623C39.2114 6.1518 38.65 6.27872 38.3011 6.29528C38.2466 6.29528 38.1757 6.31737 38.1539 6.34497C38.1266 6.37808 38.0449 6.40016 37.9631 6.40016C37.8814 6.40016 37.7723 6.42773 37.7124 6.46084C37.6579 6.49396 37.4398 6.57123 37.2381 6.63746C37.0364 6.69817 36.7966 6.79198 36.7039 6.84717C36.6167 6.90237 36.4913 6.94101 36.4205 6.94101C36.3605 6.94101 36.2242 7.00725 36.1261 7.09003C35.9735 7.23353 35.6682 7.34389 35.0904 7.46534C34.9922 7.4874 34.8451 7.55916 34.7797 7.63642C34.7034 7.71367 34.5943 7.76331 34.5344 7.7578C34.3054 7.72468 34.0002 7.84612 33.9783 7.97858C33.9511 8.0724 33.8857 8.10002 33.6731 8.10002C33.5259 8.10002 33.3297 8.13865 33.237 8.19384C33.1443 8.24904 32.9536 8.31523 32.8282 8.3373C32.6919 8.36492 32.5556 8.41461 32.5229 8.44218C32.3758 8.55807 31.8579 8.72915 31.7543 8.69602C31.6944 8.67396 31.5799 8.70158 31.5199 8.75677C31.3836 8.86166 30.7949 8.97749 30.1408 9.02718C29.9118 9.03824 29.6611 9.08787 29.5739 9.121C29.4866 9.15413 29.2414 9.20382 29.0233 9.23138C28.7998 9.25901 28.5927 9.3197 28.5545 9.36934C28.5163 9.42453 28.3964 9.46322 28.2928 9.46322C28.1675 9.46322 28.0694 9.51285 28.0203 9.60117C27.9767 9.67843 27.8894 9.73918 27.8241 9.73918C27.7641 9.73918 27.6769 9.79431 27.6442 9.85501C27.4698 10.1917 27.3934 10.2359 27.0446 10.2635C26.8483 10.2745 26.5158 10.3683 26.3087 10.4621C26.1015 10.5504 25.9053 10.6277 25.8726 10.6277C25.8398 10.6277 25.7308 10.6774 25.6381 10.7326C25.54 10.7878 25.3929 10.8375 25.3056 10.8375C25.0113 10.843 24.4934 11.0141 24.4225 11.1299C24.319 11.2845 23.9429 11.45 22.9562 11.7757C21.9477 12.1123 21.4245 12.2337 20.3888 12.3607C18.8133 12.5649 17.914 12.9457 16.3277 14.1047C15.9243 14.3972 15.7608 14.4634 15.3465 14.5462C15.0684 14.6013 14.6106 14.7228 14.3217 14.8166C14.0327 14.9104 13.6075 15.0429 13.3732 15.0981C13.1388 15.1533 12.8226 15.2913 12.6699 15.3906C12.5173 15.501 12.272 15.6279 12.1194 15.6721C11.9668 15.7218 11.7488 15.8266 11.6397 15.915C11.5361 16.0088 11.3508 16.1191 11.2418 16.1577C11.0619 16.2239 10.7948 16.4006 10.157 16.8697C9.29027 17.5044 8.35816 19.0883 8.16189 20.2694C8.13467 20.3963 8.08015 20.5399 8.03107 20.5895C7.98202 20.6282 7.94386 20.7716 7.94386 20.9041C7.94386 21.0752 7.87844 21.2462 7.71491 21.4891C7.56228 21.7154 7.51867 21.8257 7.58954 21.7871C7.69856 21.7375 7.73672 21.8423 7.63314 21.9085C7.60044 21.9306 7.54047 22.0189 7.49687 22.1017C7.4369 22.2286 7.44235 22.2452 7.52412 22.1624C7.69856 22.0134 7.71491 22.19 7.57863 22.626C7.50232 22.8523 7.44781 23.0841 7.44781 23.1448C7.44781 23.3269 7.56228 23.1779 7.63859 22.902C7.6822 22.7529 7.76397 22.5819 7.82938 22.5212C7.93295 22.4108 7.93841 22.4108 7.93841 22.5543C7.93841 22.6426 7.85664 22.9075 7.75306 23.1559C7.55138 23.647 7.50232 24.0058 7.6604 23.8567C7.71491 23.807 7.76942 23.7795 7.78577 23.8015C7.82938 23.8512 7.83484 25.0102 7.79122 25.3966L7.75306 25.7332L7.85664 25.507C7.91115 25.3911 7.97111 25.2862 7.99291 25.2862C8.07466 25.2862 8.05287 26.0423 7.96566 26.2685C7.9166 26.3955 7.87299 26.5611 7.87299 26.6273C7.87299 26.7321 7.88934 26.7211 7.97111 26.5942C8.11831 26.3569 8.20005 26.412 8.15646 26.7101C8.1401 26.8591 8.15103 27.0522 8.18918 27.1406C8.2382 27.2675 8.22733 27.3779 8.12918 27.6594C8.05287 27.8581 7.99836 28.0678 7.99836 28.123C7.99836 28.294 8.10738 28.1616 8.15103 27.9463C8.17825 27.8359 8.21641 27.72 8.25456 27.7035C8.33636 27.6483 8.42903 27.7973 8.42903 27.9849C8.42903 28.123 8.04743 28.8625 7.84574 29.1109C7.78577 29.1881 7.76397 29.2488 7.80213 29.2488C7.84029 29.2488 7.96021 29.1384 8.06379 29.0115C8.17282 28.8846 8.28728 28.7742 8.31451 28.7742C8.39087 28.7742 8.31451 29.1771 8.20548 29.3703C8.15646 29.453 8.11831 29.602 8.11831 29.6959C8.11831 29.7897 8.0583 30.0049 7.98202 30.1595C7.9057 30.314 7.80758 30.5348 7.75852 30.6506L7.67675 30.8493L7.84029 30.6838C7.9275 30.5899 8.04743 30.4023 8.11282 30.2754C8.25456 29.9663 8.45082 29.7731 8.56528 29.8173C8.6198 29.8449 8.66888 29.8062 8.69611 29.7234C8.72339 29.6462 8.7997 29.5523 8.87057 29.5192C8.94688 29.4806 9.05591 29.3537 9.11586 29.2323C9.26304 28.9508 9.40473 27.698 9.42109 26.5942L9.42658 25.7442L9.13222 25.0765C8.88144 24.508 8.82693 24.3203 8.78334 23.8512C8.58708 21.5333 8.95775 19.6292 9.80812 18.6192C10.0698 18.3046 10.822 17.8024 11.0237 17.8024C11.1709 17.8024 11.1382 17.9956 10.942 18.3433C10.7294 18.7186 10.2442 20.0266 10.0698 20.7054C10.0044 20.9648 9.91714 21.605 9.87899 22.1183C9.80268 23.0234 9.81361 23.0952 9.97166 24.0941C10.0861 24.795 10.2606 25.529 10.5059 26.3293C10.8875 27.5987 11.1 28.1395 11.7923 29.602C12.2775 30.6341 12.6536 31.9421 12.6536 32.6154C12.6536 33.2832 12.4301 34.0724 12.054 34.7513C11.5307 35.684 10.7457 36.694 10.157 37.1796C9.87356 37.4169 9.81904 37.4942 9.71002 37.9082C9.63371 38.162 9.5574 38.6422 9.52468 38.9843C9.49196 39.332 9.38293 39.9005 9.2794 40.2648C9.03406 41.1147 8.90873 41.8322 8.90873 42.4392C8.90873 42.7097 8.81057 43.5596 8.69611 44.3157C8.5217 45.4361 8.44533 45.7837 8.28728 46.1259C8.14554 46.446 8.08559 46.6944 8.04743 47.1304C8.01471 47.4505 7.93841 47.8809 7.87299 48.0851C7.80758 48.2893 7.70946 48.6371 7.64949 48.8468C7.60044 49.0565 7.52412 49.2552 7.49687 49.2773C7.39329 49.3435 6.96811 50.0831 6.89725 50.3149C6.85909 50.4307 6.84818 50.5963 6.86454 50.6681C6.89179 50.7895 6.9463 50.8116 7.20251 50.8116C7.57318 50.8116 7.70946 50.8888 7.83484 51.1538C7.97111 51.4407 7.94931 52.2024 7.80213 52.688C7.58954 53.3779 7.63859 53.5269 8.09651 53.5876L8.4181 53.6262V53.974C8.4181 54.4154 8.56528 54.6914 8.92503 54.9232C9.39386 55.2323 9.80812 55.3095 10.9147 55.3095C11.9068 55.3095 11.9122 55.3095 12.0158 55.1384C12.0704 55.0501 12.1739 54.9563 12.2448 54.9287C12.4083 54.8735 12.4737 54.7797 12.4737 54.5755C12.4737 54.4044 12.2121 53.9353 11.9886 53.7091C11.9122 53.6428 11.7269 53.3503 11.5689 53.0633C11.2254 52.4452 10.9801 52.1361 10.6803 51.965C10.5549 51.8988 10.4405 51.7829 10.4241 51.7222C10.2878 51.2421 10.2006 50.4859 10.2006 49.8181C10.2006 49.1504 10.2442 48.8137 10.5059 47.4174C10.8112 45.7948 11.0455 45 11.6615 43.4934C12.163 42.2736 13.226 40.7062 14.0055 40.0274C14.5124 39.5914 14.725 39.3652 15.0903 38.8519C15.3301 38.5263 15.4446 38.3993 15.4937 38.4545C15.5373 38.5042 15.5373 38.8077 15.4882 39.4645C15.4392 40.1875 15.3737 40.6014 15.1993 41.2582C14.9267 42.2902 14.8777 42.6766 14.9867 42.9028C15.0358 42.9911 15.2811 43.3885 15.5318 43.7804C15.788 44.1777 16.3986 45.2594 16.8891 46.2032C17.3743 47.1359 18.023 48.3832 18.3336 48.9682C18.9715 50.1603 19.9036 52.092 20.0072 52.4341C20.0562 52.5997 20.0617 52.8591 20.0181 53.3393C19.9363 54.272 19.9418 54.283 20.694 54.4265C21.1846 54.5203 21.3481 54.6362 21.4135 54.9232C21.4572 55.1054 21.528 55.1826 21.9532 55.4144L22.4384 55.6848L23.4795 55.7069C24.6461 55.7345 25.1312 55.6848 25.2566 55.5524C25.3002 55.4972 25.3601 55.3482 25.382 55.2102C25.4364 54.9011 25.3329 54.6528 24.8259 53.8304C24.4389 53.2178 24.3299 53.0854 23.8284 52.6825C23.5449 52.4563 22.591 51.3248 22.035 50.5687C21.5008 49.8347 20.4215 47.8975 20.1162 47.1194C19.6093 45.8444 19.5711 45.5795 19.5656 43.5099C19.5656 41.9591 19.5765 41.6776 19.6638 41.5341C19.7183 41.4403 19.7782 41.2085 19.8 41.0208C19.8164 40.8277 19.86 40.48 19.8981 40.2371C19.9308 39.9943 19.9908 39.2879 20.029 38.6698C20.1325 36.9368 20.2143 36.4511 20.7758 34.3704C21.0374 33.4102 21.1792 33.0072 21.2663 33.0072C21.528 33.0072 23.2234 34.2601 24.875 35.6729C26.0415 36.6829 26.5867 37.0858 27.1481 37.3728C28.3201 37.9744 28.5818 38.1565 28.7289 38.4435C28.8053 38.5925 28.8871 38.9347 28.9197 39.1885C28.9742 39.6576 29.2632 40.5793 29.3558 40.5793C29.3831 40.5793 29.4376 40.4248 29.4812 40.2371C29.5357 39.9722 29.5739 39.9115 29.6338 39.9667C29.7319 40.0551 29.8082 39.9557 29.9064 39.619C29.9446 39.4921 30.059 39.31 30.1571 39.2217C30.2553 39.1389 30.3861 39.0009 30.4351 38.9126C30.566 38.6919 30.4624 38.3883 30.1735 38.1509C30.0481 38.0405 29.9282 37.9247 29.9009 37.8916C29.8082 37.7481 29.8573 37.5715 29.9991 37.5107C30.0808 37.4777 30.1626 37.4169 30.1898 37.3838C30.2389 37.29 30.4842 37.29 30.5714 37.3838C30.6259 37.4445 30.6859 37.4225 30.8221 37.3176C30.9257 37.2348 31.0511 37.1962 31.1002 37.2127C31.1547 37.2348 31.2528 37.2127 31.3346 37.1741C31.4109 37.1245 31.6671 37.0803 31.9069 37.0637C32.3485 37.0361 32.5611 36.9754 32.8827 36.7822C32.9863 36.7215 33.128 36.6939 33.2316 36.716C33.3297 36.7436 33.4441 36.716 33.515 36.6608C33.5804 36.6057 33.6949 36.5836 33.7658 36.6002C33.8475 36.6277 33.9457 36.5891 34.0165 36.5063C34.0929 36.4235 34.3 36.3408 34.5562 36.2856C34.9105 36.2193 35.0523 36.2193 35.4502 36.3131C35.8263 36.4014 35.9571 36.4014 36.0934 36.3408C36.1861 36.3021 36.4313 36.2579 36.633 36.2469C37.7178 36.1862 37.9032 36.2138 37.7723 36.3849C37.6742 36.5228 37.7451 36.556 38.0013 36.4898C38.3774 36.3959 38.5791 36.4235 38.8953 36.6002C39.0588 36.694 39.2332 36.7712 39.2823 36.7712C39.3259 36.7712 39.364 36.8044 39.364 36.8485C39.364 36.8982 39.4186 36.9092 39.5004 36.8871C39.5657 36.8651 39.7075 36.8926 39.8111 36.9478C39.9637 37.0361 39.9855 37.0858 39.9528 37.2569L39.9201 37.4556L40.4161 37.4335C40.8686 37.4224 40.9177 37.428 40.9994 37.5714C41.0539 37.6598 41.1466 37.726 41.212 37.726C41.272 37.726 41.4519 37.8033 41.6045 37.8971C41.7571 37.9909 41.9588 38.0682 42.0569 38.0682C42.1605 38.0682 42.2477 38.0903 42.2477 38.1179C42.2532 38.151 42.2641 38.2393 42.2749 38.3165C42.2804 38.3993 42.3077 38.4932 42.3295 38.5428C42.3567 38.5815 42.3186 38.747 42.2532 38.9181C42.1878 39.0837 42.1441 39.2934 42.1605 39.3817C42.1986 39.6024 42.0787 39.8618 41.7571 40.2703C41.6153 40.4413 41.5064 40.6069 41.5064 40.6235C41.5064 40.6455 41.5936 40.6455 41.6917 40.618C42.046 40.5407 41.877 40.8387 41.321 41.2471C41.0866 41.4237 40.8904 41.5948 40.8904 41.6225C40.8904 41.6555 40.7759 41.8156 40.6342 41.9701L40.3725 42.2516L40.5742 42.2019C40.8195 42.1468 40.825 42.2295 40.6069 42.6434C40.3507 43.1347 40.2199 44.2715 40.3998 44.5144C40.4543 44.5917 40.4543 44.6634 40.3834 44.8565C40.3289 45 40.318 45.1159 40.3507 45.138C40.3834 45.1656 40.4052 45.2539 40.4052 45.3423C40.4052 45.4526 40.4488 45.5133 40.5524 45.5409C40.6832 45.574 40.705 45.6292 40.7268 45.8776L40.7432 46.1646L40.8904 45.9052C41.0812 45.563 41.1847 45.6623 41.0866 46.0873C40.9503 46.6834 40.9885 46.9152 41.272 47.2242C41.4246 47.3953 41.5064 47.5388 41.4845 47.6105C41.4737 47.6713 41.4355 47.8534 41.4191 48.0134C41.381 48.2783 41.3864 48.3059 41.5064 48.3059C41.5718 48.3059 41.6426 48.3335 41.6644 48.3722C41.6808 48.4053 41.7407 48.4218 41.7898 48.3942C41.8552 48.3666 41.8825 48.4053 41.8825 48.5322C41.8825 48.7916 41.9588 49.1283 42.0133 49.1283C42.0405 49.1283 42.0678 49.0124 42.0787 48.8744C42.0896 48.6923 42.1278 48.6095 42.2096 48.5929C42.2749 48.5819 42.3131 48.615 42.3131 48.7033C42.3131 48.7861 42.3676 48.8523 42.4439 48.8744C42.5421 48.902 42.5584 48.9517 42.5312 49.0565C42.4876 49.2 42.493 49.2 42.6402 49.0896C42.7274 49.0289 42.8964 48.8082 43.0272 48.6039C43.1526 48.3998 43.2616 48.2342 43.2725 48.2342C43.278 48.2342 43.3707 48.3225 43.4742 48.4329C43.5887 48.5543 43.665 48.6978 43.665 48.8082C43.665 48.9296 43.6922 48.9737 43.7522 48.9461C43.8285 48.9185 43.8394 49.04 43.8176 49.6802C43.8013 50.5411 43.7631 50.8115 43.605 51.4076C43.1635 53.0633 43.1635 53.1074 43.6105 53.1185C43.7413 53.1185 43.8885 53.1571 43.9212 53.2013C44.003 53.2896 44.0138 53.6539 43.9375 54.0788C43.883 54.432 43.9812 54.6307 44.3464 54.8901C44.8861 55.2709 45.3875 55.4089 46.4287 55.442C47.3281 55.4807 47.3936 55.4751 47.5026 55.3482C47.5625 55.2709 47.6824 55.1716 47.7588 55.1274C47.8515 55.0722 47.8951 54.9839 47.8951 54.8625C47.8951 54.6086 47.5625 53.6152 47.3391 53.1682C47.2409 52.975 47.1592 52.7818 47.1592 52.7322C47.1592 52.6825 47.0229 52.3072 46.8594 51.8878C46.5814 51.1979 46.5486 51.0489 46.4614 50.21C46.3306 48.9903 46.3851 48.3942 46.723 47.3125C47.1319 45.9879 47.4917 45.0277 47.568 45.0277C47.6061 45.0277 47.6934 45.1822 47.7588 45.3754C47.8351 45.6071 47.8896 45.6899 47.9114 45.6182C47.9659 45.4636 48.353 45.6127 48.4401 45.8169C48.4783 45.9052 48.5274 45.9824 48.5547 45.9824C48.5819 45.9824 48.6528 46.0928 48.7127 46.2198C48.7782 46.3467 48.8708 46.4571 48.9198 46.4571C48.9635 46.4571 49.018 46.5177 49.0344 46.5951C49.0507 46.6723 49.0997 46.733 49.1434 46.733C49.1924 46.733 49.2415 46.7882 49.2578 46.8545C49.3014 46.9979 49.5686 47.2352 49.7648 47.307C49.852 47.3346 49.9065 47.318 49.9283 47.2463C49.9828 47.0807 50.0864 47.1304 50.1627 47.3511C50.2063 47.5001 50.2554 47.5498 50.3263 47.5222C50.4026 47.4946 50.4571 47.5333 50.5007 47.6382C50.5606 47.7927 50.5606 47.7927 50.6588 47.583C50.7733 47.3291 50.8496 47.2904 51.1166 47.3291C51.2911 47.3622 51.3129 47.3898 51.3129 47.583C51.3183 47.8258 51.4274 48.0245 51.5473 47.9858C51.5909 47.9638 51.6236 48.0189 51.6236 48.1293C51.6236 48.4108 51.7272 48.3942 51.8307 48.1017C51.8853 47.9527 51.9671 47.8313 52.0106 47.8313C52.1033 47.8313 52.2396 48.1128 52.2396 48.3114C52.2396 48.3887 52.305 48.5156 52.3922 48.6094C52.5667 48.8026 52.5557 48.8302 52.5776 48.1845C52.583 47.892 52.7084 47.7044 52.8174 47.8313C52.8501 47.8644 52.9319 47.8589 53.0246 47.8258C53.1118 47.7927 53.2153 47.7706 53.259 47.7927C53.2971 47.8037 53.3461 47.7651 53.3625 47.6878C53.4007 47.5222 53.586 47.5167 53.6242 47.6768C53.6405 47.743 53.6842 47.8534 53.7168 47.9141C53.8095 48.1073 53.7823 48.2894 53.6187 48.6481C53.5315 48.8302 53.4661 49.0565 53.4661 49.1393C53.4661 49.2276 53.4225 49.3711 53.368 49.4539C53.2317 49.6636 53.2753 49.6912 53.6024 49.5974C54.1475 49.4318 54.2238 49.6802 53.8368 50.4307C53.7005 50.6956 53.5915 50.955 53.5915 51.0047C53.5915 51.1206 53.8258 51.3138 53.973 51.3138C54.1148 51.3138 54.2674 51.5732 54.2674 51.8271C54.2674 51.9375 54.2129 52.1968 54.142 52.3955L54.0167 52.7487L54.2456 53.0302C54.5945 53.4607 55.0578 53.6759 56.1644 53.9353C56.4152 53.9905 56.7858 54.0567 56.9766 54.0843C57.2982 54.123 57.3364 54.1119 57.4781 53.9574C57.5653 53.8636 57.7071 53.7587 57.8052 53.7256C58.045 53.6373 58.0505 53.4662 57.8215 52.7708C57.549 51.954 57.3964 51.1593 57.3909 50.657C57.3909 50.4252 57.3255 49.9119 57.2382 49.5201C57.1511 49.1227 57.0856 48.6426 57.0856 48.4439C57.0856 47.7485 57.0366 47.6271 56.4915 46.8489C55.8155 45.8941 55.8046 45.8721 55.7011 45.4416C55.5157 44.7076 55.4884 44.3488 55.592 44.1777C55.6411 44.0894 55.6683 43.9846 55.6411 43.9459C55.6247 43.9128 55.5975 43.5761 55.592 43.2174C55.5866 42.7317 55.5539 42.4944 55.4666 42.3233C55.3685 42.1191 55.3685 42.0419 55.4285 41.661C55.4721 41.4237 55.4884 41.1809 55.4721 41.1202C55.4448 41.065 55.4612 41.0043 55.4884 40.9822C55.5266 40.9546 55.5484 40.8553 55.5484 40.7504C55.5484 40.6455 55.6138 40.3475 55.7011 40.0881C55.7883 39.8287 55.8537 39.5638 55.8537 39.5031C55.8537 39.2769 56.1153 38.6919 56.2025 38.725C56.2571 38.7525 56.2843 38.7029 56.2843 38.587C56.2843 38.4711 56.3334 38.4048 56.437 38.3552C56.5242 38.3221 56.5896 38.2448 56.5896 38.2006C56.5896 38.0847 56.7858 37.8805 56.8949 37.8805C56.9494 37.8805 56.9602 37.9467 56.9384 38.1234C56.9112 38.2944 56.9275 38.3552 56.9766 38.3331C57.0202 38.3221 57.0584 38.2448 57.0693 38.1676C57.0802 38.0847 57.1456 37.9689 57.211 37.9026C57.3364 37.7812 57.3418 37.7812 57.4617 37.9633C57.598 38.1675 57.7071 38.1951 57.8161 38.0461C57.8597 37.9854 57.9414 37.9578 58.0014 37.9799C58.0559 38.002 58.1486 37.9578 58.214 37.875C58.3885 37.6653 58.6499 37.5329 58.7317 37.6211C58.7754 37.6708 58.8297 37.6598 58.9115 37.5825C59.037 37.4611 59.4785 37.4169 59.4785 37.5329C59.4785 37.6819 59.6365 37.5825 59.9531 37.2238C60.1385 37.0196 60.3071 36.8485 60.3452 36.8485C60.3833 36.8485 60.3889 36.9423 60.3615 37.0858C60.3184 37.3507 60.3615 37.3783 60.5363 37.2072C60.6399 37.1024 60.6506 37.1023 60.7268 37.2127C60.7923 37.3231 60.8142 37.3065 60.9122 37.0858C61.0433 36.7878 61.1576 36.8319 61.1083 37.1741L61.0758 37.428L61.1683 37.2072C61.3156 36.854 61.6428 36.7492 61.5229 37.0968C61.4848 37.2128 61.4848 37.2128 61.6103 37.0968C61.7627 36.9478 61.812 37.0086 61.812 37.3397V37.6046L62.0081 37.3949C62.1118 37.279 62.2204 37.1851 62.2479 37.1851C62.3353 37.1851 62.3734 37.4169 62.3297 37.715C62.2916 38.002 62.2916 38.0075 62.4171 37.9247C62.5258 37.8475 62.5639 37.8474 62.6569 37.9468C62.7168 38.002 62.8037 38.035 62.8474 38.024C62.8967 38.002 62.9236 38.0792 62.9236 38.2613C62.9236 38.4159 62.9617 38.5704 63.0166 38.6146C63.1202 38.7084 63.1202 38.7194 63.2183 38.46C63.3107 38.2282 63.4743 38.2172 63.4743 38.449C63.4743 38.5428 63.5068 38.6201 63.5399 38.6201C63.5836 38.6201 63.5886 38.7305 63.5561 38.9291C63.5124 39.2492 63.5561 39.31 63.6923 39.1113C63.7522 39.0175 63.7853 39.0064 63.8452 39.0837C63.9052 39.1444 63.9102 39.2106 63.8503 39.3927C63.8071 39.5141 63.7741 39.7184 63.7741 39.8453C63.7741 40.0385 63.7853 40.0661 63.8671 39.9888C64.0251 39.8453 64.0688 39.9778 63.9651 40.2979C63.8721 40.5794 63.8777 40.6069 63.9702 40.6842C64.0301 40.7339 64.1175 40.8829 64.1668 41.0098C64.2155 41.1478 64.3192 41.2968 64.401 41.3465C64.4934 41.4017 64.5808 41.5452 64.6301 41.7328C64.6738 41.8984 64.7663 42.0694 64.8262 42.1081C64.8862 42.1412 64.9898 42.2847 65.0604 42.4282C65.1204 42.5662 65.2403 42.7428 65.3114 42.8145C65.3876 42.8918 65.4913 43.0408 65.5406 43.1402C65.6218 43.3167 65.6386 43.3223 65.7036 43.2229C65.8129 43.0573 65.9927 43.1732 66.2325 43.5651C66.4342 43.8907 66.5104 43.9514 66.4454 43.7417C66.3854 43.521 66.5434 43.4879 66.6902 43.692L66.8213 43.8687L66.9031 43.532C66.9468 43.3499 67.0449 43.1181 67.1267 43.0187C67.2085 42.9249 67.2847 42.7814 67.3121 42.7041C67.3721 42.4834 67.5138 42.5386 67.5626 42.809C67.59 42.9801 67.6281 43.0463 67.7155 43.0463C67.7973 43.0463 67.8298 42.9967 67.8298 42.8918C67.8298 42.6104 67.906 42.4337 68.0203 42.4337C68.0808 42.4337 68.1676 42.3675 68.2057 42.2792C68.2494 42.1964 68.3587 42.0364 68.4623 41.926C68.7671 41.5838 68.8708 41.2305 68.9089 40.4138C68.9363 39.8618 68.9856 39.5749 69.0943 39.2603C69.2798 38.7415 69.3341 38.1344 69.2523 37.4611C69.1873 36.8871 69.2198 36.7767 69.4815 36.7767C69.7924 36.7767 70.2608 36.5781 70.5936 36.2966C70.7734 36.1476 70.9695 36.0262 71.0239 36.0262C71.0838 36.0262 71.1987 35.971 71.2749 35.8992C71.3567 35.833 71.5203 35.7502 71.6346 35.7226C72.0161 35.6343 72.4088 35.3639 72.6593 35.0272C73.0901 34.4533 73.0901 34.4533 73.0139 33.0956C72.9977 32.6982 72.9484 32.2898 72.9103 32.1794C72.8503 32.0083 72.8559 31.9696 72.9702 31.8593C73.1338 31.7158 73.2044 31.3902 73.112 31.2026C73.0683 31.1087 73.0683 30.9928 73.1176 30.7997C73.1557 30.6561 73.1938 30.4575 73.1994 30.3637C73.2044 30.2699 73.2156 30.1263 73.2156 30.0491C73.2263 29.9442 73.3025 29.8669 73.4661 29.7952C73.7496 29.6682 73.8969 29.3371 73.7439 29.1936C73.684 29.1329 73.6571 29.0005 73.6678 28.7631C73.684 28.4651 73.7058 28.4154 73.8426 28.3823C74.0224 28.3327 74.0986 28.0401 73.935 28.0401C73.7876 28.0401 73.4773 27.8194 73.4773 27.72C73.4773 27.6814 73.4336 27.6097 73.3843 27.5766C73.2319 27.4883 73.3574 26.964 73.586 26.7432C73.7658 26.5776 73.7876 26.401 73.6353 26.401C73.5697 26.401 73.1938 26.2244 73.1176 26.1582C73.0739 26.1251 73.2319 25.8602 73.2974 25.8602C73.3843 25.8602 73.7826 25.4021 73.7826 25.3027C73.7826 25.2641 73.837 25.1592 73.9075 25.0765C74.0549 24.8998 74.1042 24.0886 73.9625 24.0886C73.9025 24.0886 73.6678 23.8236 73.6627 23.7464C73.6627 23.7243 73.7658 23.5808 73.8969 23.4208C74.0823 23.189 74.126 23.0841 74.1042 22.9296C74.0874 22.764 74.1042 22.7199 74.2185 22.6647C74.3003 22.6371 74.4095 22.626 74.4583 22.6426C74.5238 22.6702 74.5182 22.6426 74.4308 22.5322C74.3709 22.4494 74.2678 22.3667 74.2022 22.3501C74.0442 22.2893 74.0549 21.9913 74.2185 21.7927C74.3709 21.6105 74.4801 20.8434 74.3602 20.7882C74.251 20.7386 74.3277 20.2087 74.4583 20.1259C74.6219 20.0321 74.6056 19.9052 74.4258 19.9549C74.3277 19.9824 74.2291 19.9493 74.1367 19.861C74.0062 19.7396 74.0005 19.7175 74.0874 19.6403C74.2622 19.4857 74.2678 19.265 74.0986 19.1822C73.9893 19.127 73.9512 19.0663 73.9731 18.9724C74.0274 18.7462 73.8857 18.3598 73.7608 18.3598C73.6952 18.3598 73.6028 18.2715 73.5372 18.1556C73.4773 18.0397 73.3624 17.9293 73.2806 17.9128C72.9702 17.8465 72.6974 17.6313 72.6649 17.4327C72.6486 17.3112 72.5775 17.2063 72.4906 17.1677C72.3976 17.1291 72.3595 17.0573 72.3758 16.9856C72.3926 16.9083 72.3326 16.8145 72.1959 16.7152C72.0217 16.5883 71.9892 16.5165 71.9998 16.3398C72.0111 16.0805 71.9074 15.926 71.6564 15.8542L71.4659 15.799L71.4273 15.1423C71.3673 14.1212 71.1875 13.4865 70.8278 12.9732C70.6642 12.7415 70.6261 12.8188 70.6972 13.2548C70.7622 13.6356 70.7297 14.1764 70.6205 14.3199C70.5773 14.3751 70.4955 14.3696 70.3101 14.2702C70.1683 14.204 69.9392 14.1212 69.8087 14.0937C69.6776 14.0661 69.4322 13.9557 69.2691 13.8508C69.1055 13.7404 68.8383 13.6411 68.6853 13.6135C68.5273 13.5914 68.3531 13.5307 68.2987 13.4866C68.2388 13.4259 68.0203 13.3928 67.7155 13.3762C67.4539 13.3707 67.2085 13.3486 67.1704 13.3265C67.1373 13.3155 66.8869 13.2989 66.6034 13.3044C66.1944 13.3099 66.0745 13.2933 65.9871 13.194C65.8235 13.0119 65.5568 12.9071 65.3602 12.9512C65.2621 12.9733 64.9898 13.1554 64.7663 13.3486C64.3954 13.6632 64.3085 13.7018 64.0688 13.7018C63.8777 13.6963 63.7853 13.6687 63.7741 13.5914C63.7578 13.4645 63.169 13.4479 63.1202 13.5804C63.109 13.63 63.0054 13.6576 62.8911 13.6466C62.7818 13.6411 62.5969 13.6576 62.4933 13.6852C62.3134 13.7349 62.2916 13.7184 62.2916 13.5969C62.2916 13.4921 62.226 13.4203 62.0406 13.343C61.8389 13.2492 61.7952 13.1995 61.8283 13.0836C61.8445 12.9953 61.7902 12.8298 61.6809 12.6421C61.5773 12.4766 61.4955 12.2944 61.4955 12.2392C61.4955 12.184 61.403 12.0075 61.2882 11.8584C61.054 11.5384 60.8635 11.0858 60.9066 10.9534C60.9234 10.9037 60.9066 10.8485 60.8741 10.8264C60.836 10.8043 60.7598 10.6553 60.6887 10.5008C60.4926 10.0427 60.3833 9.844 60.3346 9.844C60.2366 9.844 59.762 9.09893 59.7895 8.97754C59.8057 8.89473 59.7514 8.82297 59.6259 8.75121C59.5278 8.69602 59.4348 8.58569 59.4242 8.51394C59.4135 8.43668 59.2987 8.30423 59.1788 8.2049C58.8953 8.0007 58.3121 7.65848 58.2304 7.65848C58.1813 7.65848 56.7531 6.91344 56.3933 6.6982C56.3334 6.66509 56.2516 6.65955 56.2025 6.6761C56.1535 6.69818 56.0717 6.643 56.0172 6.54918C55.9409 6.42224 55.8809 6.40018 55.712 6.42225C55.5593 6.44433 55.4666 6.41672 55.3795 6.31737C55.2977 6.22907 55.1559 6.17938 54.9597 6.16834C54.7962 6.16283 54.6272 6.1297 54.589 6.10211C54.5563 6.069 54.4037 6.01381 54.251 5.97518C54.0984 5.93655 53.864 5.86479 53.7277 5.82616C53.5915 5.78753 53.4007 5.73789 53.2971 5.72133C52.8283 5.66614 52.3486 5.55577 52.2232 5.48402C52.1305 5.42883 52.0379 5.42883 51.9234 5.47297C51.8199 5.51161 51.7163 5.51161 51.6454 5.47297C51.5909 5.43986 51.4546 5.40674 51.3456 5.40674C51.2366 5.40674 51.1221 5.37914 51.0894 5.35154C50.9858 5.26876 49.5086 5.28533 49.3505 5.36259C49.2361 5.42883 49.1706 5.42327 49.0125 5.32944C48.8381 5.23562 48.4129 5.18044 48.1131 5.21907C48.064 5.22458 47.9768 5.20805 47.9278 5.18597C47.8841 5.11423 47.7915 5.14183 47.7261 5.19702ZM40.6669 45.0442C40.6669 45.1104 40.6178 45.1822 40.5633 45.1932C40.4543 45.2153 40.4052 45.0111 40.4979 44.9062C40.5688 44.8345 40.6669 44.9118 40.6669 45.0442ZM41.9752 47.8865C41.9479 48.0852 41.7407 48.1459 41.7407 47.9527C41.7407 47.8037 41.7898 47.7319 41.9043 47.7319C41.9588 47.7319 41.9861 47.7872 41.9752 47.8865Z" fill="#FFFEFE"/>
<path d="M4.99799 31.1529C4.89275 31.2172 4.87522 31.2522 4.93953 31.2639C4.99214 31.2639 5.09738 31.2113 5.16754 31.1529C5.3254 31.0242 5.21431 31.0184 4.99799 31.1529Z" fill="#FFFEFE"/>
<path d="M63.2057 37.5917C63.1763 37.6151 63.1589 37.6736 63.1589 37.7145C63.1589 37.7555 63.1943 37.7496 63.2411 37.7028C63.2819 37.6619 63.2993 37.6034 63.2879 37.58C63.2699 37.5508 63.2291 37.5625 63.2057 37.5917Z" fill="#FFFEFE"/>
<path d="M143.832 15.6001C144.576 15.6001 145.22 15.7241 145.764 15.9721C146.316 16.22 146.74 16.5721 147.036 17.0281C147.332 17.4841 147.48 18.0241 147.48 18.6481C147.48 19.2641 147.332 19.8041 147.036 20.2681C146.74 20.7241 146.316 21.0761 145.764 21.3241C145.22 21.5641 144.576 21.6841 143.832 21.6841H142.14V24.0001H140.196V15.6001H143.832ZM143.724 20.1001C144.308 20.1001 144.752 19.976 145.056 19.7281C145.36 19.472 145.512 19.112 145.512 18.6481C145.512 18.176 145.36 17.816 145.056 17.5681C144.752 17.312 144.308 17.1841 143.724 17.1841H142.14V20.1001H143.724ZM154.22 24.0001L152.6 21.6601H152.504H150.812V24.0001H148.868V15.6001H152.504C153.248 15.6001 153.892 15.7241 154.436 15.9721C154.988 16.22 155.412 16.5721 155.708 17.0281C156.004 17.4841 156.152 18.0241 156.152 18.6481C156.152 19.2721 156 19.8121 155.696 20.2681C155.4 20.7161 154.976 21.0601 154.424 21.3001L156.308 24.0001H154.22ZM154.184 18.6481C154.184 18.176 154.032 17.816 153.728 17.5681C153.424 17.312 152.98 17.1841 152.396 17.1841H150.812V20.1121H152.396C152.98 20.1121 153.424 19.9841 153.728 19.7281C154.032 19.472 154.184 19.112 154.184 18.6481ZM161.76 24.1441C160.888 24.1441 160.1 23.9561 159.396 23.5801C158.7 23.204 158.152 22.688 157.752 22.0321C157.36 21.368 157.164 20.624 157.164 19.8001C157.164 18.9761 157.36 18.236 157.752 17.5801C158.152 16.916 158.7 16.3961 159.396 16.0201C160.1 15.644 160.888 15.4561 161.76 15.4561C162.632 15.4561 163.416 15.644 164.112 16.0201C164.808 16.3961 165.356 16.916 165.756 17.5801C166.156 18.236 166.356 18.9761 166.356 19.8001C166.356 20.624 166.156 21.368 165.756 22.0321C165.356 22.688 164.808 23.204 164.112 23.5801C163.416 23.9561 162.632 24.1441 161.76 24.1441ZM161.76 22.4881C162.256 22.4881 162.704 22.376 163.104 22.1521C163.504 21.92 163.816 21.6001 164.04 21.1921C164.272 20.7841 164.388 20.3201 164.388 19.8001C164.388 19.28 164.272 18.8161 164.04 18.4081C163.816 18.0001 163.504 17.684 163.104 17.4601C162.704 17.228 162.256 17.1121 161.76 17.1121C161.264 17.1121 160.816 17.228 160.416 17.4601C160.016 17.684 159.7 18.0001 159.468 18.4081C159.244 18.8161 159.132 19.28 159.132 19.8001C159.132 20.3201 159.244 20.7841 159.468 21.1921C159.7 21.6001 160.016 21.92 160.416 22.1521C160.816 22.376 161.264 22.4881 161.76 22.4881Z" fill="#F7654A"/>
<path d="M85.566 28.8H95.736V31.122H88.464V33.714H91.956C93.48 33.714 94.638 34.032 95.43 34.668C96.234 35.304 96.636 36.222 96.636 37.422C96.636 38.682 96.192 39.66 95.304 40.356C94.416 41.052 93.162 41.4 91.542 41.4H85.566V28.8ZM91.38 39.24C92.124 39.24 92.694 39.096 93.09 38.808C93.486 38.508 93.684 38.076 93.684 37.512C93.684 36.408 92.916 35.856 91.38 35.856H88.464V39.24H91.38ZM109.756 28.8L104.392 38.772C103.876 39.732 103.252 40.458 102.52 40.95C101.8 41.442 101.014 41.688 100.162 41.688C99.5022 41.688 98.8182 41.544 98.1102 41.256L98.8122 39.042C99.3162 39.198 99.7362 39.276 100.072 39.276C100.432 39.276 100.756 39.192 101.044 39.024C101.332 38.844 101.596 38.568 101.836 38.196L101.944 38.052L96.9762 28.8H100.09L103.438 35.568L106.894 28.8H109.756ZM111.142 28.8H114.04V37.008L120.052 28.8H122.788V41.4H119.908V33.21L113.896 41.4H111.142V28.8ZM116.956 27.99C114.652 27.99 113.488 27.072 113.464 25.236H115.462C115.486 26.112 115.984 26.55 116.956 26.55C117.436 26.55 117.802 26.442 118.054 26.226C118.306 25.998 118.438 25.668 118.45 25.236H120.448C120.436 26.136 120.142 26.82 119.566 27.288C118.99 27.756 118.12 27.99 116.956 27.99ZM134.656 34.83C135.424 35.058 136.012 35.43 136.42 35.946C136.828 36.462 137.032 37.098 137.032 37.854C137.032 38.97 136.606 39.84 135.754 40.464C134.914 41.088 133.708 41.4 132.136 41.4H125.926V28.8H131.794C133.258 28.8 134.398 29.082 135.214 29.646C136.03 30.21 136.438 31.014 136.438 32.058C136.438 32.682 136.282 33.234 135.97 33.714C135.658 34.182 135.22 34.554 134.656 34.83ZM128.824 34.02H131.542C132.178 34.02 132.658 33.894 132.982 33.642C133.306 33.378 133.468 32.994 133.468 32.49C133.468 31.998 133.3 31.62 132.964 31.356C132.64 31.092 132.166 30.96 131.542 30.96H128.824V34.02ZM132.028 39.24C133.396 39.24 134.08 38.7 134.08 37.62C134.08 36.576 133.396 36.054 132.028 36.054H128.824V39.24H132.028ZM145.349 41.616C144.041 41.616 142.859 41.334 141.803 40.77C140.759 40.206 139.937 39.432 139.337 38.448C138.749 37.452 138.455 36.336 138.455 35.1C138.455 33.864 138.749 32.754 139.337 31.77C139.937 30.774 140.759 29.994 141.803 29.43C142.859 28.866 144.041 28.584 145.349 28.584C146.657 28.584 147.833 28.866 148.877 29.43C149.921 29.994 150.743 30.774 151.343 31.77C151.943 32.754 152.243 33.864 152.243 35.1C152.243 36.336 151.943 37.452 151.343 38.448C150.743 39.432 149.921 40.206 148.877 40.77C147.833 41.334 146.657 41.616 145.349 41.616ZM145.349 39.132C146.093 39.132 146.765 38.964 147.365 38.628C147.965 38.28 148.433 37.8 148.769 37.188C149.117 36.576 149.291 35.88 149.291 35.1C149.291 34.32 149.117 33.624 148.769 33.012C148.433 32.4 147.965 31.926 147.365 31.59C146.765 31.242 146.093 31.068 145.349 31.068C144.605 31.068 143.933 31.242 143.333 31.59C142.733 31.926 142.259 32.4 141.911 33.012C141.575 33.624 141.407 34.32 141.407 35.1C141.407 35.88 141.575 36.576 141.911 37.188C142.259 37.8 142.733 38.28 143.333 38.628C143.933 38.964 144.605 39.132 145.349 39.132ZM165.37 28.8V41.4H162.49V31.176H158.17L158.08 33.804C158.02 35.592 157.876 37.044 157.648 38.16C157.42 39.264 157.036 40.116 156.496 40.716C155.968 41.304 155.224 41.598 154.264 41.598C153.868 41.598 153.388 41.532 152.824 41.4L153.004 38.934C153.16 38.982 153.334 39.006 153.526 39.006C154.222 39.006 154.708 38.598 154.984 37.782C155.26 36.954 155.434 35.664 155.506 33.912L155.686 28.8H165.37Z" fill="#FFFCFC"/>
</svg>
