<svg width="40" height="40" viewBox="0 0 40 40" fill="none" xmlns="http://www.w3.org/2000/svg">
<rect width="40" height="40" fill="#F7654A"/>
<path d="M30.5714 26.4286C30.5714 25.9598 30.183 25.5714 29.7143 25.5714H10.8571C10.3884 25.5714 10 25.9598 10 26.4286V28.1429C10 28.6116 10.3884 29 10.8571 29H29.7143C30.183 29 30.5714 28.6116 30.5714 28.1429V26.4286ZM30.5714 19.5714C30.5714 19.1027 30.183 18.7143 29.7143 18.7143H10.8571C10.3884 18.7143 10 19.1027 10 19.5714V21.2857C10 21.7545 10.3884 22.1429 10.8571 22.1429H29.7143C30.183 22.1429 30.5714 21.7545 30.5714 21.2857V19.5714ZM30.5714 12.7143C30.5714 12.2455 30.183 11.8571 29.7143 11.8571H10.8571C10.3884 11.8571 10 12.2455 10 12.7143V14.4286C10 14.8973 10.3884 15.2857 10.8571 15.2857H29.7143C30.183 15.2857 30.5714 14.8973 30.5714 14.4286V12.7143Z" fill="white"/>
</svg>
